# Blender v2.76 (sub 0) OBJ File: ''
# www.blender.org
v 0.286521 -2.210481 -0.397395
v 0.285495 -2.210481 -0.972314
v -0.289423 -2.210188 -0.971288
v -0.288397 -2.210188 -0.396369
v 0.286228 -2.785401 -0.397395
v 0.285202 -2.785401 -0.972314
v -0.289717 -2.785107 -0.971287
v -0.288691 -2.785107 -0.396369
v 0.287533 -2.210482 0.169466
v -0.287385 -2.210188 0.170492
v 0.287240 -2.785401 0.169466
v -0.287679 -2.785107 0.170493
v 0.288425 -2.210482 0.669053
v -0.286494 -2.210188 0.670079
v 0.288131 -2.785401 0.669054
v -0.286787 -2.785107 0.670080
v 0.288748 -1.772538 0.724577
v -0.286171 -1.772244 0.725603
v 0.288007 -3.223345 0.724578
v -0.286912 -3.223051 0.725604
v 0.001288 -1.772391 0.725090
v 0.289790 -2.497941 1.516444
v -0.285128 -2.497648 1.517470
v 0.000547 -3.223198 0.725091
v 0.002331 -2.497794 1.516957
v 0.287771 0.236123 -0.397397
v -0.287147 0.236417 -0.396371
v 0.288783 0.236123 0.169464
v -0.286136 0.236417 0.170490
vt 0.545000 0.440000
vt 0.545000 0.115677
vt 0.455000 0.115677
vt 0.455000 0.440000
vt 0.545000 0.560000
vt 0.455000 0.560000
vt 0.633739 0.440000
vt 0.633739 0.560000
vt 0.711946 0.440000
vt 0.711946 0.560000
vt 0.545000 0.678318
vt 0.455000 0.678318
vt 0.633739 0.115677
vt 0.844600 0.500000
vt 0.455000 0.782595
vt 0.545000 0.782595
vt 0.500000 0.959467
vt 0.500000 0.794184
vt 0.455000 0.794184
vt 0.500000 0.348590
vt 0.500000 0.651410
vt 0.455000 0.959467
vt 0.545000 0.959467
vt 0.545000 0.794184
vt 0.720638 0.348590
vt 0.720638 0.651410
vt 0.545000 0.348590
vt 0.455000 0.348590
vt 0.455000 0.651410
vt 0.545000 0.651410
vn 0.001800 -0.000000 1.000000
vn 0.904100 0.301000 -0.303100
vn 0.576600 0.577000 -0.578400
vn -0.578100 0.577600 -0.576300
vn -0.707400 -0.706700 0.001300
vn -0.578700 -0.577000 -0.576300
vn 0.576000 -0.577600 -0.578400
vn 0.706700 -0.707400 -0.001300
vn 0.905200 0.301000 0.299900
vn 0.889000 0.342500 -0.303800
vn 0.888700 -0.343400 -0.303800
vn -0.903800 0.302000 0.303100
vn 0.578700 0.577000 0.576300
vn -0.890100 -0.342500 -0.300600
vn -0.571400 0.000300 0.820600
vn -0.889800 0.343400 -0.300600
vn -0.000100 0.938800 -0.344300
vn -0.551800 0.783300 -0.286200
vn -0.001100 -0.938800 -0.344300
vn 0.574300 -0.000300 0.818600
vn -0.552600 -0.782700 -0.286200
vn 0.551600 0.782700 -0.288200
vn -0.576000 0.577600 0.578400
vn -0.904900 0.302000 -0.299900
vn 0.550800 -0.783300 -0.288200
s off
f 9/1/1 28/2/1 29/3/1
f 10/4/1 9/1/1 29/3/1
s 1
f 1/5/2 2/1/3 3/4/4
f 8/6/5 7/4/6 6/1/7
f 5/5/8 6/6/7 2/4/3
f 2/1/3 6/5/7 7/6/6
f 3/4/4 7/6/6 8/5/5
f 1/1/2 9/7/9 11/8/8
f 9/7/9 13/9/10 15/10/11
f 5/5/8 11/11/8 12/12/5
f 8/5/5 12/8/5 10/7/12
f 1/1/2 26/2/3 28/13/13
f 16/10/14 23/14/15 14/9/16
f 10/7/12 12/8/5 16/10/14
f 10/12/12 14/15/16 13/16/10
f 12/12/5 11/11/8 15/16/11
f 25/17/1 21/18/17 18/19/18
f 14/4/16 21/20/17 13/1/10
f 15/5/11 24/21/19 16/6/14
f 13/9/10 22/14/20 15/10/11
f 25/17/1 23/22/15 20/19/21
f 22/23/20 25/17/1 24/18/19
f 17/24/22 21/18/17 25/17/1
f 27/6/4 29/12/23 28/11/13
f 4/4/24 27/3/4 26/2/3
f 4/1/24 10/7/12 29/13/23
f 4/6/24 1/5/2 3/4/4
f 5/5/8 8/6/5 6/1/7
f 1/1/2 5/5/8 2/4/3
f 3/4/4 2/1/3 7/6/6
f 4/1/24 3/4/4 8/5/5
f 5/5/8 1/1/2 11/8/8
f 11/8/8 9/7/9 15/10/11
f 8/6/5 5/5/8 12/12/5
f 4/1/24 8/5/5 10/7/12
f 9/7/9 1/1/2 28/13/13
f 18/25/18 14/9/16 23/14/15
f 16/10/14 20/26/21 23/14/15
f 14/9/16 10/7/12 16/10/14
f 9/11/9 10/12/12 13/16/10
f 16/15/14 12/12/5 15/16/11
f 23/22/15 25/17/1 18/19/18
f 17/27/22 13/1/10 21/20/17
f 14/4/16 18/28/18 21/20/17
f 20/29/21 16/6/14 24/21/19
f 15/5/11 19/30/25 24/21/19
f 19/26/25 15/10/11 22/14/20
f 13/9/10 17/25/22 22/14/20
f 24/18/19 25/17/1 20/19/21
f 19/24/25 22/23/20 24/18/19
f 22/23/20 17/24/22 25/17/1
f 26/5/3 27/6/4 28/11/13
f 1/1/2 4/4/24 26/2/3
f 27/2/4 4/1/24 29/13/23
