# Blender v2.76 (sub 0) OBJ File: ''
# www.blender.org
v 1.997180 -0.098152 -1.997799
v -1.997180 -0.098152 -1.997798
v -1.997179 -0.098153 1.997800
v -1.997180 -0.002659 1.997799
v -1.997180 -0.002658 -1.997798
v 1.997178 -0.002658 -1.997800
v 1.997181 -0.002659 1.997798
v 1.997180 -0.098153 1.997798
vt 0.500000 0.000000
vt 0.000000 0.000000
vt 0.000000 0.500000
vt 0.000000 1.000000
vt 0.500000 0.500000
vt 0.500000 1.000000
vt 1.000000 1.000000
vt 1.000000 0.500000
vn 0.000000 1.000000 0.000000
vn -0.000000 -1.000000 -0.000000
vn -1.000000 0.000000 0.000000
vn 0.000000 0.000000 1.000000
vn 1.000000 0.000000 -0.000000
vn -0.000000 -0.000000 -1.000000
s 1
f 1/1/1 2/2/1 3/3/1
f 4/4/2 5/3/2 6/5/2
f 7/6/3 6/4/3 1/3/3
f 6/6/4 5/4/4 2/3/4
f 5/6/5 4/7/5 3/8/5
f 8/1/6 3/2/6 4/3/6
f 8/5/1 1/1/1 3/3/1
f 7/6/2 4/4/2 6/5/2
f 8/5/3 7/6/3 1/3/3
f 1/5/4 6/6/4 2/3/4
f 2/5/5 5/6/5 3/8/5
f 7/5/6 8/1/6 4/3/6
