# Blender v2.73 (sub 7) OBJ File: 'Coin1_pack.blend'
# www.blender.org
v 0.595081 0.595082 -0.161142
v 0.595081 -0.595081 -0.161142
v -0.595081 -0.595081 -0.161142
v -0.595081 0.595082 -0.161142
v 0.595081 0.595081 0.161142
v 0.595081 -0.595082 0.161142
v -0.595082 -0.595081 0.161142
v -0.595081 0.595081 0.161142
v 0.777511 0.322056 -0.161142
v 0.841572 0.000000 -0.161142
v 0.777511 -0.322056 -0.161142
v 0.322056 0.777511 -0.161142
v 0.000000 0.841572 -0.161142
v -0.322056 0.777511 -0.161142
v 0.322056 -0.777511 -0.161142
v 0.000000 -0.841572 -0.161142
v -0.322056 -0.777511 -0.161142
v -0.777511 -0.322056 -0.161142
v -0.841572 0.000000 -0.161142
v -0.777511 0.322056 -0.161142
v 0.777511 0.322055 0.161142
v 0.841572 -0.000000 0.161142
v 0.777511 -0.322056 0.161142
v 0.322056 0.777511 0.161142
v 0.000000 0.841572 0.161142
v -0.322056 0.777511 0.161142
v 0.322055 -0.777511 0.161142
v -0.000000 -0.841572 0.161142
v -0.322056 -0.777511 0.161142
v -0.777511 -0.322056 0.161142
v -0.841572 0.000000 0.161142
v -0.777511 0.322056 0.161142
v 0.361945 0.361944 0.161142
v 0.361945 -0.000000 0.161142
v 0.361944 -0.361945 0.161142
v 0.000000 0.361944 0.161142
v -0.000000 -0.000000 0.161142
v -0.000000 -0.361945 0.161142
v -0.361945 0.361945 0.161142
v -0.361945 0.000000 0.161142
v -0.361945 -0.361945 0.161142
v 0.361945 0.361945 -0.161142
v 0.000000 0.361945 -0.161142
v -0.361944 0.361945 -0.161142
v 0.361945 0.000000 -0.161142
v 0.000000 0.000000 -0.161142
v -0.361945 0.000000 -0.161142
v 0.361945 -0.361945 -0.161142
v 0.000000 -0.361944 -0.161142
v -0.361945 -0.361944 -0.161142
vt 0.661172 0.486879
vt 0.644938 0.310906
vt 0.760225 0.388557
vt 0.353881 0.486883
vt 0.178521 0.503753
vt 0.255480 0.388523
vt 0.437511 0.212104
vt 0.500000 0.212104
vt 0.500000 0.273436
vt 0.562489 0.212104
vt 0.562489 0.273436
vt 0.624978 0.212104
vt 0.624978 0.273436
vt 0.749956 0.212104
vt 0.749956 0.273436
vt 0.687467 0.273436
vt 0.937423 0.273435
vt 0.874934 0.273436
vt 0.874934 0.212104
vt 0.812445 0.273436
vt 0.812445 0.212104
vt 0.999912 0.273435
vt 0.937423 0.212104
vt 0.187555 0.273437
vt 0.125066 0.273437
vt 0.125066 0.212105
vt 0.062577 0.273437
vt 0.062577 0.212105
vt 0.000088 0.273437
vt 0.000088 0.212105
vt 0.250044 0.273437
vt 0.187555 0.212105
vt 0.437511 0.273436
vt 0.375022 0.273436
vt 0.375022 0.212104
vt 0.312533 0.273436
vt 0.312533 0.212105
vt 0.250044 0.212105
vt 0.687467 0.212104
vt 0.659353 0.486818
vt 0.642483 0.311458
vt 0.757712 0.388416
vt 0.506617 0.486851
vt 0.506574 0.284454
vt 0.370676 0.311516
vt 0.757820 0.890649
vt 0.642623 0.967657
vt 0.659418 0.792290
vt 0.834778 0.775420
vt 0.659385 0.639554
vt 0.834720 0.503613
vt 0.506725 0.994719
vt 0.506682 0.792322
vt 0.506649 0.639586
vt 0.370816 0.967715
vt 0.353946 0.792355
vt 0.353914 0.639619
vt 0.255587 0.890756
vt 0.178579 0.775559
vt 0.151517 0.639662
vt 0.660039 0.793303
vt 0.836012 0.777068
vt 0.758361 0.892355
vt 0.660606 0.640091
vt 0.863633 0.640842
vt 0.837020 0.504415
vt 0.254563 0.890492
vt 0.177767 0.774634
vt 0.353615 0.792169
vt 0.369850 0.968142
vt 0.506827 0.792736
vt 0.642503 0.969151
vt 0.151155 0.638207
vt 0.354182 0.638958
vt 0.507394 0.639524
vt 0.178776 0.501980
vt 0.354749 0.485746
vt 0.507961 0.486312
vt 0.256427 0.386693
vt 0.372285 0.309898
vt 0.508712 0.283285
vt 0.999912 0.212104
vt 0.861782 0.639511
vt 0.506076 0.995763
vn 0.000000 -0.000000 -1.000000
vn 0.000000 0.000000 1.000000
vn 0.555600 0.831500 0.000000
vn 0.195100 0.980800 0.000000
vn -0.195100 0.980800 0.000000
vn -0.831500 0.555600 -0.000000
vn -0.831500 -0.555600 -0.000000
vn -0.980800 -0.195100 0.000000
vn -0.980800 0.195100 -0.000000
vn -0.555600 -0.831500 -0.000000
vn 0.555600 -0.831500 0.000000
vn 0.195100 -0.980800 -0.000000
vn -0.195100 -0.980800 0.000000
vn 0.831500 -0.555600 -0.000000
vn 0.831500 0.555600 0.000000
vn 0.980800 0.195100 0.000000
vn 0.980800 -0.195100 0.000000
vn -0.555600 0.831500 0.000000
s off
f 50/1/1 17/2/1 3/3/1
f 41/4/2 30/5/2 7/6/2
f 1/7/3 12/8/3 24/9/3
f 12/8/4 13/10/4 25/11/4
f 13/10/5 14/12/5 26/13/5
f 20/14/6 32/15/6 8/16/6
f 7/17/7 30/18/7 18/19/7
f 30/18/8 31/20/8 19/21/8
f 31/20/9 32/15/9 20/14/9
f 29/22/10 7/17/10 3/23/10
f 6/24/11 27/25/11 15/26/11
f 27/25/12 28/27/12 16/28/12
f 28/27/13 29/29/13 17/30/13
f 23/31/14 6/24/14 2/32/14
f 5/33/15 21/34/15 9/35/15
f 21/34/16 22/36/16 10/37/16
f 22/36/17 23/31/17 11/38/17
f 26/13/18 14/12/18 4/39/18
f 35/40/2 27/41/2 6/42/2
f 38/43/2 28/44/2 27/41/2
f 38/43/2 41/4/2 29/45/2
f 5/46/2 24/47/2 33/48/2
f 21/49/2 33/48/2 34/50/2
f 34/50/2 35/40/2 23/51/2
f 24/47/2 25/52/2 36/53/2
f 36/53/2 37/54/2 34/50/2
f 37/54/2 38/43/2 35/40/2
f 26/55/2 39/56/2 36/53/2
f 39/56/2 40/57/2 37/54/2
f 37/54/2 40/57/2 41/4/2
f 8/58/2 32/59/2 39/56/2
f 32/59/2 31/60/2 40/57/2
f 40/57/2 31/60/2 30/5/2
f 44/61/1 20/62/1 4/63/1
f 47/64/1 19/65/1 20/62/1
f 47/64/1 50/1/1 18/66/1
f 1/67/1 9/68/1 42/69/1
f 12/70/1 42/69/1 43/71/1
f 43/71/1 44/61/1 14/72/1
f 9/68/1 10/73/1 45/74/1
f 42/69/1 45/74/1 46/75/1
f 46/75/1 47/64/1 44/61/1
f 11/76/1 48/77/1 45/74/1
f 45/74/1 48/77/1 49/78/1
f 49/78/1 50/1/1 47/64/1
f 2/79/1 15/80/1 48/77/1
f 15/80/1 16/81/1 49/78/1
f 49/78/1 16/81/1 17/2/1
f 18/66/1 50/1/1 3/3/1
f 29/45/2 41/4/2 7/6/2
f 5/33/3 1/7/3 24/9/3
f 24/9/4 12/8/4 25/11/4
f 25/11/5 13/10/5 26/13/5
f 4/39/6 20/14/6 8/16/6
f 3/23/7 7/17/7 18/19/7
f 18/19/8 30/18/8 19/21/8
f 19/21/9 31/20/9 20/14/9
f 17/82/10 29/22/10 3/23/10
f 2/32/11 6/24/11 15/26/11
f 15/26/12 27/25/12 16/28/12
f 16/28/13 28/27/13 17/30/13
f 11/38/14 23/31/14 2/32/14
f 1/7/15 5/33/15 9/35/15
f 9/35/16 21/34/16 10/37/16
f 10/37/17 22/36/17 11/38/17
f 8/16/18 26/13/18 4/39/18
f 23/51/2 35/40/2 6/42/2
f 35/40/2 38/43/2 27/41/2
f 28/44/2 38/43/2 29/45/2
f 21/49/2 5/46/2 33/48/2
f 22/83/2 21/49/2 34/50/2
f 22/83/2 34/50/2 23/51/2
f 33/48/2 24/47/2 36/53/2
f 33/48/2 36/53/2 34/50/2
f 34/50/2 37/54/2 35/40/2
f 25/52/2 26/55/2 36/53/2
f 36/53/2 39/56/2 37/54/2
f 38/43/2 37/54/2 41/4/2
f 26/55/2 8/58/2 39/56/2
f 39/56/2 32/59/2 40/57/2
f 41/4/2 40/57/2 30/5/2
f 14/72/1 44/61/1 4/63/1
f 44/61/1 47/64/1 20/62/1
f 19/65/1 47/64/1 18/66/1
f 12/70/1 1/67/1 42/69/1
f 13/84/1 12/70/1 43/71/1
f 13/84/1 43/71/1 14/72/1
f 42/69/1 9/68/1 45/74/1
f 43/71/1 42/69/1 46/75/1
f 43/71/1 46/75/1 44/61/1
f 10/73/1 11/76/1 45/74/1
f 46/75/1 45/74/1 49/78/1
f 46/75/1 49/78/1 47/64/1
f 11/76/1 2/79/1 48/77/1
f 48/77/1 15/80/1 49/78/1
f 50/1/1 49/78/1 17/2/1
