# Blender v2.76 (sub 0) OBJ File: ''
# www.blender.org
v 0.137807 -0.191592 -0.983260
v 0.134129 0.003485 -1.002246
v 0.131059 0.198528 -0.982808
v 0.128716 0.386042 -0.925691
v 0.127189 0.558821 -0.833091
v 0.126537 0.710225 -0.708569
v 0.126785 0.834435 -0.556906
v 0.127923 0.926677 -0.383934
v 0.129909 0.983408 -0.196298
v 0.132665 1.002446 -0.001210
v 0.136085 0.983061 0.193833
v 0.140039 0.925998 0.381337
v 0.144374 0.833448 0.554095
v 0.148924 0.708969 0.705467
v 0.153513 0.557345 0.829639
v 0.157966 0.384402 0.921836
v 0.162111 0.196786 0.978517
v 0.165789 0.001708 0.997502
v 0.168859 -0.193336 0.978063
v 0.171202 -0.380850 0.920947
v 0.172729 -0.553629 0.828348
v 0.173381 -0.705033 0.703824
v 0.173133 -0.829242 0.552162
v 0.171994 -0.921485 0.379189
v 0.170009 -0.978215 0.191553
v 0.167253 -0.997253 -0.003535
v 0.163832 -0.977868 -0.198578
v 0.159879 -0.920805 -0.386081
v 0.155544 -0.828255 -0.558839
v 0.150994 -0.703776 -0.710212
v 0.146405 -0.552151 -0.834383
v 0.141952 -0.379208 -0.926581
v -0.165789 -0.001708 -0.997502
v -0.162111 -0.196785 -0.978517
v -0.157966 -0.384401 -0.921837
v -0.153513 -0.557344 -0.829640
v -0.148924 -0.708969 -0.705468
v -0.144374 -0.833448 -0.554095
v -0.140039 -0.925998 -0.381337
v -0.136085 -0.983061 -0.193834
v -0.132665 -1.002446 0.001209
v -0.129909 -0.983408 0.196297
v -0.127923 -0.926678 0.383933
v -0.126785 -0.834436 0.556905
v -0.126537 -0.710226 0.708568
v -0.127189 -0.558822 0.833091
v -0.128716 -0.386043 0.925691
v -0.131059 -0.198529 0.982807
v -0.134129 -0.003485 1.002246
v -0.137807 0.191593 0.983260
v -0.141952 0.379209 0.926580
v -0.146405 0.552152 0.834382
v -0.150994 0.703776 0.710211
v -0.155544 0.828255 0.558839
v -0.159879 0.920805 0.386081
v -0.163832 0.977868 0.198577
v -0.167253 0.997253 0.003534
v -0.170009 0.978215 -0.191554
v -0.171994 0.921484 -0.379190
v -0.173133 0.829241 -0.552163
v -0.173381 0.705032 -0.703825
v -0.172729 0.553628 -0.828348
v -0.171202 0.380849 -0.920947
v -0.168859 0.193335 -0.978064
vt 0.155260 0.049611
vt 0.467470 0.314099
vt 0.025939 0.688141
vt 0.708953 0.027443
vt 0.885327 0.910994
vt 0.524347 0.600733
vt 0.338148 0.952629
vt 0.293322 0.980439
vt 0.155260 0.952629
vt 0.246704 0.989829
vt 0.200087 0.980439
vt 0.113948 0.907467
vt 0.077738 0.846690
vt 0.048020 0.772633
vt 0.012341 0.596463
vt 0.007749 0.501120
vt 0.012341 0.405778
vt 0.025938 0.314099
vt 0.048020 0.229608
vt 0.077737 0.155550
vt 0.113948 0.094773
vt 0.200086 0.021801
vt 0.246704 0.012410
vt 0.293322 0.021801
vt 0.338148 0.049611
vt 0.379461 0.094773
vt 0.415671 0.155550
vt 0.445388 0.229607
vt 0.481068 0.405777
vt 0.485659 0.501120
vt 0.481068 0.596463
vt 0.467470 0.688141
vt 0.445388 0.772632
vt 0.415671 0.846690
vt 0.379461 0.907467
vt 0.800629 0.983792
vt 0.754791 0.993160
vt 0.708953 0.983792
vt 0.664877 0.956048
vt 0.624255 0.910995
vt 0.588650 0.850363
vt 0.559430 0.776482
vt 0.537717 0.692193
vt 0.519832 0.505618
vt 0.524347 0.410503
vt 0.537717 0.319043
vt 0.559430 0.234754
vt 0.588650 0.160873
vt 0.624255 0.100241
vt 0.664876 0.055187
vt 0.754791 0.018075
vt 0.800629 0.027442
vt 0.844706 0.055187
vt 0.885327 0.100240
vt 0.920932 0.160872
vt 0.985236 0.410502
vt 0.950153 0.234753
vt 0.971865 0.319043
vt 0.989750 0.505617
vt 0.985236 0.600732
vt 0.971865 0.692192
vt 0.950153 0.776482
vt 0.920932 0.850362
vt 0.844706 0.956048
vt 0.518503 -0.870217
vt 0.518503 -0.801697
vt 0.460948 -0.801698
vt 0.518503 -0.733178
vt 0.518503 -0.664659
vt 0.460948 -0.664660
vt 0.518503 -0.596140
vt 0.518503 -0.527621
vt 0.460948 -0.527621
vt 0.518503 -0.459102
vt 0.460948 -0.459102
vt 0.518503 -0.390583
vt 0.460948 -0.390583
vt 0.518503 -0.322064
vt 0.518504 -0.253545
vt 0.460948 -0.253545
vt 0.518504 -0.185026
vt 0.460948 -0.185026
vt 0.518504 -0.116507
vt 0.460948 -0.116507
vt 0.518504 -0.136656
vt 0.518504 -0.024296
vt 0.460948 -0.024296
vt 0.518504 0.088063
vt 0.460948 0.088063
vt 0.518504 0.216253
vt 0.518504 0.355347
vt 0.460948 0.355347
vt 0.518504 0.500000
vt 0.460948 0.500000
vt 0.518504 0.644653
vt 0.518504 0.783747
vt 0.460948 0.783747
vt 0.518504 0.911937
vt 0.460949 0.911937
vt 0.518504 1.024296
vt 0.460949 1.024296
vt 0.518504 1.116507
vt 0.460949 1.116508
vt 0.518504 1.185026
vt 0.460949 1.185026
vt 0.518504 1.227220
vt 0.460949 1.227220
vt 0.518502 -1.486888
vt 0.518503 -1.418369
vt 0.460948 -1.418369
vt 0.518503 -1.349850
vt 0.460948 -1.349850
vt 0.518503 -1.281331
vt 0.460948 -1.281331
vt 0.518503 -1.212811
vt 0.460948 -1.212812
vt 0.518503 -1.144292
vt 0.460948 -1.144293
vt 0.518503 -1.075773
vt 0.460948 -1.075774
vt 0.518503 -1.007254
vt 0.518503 -0.938735
vt 0.460948 -0.870217
vt 0.460948 -0.938736
vt 0.460948 -0.733179
vt 0.460948 -0.596141
vt 0.460948 -0.322064
vt 0.460948 -0.136656
vt 0.460948 0.216253
vt 0.460948 0.644653
vt 0.460948 -1.486889
vt 0.460948 -1.007255
vn 0.999700 0.017300 -0.015800
vn -0.999700 -0.017300 0.015800
vn -0.014100 -0.097100 -0.995200
vn -0.010100 -0.289400 -0.957200
vn -0.005800 -0.470500 -0.882400
vn -0.001300 -0.633600 -0.773700
vn 0.003300 -0.772300 -0.635200
vn 0.007800 -0.881400 -0.472400
vn 0.012000 -0.956500 -0.291400
vn 0.015700 -0.994900 -0.099200
vn 0.018800 -0.995100 0.096800
vn 0.021100 -0.957100 0.289100
vn 0.022700 -0.882200 0.470300
vn 0.023400 -0.773500 0.633400
vn 0.023200 -0.635000 0.772200
vn 0.022100 -0.472100 0.881300
vn 0.020200 -0.291100 0.956500
vn 0.017400 -0.098900 0.994900
vn 0.014100 0.097100 0.995200
vn 0.010100 0.289400 0.957200
vn 0.005800 0.470500 0.882400
vn 0.001300 0.633600 0.773600
vn -0.003300 0.772300 0.635200
vn -0.007800 0.881400 0.472400
vn -0.012000 0.956500 0.291400
vn -0.015700 0.994900 0.099200
vn -0.018800 0.995100 -0.096800
vn -0.021100 0.957100 -0.289100
vn -0.022700 0.882200 -0.470300
vn -0.023400 0.773500 -0.633400
vn -0.023200 0.635000 -0.772200
vn -0.022100 0.472100 -0.881300
vn -0.017400 0.098900 -0.994900
vn -0.020200 0.291100 -0.956500
s off
f 16/1/1 24/2/1 8/3/1
f 48/4/2 62/5/2 40/6/2
f 32/7/1 1/8/1 4/9/1
f 2/10/1 3/11/1 4/9/1
f 4/9/1 5/12/1 8/3/1
f 6/13/1 7/14/1 8/3/1
f 8/3/1 9/15/1 10/16/1
f 10/16/1 11/17/1 8/3/1
f 12/18/1 13/19/1 14/20/1
f 14/20/1 15/21/1 16/1/1
f 16/1/1 17/22/1 18/23/1
f 18/23/1 19/24/1 16/1/1
f 20/25/1 21/26/1 24/2/1
f 22/27/1 23/28/1 24/2/1
f 24/2/1 25/29/1 26/30/1
f 26/30/1 27/31/1 24/2/1
f 28/32/1 29/33/1 30/34/1
f 30/34/1 31/35/1 28/32/1
f 1/8/1 2/10/1 4/9/1
f 5/12/1 6/13/1 8/3/1
f 8/3/1 11/17/1 16/1/1
f 12/18/1 14/20/1 11/17/1
f 16/1/1 19/24/1 24/2/1
f 21/26/1 22/27/1 24/2/1
f 24/2/1 27/31/1 8/3/1
f 28/32/1 31/35/1 32/7/1
f 32/7/1 4/9/1 8/3/1
f 11/17/1 14/20/1 16/1/1
f 19/24/1 20/25/1 24/2/1
f 27/31/1 28/32/1 32/7/1
f 32/7/1 8/3/1 27/31/1
f 64/36/2 33/37/2 34/38/2
f 34/38/2 35/39/2 36/40/2
f 36/40/2 37/41/2 38/42/2
f 38/42/2 39/43/2 40/6/2
f 40/6/2 41/44/2 42/45/2
f 42/45/2 43/46/2 44/47/2
f 44/47/2 45/48/2 46/49/2
f 46/49/2 47/50/2 48/4/2
f 48/4/2 49/51/2 50/52/2
f 50/52/2 51/53/2 48/4/2
f 52/54/2 53/55/2 56/56/2
f 54/57/2 55/58/2 56/56/2
f 56/56/2 57/59/2 58/60/2
f 58/60/2 59/61/2 56/56/2
f 60/62/2 61/63/2 62/5/2
f 62/5/2 63/64/2 64/36/2
f 64/36/2 34/38/2 62/5/2
f 36/40/2 38/42/2 40/6/2
f 40/6/2 42/45/2 48/4/2
f 44/47/2 46/49/2 48/4/2
f 48/4/2 51/53/2 52/54/2
f 53/55/2 54/57/2 56/56/2
f 56/56/2 59/61/2 60/62/2
f 60/62/2 62/5/2 56/56/2
f 34/38/2 36/40/2 40/6/2
f 42/45/2 44/47/2 48/4/2
f 48/4/2 52/54/2 56/56/2
f 56/56/2 62/5/2 48/4/2
f 34/38/2 40/6/2 62/5/2
f 2/65/3 1/66/3 34/67/3
f 34/67/4 1/66/4 32/68/4
f 32/68/5 31/69/5 36/70/5
f 36/70/6 31/69/6 30/71/6
f 30/71/7 29/72/7 38/73/7
f 29/72/8 28/74/8 39/75/8
f 39/75/9 28/74/9 27/76/9
f 40/77/10 27/76/10 26/78/10
f 26/78/11 25/79/11 42/80/11
f 25/79/12 24/81/12 43/82/12
f 24/81/13 23/83/13 44/84/13
f 23/85/14 22/86/14 45/87/14
f 22/86/15 21/88/15 46/89/15
f 46/89/16 21/88/16 20/90/16
f 20/90/17 19/91/17 48/92/17
f 48/92/18 19/91/18 18/93/18
f 49/94/19 18/93/19 17/95/19
f 17/95/20 16/96/20 51/97/20
f 16/96/21 15/98/21 52/99/21
f 15/98/22 14/100/22 53/101/22
f 14/100/23 13/102/23 54/103/23
f 13/102/24 12/104/24 55/105/24
f 12/104/25 11/106/25 56/107/25
f 11/108/26 10/109/26 57/110/26
f 10/109/27 9/111/27 58/112/27
f 9/111/28 8/113/28 59/114/28
f 8/113/29 7/115/29 60/116/29
f 60/116/30 7/115/30 6/117/30
f 61/118/31 6/117/31 5/119/31
f 62/120/32 5/119/32 4/121/32
f 3/122/33 2/65/33 33/123/33
f 4/121/34 3/122/34 64/124/34
f 33/123/3 2/65/3 34/67/3
f 35/125/4 34/67/4 32/68/4
f 35/125/5 32/68/5 36/70/5
f 37/126/6 36/70/6 30/71/6
f 37/126/7 30/71/7 38/73/7
f 38/73/8 29/72/8 39/75/8
f 40/77/9 39/75/9 27/76/9
f 41/127/10 40/77/10 26/78/10
f 41/127/11 26/78/11 42/80/11
f 42/80/12 25/79/12 43/82/12
f 43/82/13 24/81/13 44/84/13
f 44/128/14 23/85/14 45/87/14
f 45/87/15 22/86/15 46/89/15
f 47/129/16 46/89/16 20/90/16
f 47/129/17 20/90/17 48/92/17
f 49/94/18 48/92/18 18/93/18
f 50/130/19 49/94/19 17/95/19
f 50/130/20 17/95/20 51/97/20
f 51/97/21 16/96/21 52/99/21
f 52/99/22 15/98/22 53/101/22
f 53/101/23 14/100/23 54/103/23
f 54/103/24 13/102/24 55/105/24
f 55/105/25 12/104/25 56/107/25
f 56/131/26 11/108/26 57/110/26
f 57/110/27 10/109/27 58/112/27
f 58/112/28 9/111/28 59/114/28
f 59/114/29 8/113/29 60/116/29
f 61/118/30 60/116/30 6/117/30
f 62/120/31 61/118/31 5/119/31
f 63/132/32 62/120/32 4/121/32
f 64/124/33 3/122/33 33/123/33
f 63/132/34 4/121/34 64/124/34
