# Blender v2.76 (sub 0) OBJ File: ''
# www.blender.org
v -1.000000 -2.962241 -1.000000
v -1.000000 -3.283407 -1.000000
v -1.000000 -3.283407 0.999999
v 1.000000 -2.962241 -1.000000
v 1.000000 -3.283407 -1.000000
v 1.000000 -2.962241 1.000000
v 1.000000 -3.283407 0.999999
v -1.000000 -2.962241 1.000000
v 0.421584 3.102735 -0.580261
v 0.421584 -3.102735 -0.580261
v 0.000000 -3.102735 -0.717242
v 0.682138 3.102735 -0.221639
v 0.682138 -3.102735 -0.221641
v 0.682138 3.102735 0.221641
v 0.682138 -3.102735 0.221639
v 0.421584 3.102735 0.580261
v 0.421584 -3.102735 0.580261
v 0.000000 3.102735 0.717242
v 0.000000 -3.102735 0.717242
v -0.421584 3.102735 0.580261
v -0.421584 -3.102735 0.580261
v -0.682138 3.102735 0.221641
v -0.682138 -3.102735 0.221639
v -0.682138 3.102735 -0.221639
v -0.682138 -3.102735 -0.221641
v 0.000000 3.102735 -0.717242
v -0.421584 -3.102735 -0.580261
v -0.421584 3.102735 -0.580261
v -1.000000 3.278061 -0.999999
v -1.000000 2.956895 -1.000000
v -1.000000 2.956895 1.000000
v 1.000000 3.278061 -0.999999
v 1.000000 2.956895 -1.000000
v 1.000000 3.278061 1.000000
v 1.000000 2.956895 1.000000
v -1.000000 3.278061 1.000000
vt 1.000000 0.640446
vt 1.000000 0.000000
vt 0.500000 0.000000
vt 0.000000 0.640446
vt 0.000000 0.000000
vt 0.500000 1.000000
vt 1.000000 1.000000
vt 1.000000 0.359554
vt 0.000000 1.000000
vt 0.000000 0.359554
vt 0.400000 0.000000
vt 0.400000 1.000000
vt 0.300000 0.000000
vt 0.300000 1.000000
vt 0.200000 0.000000
vt 0.200000 1.000000
vt 0.100000 0.000000
vt 0.100000 1.000000
vt 0.900000 0.000000
vt 0.900000 1.000000
vt 0.800000 0.000000
vt 0.800000 1.000000
vt 0.700000 0.000000
vt 0.700000 1.000000
vt 0.600000 1.000000
vt 0.600000 0.000000
vt 1.000000 0.693837
vt 0.000000 0.693837
vt 1.000000 0.306163
vt 0.000000 0.306163
vt 0.500000 0.640446
vt 0.500000 0.359554
vt 0.500000 0.693837
vt 0.500000 0.306163
vn -1.000000 0.000000 0.000000
vn 0.000000 0.000000 -1.000000
vn 1.000000 0.000000 0.000000
vn 0.000000 -0.000000 1.000000
vn 0.000000 -1.000000 -0.000000
vn 0.000000 1.000000 0.000000
vn 0.587800 0.000000 -0.809000
vn 0.951100 0.000000 -0.309000
vn 0.951100 -0.000000 0.309000
vn 0.587800 -0.000000 0.809000
vn -0.587800 -0.000000 0.809000
vn -0.951100 -0.000000 0.309000
vn -0.951100 0.000000 -0.309000
vn -0.587800 0.000000 -0.809000
s 1
f 1/1/1 2/2/1 3/3/1
f 4/1/2 5/2/2 2/3/2
f 6/4/3 7/5/3 5/3/3
f 8/4/4 3/5/4 7/3/4
f 2/6/5 5/7/5 7/8/5
f 4/6/6 1/9/6 8/10/6
f 9/11/7 10/12/7 11/6/2
f 12/13/8 13/14/8 10/12/7
f 14/15/9 15/16/9 13/14/8
f 16/17/10 17/18/10 15/16/9
f 18/5/4 19/9/4 17/18/10
f 20/19/11 21/20/11 19/7/4
f 22/21/12 23/22/12 21/20/11
f 24/23/13 25/24/13 23/22/12
f 26/3/2 11/6/2 27/25/14
f 28/26/14 27/25/14 25/24/13
f 29/27/1 30/2/1 31/3/1
f 32/27/2 33/2/2 30/3/2
f 34/28/3 35/5/3 33/3/3
f 36/28/4 31/5/4 35/3/4
f 30/6/5 33/7/5 35/29/5
f 32/6/6 29/9/6 36/30/6
f 8/31/1 1/1/1 3/3/1
f 1/31/2 4/1/2 2/3/2
f 4/31/3 6/4/3 5/3/3
f 6/31/4 8/4/4 7/3/4
f 3/32/5 2/6/5 7/8/5
f 6/32/6 4/6/6 8/10/6
f 26/3/2 9/11/7 11/6/2
f 9/11/7 12/13/8 10/12/7
f 12/13/8 14/15/9 13/14/8
f 14/15/9 16/17/10 15/16/9
f 16/17/10 18/5/4 17/18/10
f 18/2/4 20/19/11 19/7/4
f 20/19/11 22/21/12 21/20/11
f 22/21/12 24/23/13 23/22/12
f 28/26/14 26/3/2 27/25/14
f 24/23/13 28/26/14 25/24/13
f 36/33/1 29/27/1 31/3/1
f 29/33/2 32/27/2 30/3/2
f 32/33/3 34/28/3 33/3/3
f 34/33/4 36/28/4 35/3/4
f 31/34/5 30/6/5 35/29/5
f 34/34/6 32/6/6 36/30/6
