# Blender v2.73 (sub 7) OBJ File: ''
# www.blender.org
v 0.386996 -0.198652 -0.382683
v 0.004313 -0.582092 -0.000000
v 0.004313 -0.198652 -0.541196
v 0.386996 0.184789 -0.923879
v 0.928193 0.184789 -0.382683
v 0.616607 0.352544 -0.612293
v 0.004313 0.352544 -0.865914
v 0.233923 0.520299 -0.554328
v 0.558641 0.520299 -0.229610
v 0.545509 -0.198652 -0.000000
v 0.928193 0.184789 0.382683
v 0.870227 0.352544 0.000000
v 0.558641 0.520299 0.229610
v 0.386996 -0.198652 0.382683
v 0.386996 0.184789 0.923879
v 0.616607 0.352544 0.612293
v 0.233923 0.520299 0.554328
v 0.004313 -0.198652 0.541196
v -0.378370 0.184789 0.923879
v 0.004313 0.352544 0.865914
v -0.225297 0.520299 0.554328
v -0.378370 -0.198652 0.382683
v -0.919567 0.184789 0.382683
v -0.607981 0.352544 0.612293
v -0.550015 0.520299 0.229610
v -0.536883 -0.198652 -0.000000
v -0.919567 0.184789 -0.382683
v -0.861601 0.352544 0.000000
v -0.550015 0.520299 -0.229610
v -0.378370 -0.198652 -0.382683
v -0.378370 0.184789 -0.923879
v -0.607981 0.352544 -0.612293
v -0.225297 0.520299 -0.554328
v 0.004313 0.520299 0.000000
vt 0.873247 0.388587
vt 0.755413 0.000777
vt 0.998201 0.388055
vt 0.935907 0.558489
vt 0.810866 0.558886
vt 0.873448 0.623638
vt 0.998498 0.623106
vt 0.936144 0.727717
vt 0.810956 0.728114
vt 0.748348 0.388788
vt 0.685812 0.558860
vt 0.748335 0.623839
vt 0.685701 0.728088
vt 0.623446 0.388539
vt 0.560775 0.558426
vt 0.623227 0.623590
vt 0.560529 0.727654
vt 0.498483 0.387987
vt 0.435778 0.557839
vt 0.498186 0.623038
vt 0.435541 0.727067
vt 0.373438 0.387455
vt 0.310818 0.557442
vt 0.373237 0.622505
vt 0.310729 0.726671
vt 1.248336 0.387254
vt 0.248336 0.387254
vt 0.185872 0.557469
vt 0.248349 0.622305
vt 0.185983 0.726697
vt 1.123238 0.387503
vt 0.123238 0.387503
vt 0.060909 0.557902
vt 0.123457 0.622554
vt 0.061155 0.727130
vt 1.060909 0.557902
vt 1.061155 0.727130
vt 1.255413 0.999239
vt 0.255413 0.999239
vn 0.232900 -0.793500 -0.562200
vn 0.500500 -0.706400 -0.500500
vn 0.668300 0.326600 -0.668300
vn 0.245900 0.766200 -0.593700
vn 0.335200 0.880500 -0.335200
vn 0.562200 -0.793500 -0.232900
vn 0.707800 -0.706400 -0.000000
vn 0.945200 0.326600 0.000000
vn 0.593700 0.766200 -0.245900
vn 0.474100 0.880500 0.000000
vn 0.562200 -0.793500 0.232900
vn 0.500500 -0.706400 0.500500
vn 0.668300 0.326600 0.668300
vn 0.593700 0.766200 0.245900
vn 0.335200 0.880500 0.335200
vn 0.232900 -0.793500 0.562200
vn 0.000000 -0.706400 0.707800
vn 0.000000 0.326600 0.945200
vn 0.245900 0.766200 0.593700
vn 0.000000 0.880500 0.474100
vn -0.232900 -0.793500 0.562200
vn -0.500500 -0.706400 0.500500
vn -0.668300 0.326600 0.668300
vn -0.245900 0.766200 0.593700
vn -0.335200 0.880500 0.335200
vn -0.562200 -0.793500 0.232900
vn -0.707800 -0.706400 -0.000000
vn -0.945200 0.326600 0.000000
vn -0.593700 0.766200 0.245900
vn -0.474100 0.880500 0.000000
vn -0.562200 -0.793500 -0.232900
vn -0.500500 -0.706400 -0.500500
vn -0.668300 0.326600 -0.668300
vn -0.593700 0.766200 -0.245900
vn -0.335200 0.880500 -0.335200
vn -0.232900 -0.793500 -0.562200
vn 0.000000 -0.706400 -0.707800
vn 0.000000 0.326600 -0.945200
vn -0.245900 0.766200 -0.593700
vn 0.000000 0.880500 -0.474100
vn 0.000000 -1.000000 -0.000000
s off
f 1/1/1 2/2/1 3/3/1
f 1/1/2 4/4/2 5/5/2
f 5/5/3 4/4/3 6/6/3
f 4/4/4 7/7/4 8/8/4
f 6/6/5 8/8/5 9/9/5
f 2/2/6 1/1/6 10/10/6
f 10/10/7 5/5/7 11/11/7
f 11/11/8 5/5/8 12/12/8
f 5/5/9 6/6/9 9/9/9
f 12/12/10 9/9/10 13/13/10
f 14/14/11 2/2/11 10/10/11
f 14/14/12 11/11/12 15/15/12
f 15/15/13 11/11/13 16/16/13
f 11/11/14 12/12/14 13/13/14
f 16/16/15 13/13/15 17/17/15
f 18/18/16 2/2/16 14/14/16
f 18/18/17 15/15/17 19/19/17
f 19/19/18 15/15/18 20/20/18
f 15/15/19 16/16/19 17/17/19
f 20/20/20 17/17/20 21/21/20
f 22/22/21 2/2/21 18/18/21
f 22/22/22 19/19/22 23/23/22
f 23/23/23 19/19/23 24/24/23
f 19/19/24 20/20/24 21/21/24
f 24/24/25 21/21/25 25/25/25
f 26/26/26 2/2/26 22/22/26
f 26/27/27 23/23/27 27/28/27
f 27/28/28 23/23/28 28/29/28
f 23/23/29 24/24/29 25/25/29
f 28/29/30 25/25/30 29/30/30
f 30/31/31 2/2/31 26/26/31
f 30/32/32 27/28/32 31/33/32
f 31/33/33 27/28/33 32/34/33
f 27/28/34 28/29/34 29/30/34
f 32/34/35 29/30/35 33/35/35
f 3/3/36 2/2/36 30/31/36
f 3/3/37 31/36/37 4/4/37
f 4/4/38 31/36/38 7/7/38
f 31/33/39 32/34/39 33/35/39
f 7/7/40 33/37/40 8/8/40
f 8/8/41 34/38/41 33/37/41
f 34/38/41 8/8/41 9/9/41
f 34/38/41 9/9/41 13/13/41
f 34/39/41 13/13/41 17/17/41
f 34/39/41 17/17/41 21/21/41
f 34/39/41 21/21/41 25/25/41
f 34/39/41 25/25/41 29/30/41
f 34/39/41 29/30/41 33/35/41
f 4/4/1 1/1/1 3/3/1
f 6/6/4 4/4/4 8/8/4
f 10/10/6 1/1/6 5/5/6
f 12/12/9 5/5/9 9/9/9
f 11/11/11 14/14/11 10/10/11
f 16/16/14 11/11/14 13/13/14
f 15/15/16 18/18/16 14/14/16
f 20/20/19 15/15/19 17/17/19
f 19/19/21 22/22/21 18/18/21
f 24/24/24 19/19/24 21/21/24
f 23/23/26 26/27/26 22/22/26
f 28/29/29 23/23/29 25/25/29
f 27/28/31 30/32/31 26/27/31
f 32/34/34 27/28/34 29/30/34
f 31/36/36 3/3/36 30/31/36
f 7/7/39 31/36/39 33/37/39
