# Blender v2.73 (sub 7) OBJ File: ''
# www.blender.org
v 0.400000 -0.500000 0.400000
v 0.500000 -0.400000 0.400000
v 0.400000 -0.400000 0.500000
v 0.470711 -0.470711 0.400000
v 0.463134 -0.463134 0.463134
v 0.470711 -0.400000 0.470711
v 0.400000 -0.470711 0.470711
v 0.500000 0.400000 0.400000
v 0.400000 0.500000 0.400000
v 0.400000 0.400000 0.500000
v 0.470711 0.470711 0.400000
v 0.463134 0.463134 0.463134
v 0.400000 0.470711 0.470711
v 0.470711 0.400000 0.470711
v -0.400000 0.400000 0.500000
v -0.400000 0.500000 0.400000
v -0.500000 0.400000 0.400000
v -0.400000 0.470711 0.470711
v -0.463134 0.463134 0.463134
v -0.470711 0.470711 0.400000
v -0.470711 0.400000 0.470711
v 0.400000 0.500000 -0.400000
v 0.500000 0.400000 -0.400000
v 0.400000 0.400000 -0.500000
v 0.470711 0.470711 -0.400000
v 0.463134 0.463134 -0.463134
v 0.470711 0.400000 -0.470711
v 0.400000 0.470711 -0.470711
v -0.500000 0.400000 -0.400000
v -0.400000 0.500000 -0.400000
v -0.400000 0.400000 -0.500000
v -0.470711 0.470711 -0.400000
v -0.463134 0.463134 -0.463134
v -0.400000 0.470711 -0.470711
v -0.470711 0.400000 -0.470711
v 0.400000 -0.400000 -0.500000
v 0.500000 -0.400000 -0.400000
v 0.400000 -0.500000 -0.400000
v 0.470711 -0.400000 -0.470711
v 0.463134 -0.463134 -0.463134
v 0.470711 -0.470711 -0.400000
v 0.400000 -0.470711 -0.470711
v -0.400000 -0.400000 -0.500000
v -0.400000 -0.500000 -0.400000
v -0.500000 -0.400000 -0.400000
v -0.400000 -0.470711 -0.470711
v -0.463134 -0.463134 -0.463134
v -0.470711 -0.470711 -0.400000
v -0.470711 -0.400000 -0.470711
v -0.400000 -0.500000 0.400000
v -0.400000 -0.400000 0.500000
v -0.500000 -0.400000 0.400000
v -0.400000 -0.470711 0.470711
v -0.463134 -0.463134 0.463134
v -0.470711 -0.400000 0.470711
v -0.470711 -0.470711 0.400000
vt 0.600000 0.275000
vt 0.600000 0.475000
vt 0.400000 0.475000
vt 0.400000 0.275000
vt 0.400000 0.525000
vt 0.600000 0.525000
vt 0.400000 0.725000
vt 0.350000 0.025000
vt 0.350000 0.225000
vt 0.150000 0.225000
vt 0.600000 0.725000
vt 0.600000 0.975000
vt 0.400000 0.975000
vt 0.600000 0.775000
vt 0.850000 0.025000
vt 0.850000 0.225000
vt 0.650000 0.225000
vt 0.150000 0.025000
vt 0.600000 0.025000
vt 0.600000 0.225000
vt 0.400000 0.225000
vt 0.400000 0.025000
vt 0.400000 0.775000
vt 0.650000 0.025000
vt 0.617678 0.975000
vt 0.615784 0.990784
vt 0.625000 0.025000
vt 0.634216 0.009216
vt 0.600000 0.007322
vt 0.615784 0.009216
vt 0.650000 0.242678
vt 0.634216 0.240784
vt 0.600000 0.250000
vt 0.615784 0.259216
vt 0.625000 0.225000
vt 0.615784 0.240784
vt 0.400000 0.250000
vt 0.384216 0.240784
vt 0.382322 0.275000
vt 0.384216 0.259216
vt 0.375000 0.225000
vt 0.365784 0.240784
vt 0.617678 0.475000
vt 0.615784 0.490784
vt 0.867678 0.225000
vt 0.865784 0.240784
vt 0.600000 0.500000
vt 0.615784 0.509216
vt 0.150000 0.242678
vt 0.134216 0.240784
vt 0.400000 0.500000
vt 0.384216 0.490784
vt 0.382322 0.525000
vt 0.384216 0.509216
vt 0.617678 0.725000
vt 0.615784 0.740784
vt 0.850000 0.007322
vt 0.865784 0.009216
vt 0.600000 0.750000
vt 0.615784 0.759216
vt 0.400000 0.750000
vt 0.384216 0.740784
vt 0.382322 0.775000
vt 0.384216 0.759216
vt 0.132322 0.025000
vt 0.134216 0.009216
vt 0.400000 0.992678
vt 0.384216 0.990784
vt 0.375000 0.025000
vt 0.384216 0.009216
vt 0.350000 0.007322
vt 0.365784 0.009216
vt 0.867678 0.025000
vt 0.617678 0.525000
vt 0.617678 0.775000
vt 0.650000 0.007322
vt 0.382322 0.475000
vt 0.382322 0.725000
vt 0.850000 0.242678
vt 0.400000 0.007322
vt 0.382322 0.975000
vt 0.600000 0.992678
vt 0.617678 0.275000
vt 0.350000 0.242678
vt 0.132322 0.225000
vt 0.150000 0.007322
vn 0.000000 1.000000 0.000000
vn 0.000000 0.000000 -1.000000
vn -1.000000 0.000000 0.000000
vn 0.000000 -1.000000 -0.000000
vn 1.000000 0.000000 0.000000
vn 0.000000 -0.000000 1.000000
vn 0.165500 -0.972200 0.165500
vn 0.704700 -0.704700 0.082300
vn 0.577300 -0.577300 0.577300
vn 0.972200 -0.165500 0.165500
vn 0.704700 -0.082300 0.704700
vn 0.165500 -0.165500 0.972200
vn 0.082300 -0.704700 0.704700
vn 0.972200 0.165500 0.165500
vn 0.704700 0.704700 0.082300
vn 0.577300 0.577300 0.577300
vn 0.165500 0.972200 0.165500
vn 0.082300 0.704700 0.704700
vn 0.165500 0.165500 0.972200
vn 0.704700 0.082300 0.704700
vn -0.165500 0.165500 0.972200
vn -0.082300 0.704700 0.704700
vn -0.577300 0.577300 0.577300
vn -0.165500 0.972200 0.165500
vn -0.704700 0.704700 0.082300
vn -0.972200 0.165500 0.165500
vn -0.704700 0.082300 0.704700
vn 0.165500 0.972200 -0.165500
vn 0.704700 0.704700 -0.082300
vn 0.577300 0.577300 -0.577300
vn 0.972200 0.165500 -0.165500
vn 0.704700 0.082300 -0.704700
vn 0.165500 0.165500 -0.972200
vn 0.082300 0.704700 -0.704700
vn -0.972200 0.165500 -0.165500
vn -0.704700 0.704700 -0.082300
vn -0.577300 0.577300 -0.577300
vn -0.165500 0.972200 -0.165500
vn -0.082300 0.704700 -0.704700
vn -0.165500 0.165500 -0.972200
vn -0.704700 0.082300 -0.704700
vn 0.165500 -0.165500 -0.972200
vn 0.704700 -0.082300 -0.704700
vn 0.577300 -0.577300 -0.577300
vn 0.972200 -0.165500 -0.165500
vn 0.704700 -0.704700 -0.082300
vn 0.165500 -0.972200 -0.165500
vn 0.082300 -0.704700 -0.704700
vn -0.165500 -0.165500 -0.972200
vn -0.082300 -0.704700 -0.704700
vn -0.577300 -0.577300 -0.577300
vn -0.165500 -0.972200 -0.165500
vn -0.704700 -0.704700 -0.082300
vn -0.972200 -0.165500 -0.165500
vn -0.704700 -0.082300 -0.704700
vn -0.165500 -0.972200 0.165500
vn -0.082300 -0.704700 0.704700
vn -0.577300 -0.577300 0.577300
vn -0.165500 -0.165500 0.972200
vn -0.704700 -0.082300 0.704700
vn -0.972200 -0.165500 0.165500
vn -0.704700 -0.704700 0.082300
s off
f 9/1/1 22/2/1 30/3/1
f 16/4/1 9/1/1 30/3/1
f 31/5/2 24/6/2 43/7/2
f 52/8/3 17/9/3 29/10/3
f 24/6/2 36/11/2 43/7/2
f 1/12/4 50/13/4 38/14/4
f 37/15/5 23/16/5 8/17/5
f 45/18/3 52/8/3 29/10/3
f 3/19/6 10/20/6 15/21/6
f 51/22/6 3/19/6 15/21/6
f 50/13/4 44/23/4 38/14/4
f 2/24/5 37/15/5 8/17/5
s 1
f 1/12/7 4/25/8 5/26/9
f 2/24/10 6/27/11 5/28/9
f 3/19/12 7/29/13 5/30/9
f 8/17/14 11/31/15 12/32/16
f 9/1/17 13/33/18 12/34/16
f 10/20/19 14/35/20 12/36/16
f 15/21/21 18/37/22 19/38/23
f 16/4/24 20/39/25 19/40/23
f 17/9/26 21/41/27 19/42/23
f 22/2/28 25/43/29 26/44/30
f 23/16/31 27/45/32 26/46/30
f 24/6/33 28/47/34 26/48/30
f 29/10/35 32/49/36 33/50/37
f 30/3/38 34/51/39 33/52/37
f 31/5/40 35/53/41 33/54/37
f 36/11/42 39/55/43 40/56/44
f 37/15/45 41/57/46 40/58/44
f 38/14/47 42/59/48 40/60/44
f 43/7/49 46/61/50 47/62/51
f 44/23/52 48/63/53 47/64/51
f 45/18/54 49/65/55 47/66/51
f 50/13/56 53/67/57 54/68/58
f 51/22/59 55/69/60 54/70/58
f 52/8/61 56/71/62 54/72/58
f 23/16/31 37/15/45 39/73/43
f 27/74/32 39/55/43 36/11/42
f 38/14/47 41/75/46 4/25/8
f 4/76/8 41/57/46 37/15/45
f 16/4/24 30/3/38 32/77/36
f 32/49/36 29/10/35 17/9/26
f 52/8/61 55/69/60 21/41/27
f 55/69/60 51/22/59 15/21/21
f 31/5/40 34/51/39 28/47/34
f 34/51/39 30/3/38 22/2/28
f 44/23/52 46/61/50 42/59/48
f 46/61/50 43/7/49 36/11/42
f 43/7/49 49/78/55 35/53/41
f 49/65/55 45/18/54 29/10/35
f 8/17/14 23/16/31 25/79/29
f 25/43/29 22/2/28 9/1/17
f 16/4/24 18/37/22 13/33/18
f 18/37/22 15/21/21 10/20/19
f 51/22/59 53/80/57 7/29/13
f 53/67/57 50/13/56 1/12/7
f 2/24/10 8/17/14 14/35/20
f 6/27/11 14/35/20 10/20/19
f 44/23/52 50/13/56 56/81/62
f 56/71/62 52/8/61 45/18/54
f 7/82/13 1/12/7 5/26/9
f 4/76/8 2/24/10 5/28/9
f 6/27/11 3/19/12 5/30/9
f 14/35/20 8/17/14 12/32/16
f 11/83/15 9/1/17 12/34/16
f 13/33/18 10/20/19 12/36/16
f 21/41/27 15/21/21 19/38/23
f 18/37/22 16/4/24 19/40/23
f 20/84/25 17/9/26 19/42/23
f 28/47/34 22/2/28 26/44/30
f 25/79/29 23/16/31 26/46/30
f 27/74/32 24/6/33 26/48/30
f 35/85/41 29/10/35 33/50/37
f 32/77/36 30/3/38 33/52/37
f 34/51/39 31/5/40 33/54/37
f 42/59/48 36/11/42 40/56/44
f 39/73/43 37/15/45 40/58/44
f 41/75/46 38/14/47 40/60/44
f 49/78/55 43/7/49 47/62/51
f 46/61/50 44/23/52 47/64/51
f 48/86/53 45/18/54 47/66/51
f 56/81/62 50/13/56 54/68/58
f 53/80/57 51/22/59 54/70/58
f 55/69/60 52/8/61 54/72/58
f 27/45/32 23/16/31 39/73/43
f 24/6/33 27/74/32 36/11/42
f 1/12/7 38/14/47 4/25/8
f 2/24/10 4/76/8 37/15/45
f 20/39/25 16/4/24 32/77/36
f 20/84/25 32/49/36 17/9/26
f 17/9/26 52/8/61 21/41/27
f 21/41/27 55/69/60 15/21/21
f 24/6/33 31/5/40 28/47/34
f 28/47/34 34/51/39 22/2/28
f 38/14/47 44/23/52 42/59/48
f 42/59/48 46/61/50 36/11/42
f 31/5/40 43/7/49 35/53/41
f 35/85/41 49/65/55 29/10/35
f 11/31/15 8/17/14 25/79/29
f 11/83/15 25/43/29 9/1/17
f 9/1/17 16/4/24 13/33/18
f 13/33/18 18/37/22 10/20/19
f 3/19/12 51/22/59 7/29/13
f 7/82/13 53/67/57 1/12/7
f 6/27/11 2/24/10 14/35/20
f 3/19/12 6/27/11 10/20/19
f 48/63/53 44/23/52 56/81/62
f 48/86/53 56/71/62 45/18/54
