# Blender v2.73 (sub 7) OBJ File: ''
# www.blender.org
v 1.051406 0.666503 1.051406
v -1.051406 0.666503 1.051405
v -1.051405 0.666504 -1.051406
v -1.051406 -0.666503 -1.051406
v -1.051406 -0.666504 1.051405
v 1.051405 -0.666504 1.051406
v 1.051406 -0.666503 -1.051405
v 1.051406 0.666504 -1.051406
vt 0.000000 0.000000
vt -1.000000 0.000000
vt -1.000000 1.000000
vt -0.000000 -1.000000
vt 1.000000 -1.000000
vt 1.000000 0.000000
vt 0.000000 1.000000
vt 1.000000 1.000000
vn 0.000000 -1.000000 -0.000000
vn -0.000000 1.000000 0.000000
vn -1.000000 0.000000 -0.000000
vn 0.000000 0.000000 -1.000000
vn 1.000000 0.000000 0.000000
vn 0.000000 -0.000000 1.000000
s off
f 1/1/1 2/2/1 3/3/1
f 4/1/2 5/4/2 6/5/2
f 6/1/3 1/4/3 7/6/3
f 6/6/4 5/1/4 2/4/4
f 2/1/5 5/7/5 4/8/5
f 8/1/6 3/2/6 4/3/6
f 8/1/1 1/4/1 3/2/1
f 7/7/2 4/3/2 6/1/2
f 7/7/3 1/2/3 8/1/3
f 1/1/4 6/7/4 2/2/4
f 3/1/5 2/2/5 4/7/5
f 7/1/6 8/4/6 4/2/6
