# Blender v2.73 (sub 7) OBJ File: ''
# www.blender.org
v -0.377443 0.028671 0.368427
v -0.574447 0.023787 -0.026796
v -0.447341 1.697625 -0.250591
v -0.292532 1.700983 0.187290
v 0.044956 0.018436 0.577857
v 0.149903 1.690749 0.409911
v 0.486444 -0.003157 0.484637
v 0.571370 1.669156 0.230169
v 0.735357 0.019011 -0.010314
v 0.727110 1.683872 -0.198032
v 0.519783 0.017480 -0.366800
v 0.551532 1.685190 -0.600805
v 0.025500 0.026316 -0.597309
v 0.125911 1.698629 -0.765255
v -0.432176 0.040290 -0.462547
v -0.265074 1.712870 -0.626204
v 0.086037 3.370941 -0.770529
v 0.518011 3.357503 -0.529825
v 0.729218 3.356185 -0.114624
v -0.492515 3.368413 -0.206361
v 0.583175 3.341469 0.301149
v 0.130263 3.363061 0.404637
v -0.280712 3.373296 0.164154
v -0.345892 3.384915 -0.666820
v -0.319975 -3.315955 0.246886
v 0.116077 -3.326183 0.476337
v 0.543912 -3.347782 0.320819
v -0.354978 -3.304335 -0.584089
v 0.695193 -3.333066 -0.098995
v 0.508925 -3.331748 -0.510141
v 0.078799 -3.318309 -0.698829
v -0.526540 -3.320837 -0.177452
v -0.683609 -1.649709 0.073666
v -0.445020 -1.643642 0.511195
v -0.007151 -1.653877 0.639891
v 0.418867 -1.675469 0.381869
v 0.618697 -1.660753 -0.059509
v 0.480260 -1.659435 -0.449106
v 0.060457 -1.645997 -0.535275
v -0.464216 -1.635173 -0.323040
vt 0.000000 0.500000
vt 0.000000 0.250000
vt 0.069400 0.250000
vt 0.069400 0.500000
vt 0.128300 0.250000
vt 0.187100 0.500000
vt 0.128300 0.500000
vt 0.256500 0.500000
vt 0.187100 0.250000
vt 0.318400 0.500000
vt 0.256500 0.250000
vt 0.384800 0.500000
vt 0.325900 0.250000
vt 0.384800 0.250000
vt 0.439000 0.250000
vt 0.443700 0.500000
vt 0.513100 0.250000
vt 0.663000 0.219700
vt 0.732600 0.151500
vt 0.827600 0.387600
vt 0.829900 0.152500
vt 0.898100 0.222000
vt 0.897200 0.319400
vt 0.730300 0.386600
vt 0.662100 0.317100
vt 0.732900 0.922400
vt 0.664700 0.852900
vt 0.665700 0.755500
vt 0.735200 0.687300
vt 0.832600 0.688300
vt 0.900800 0.757800
vt 0.899800 0.855200
vt 0.830300 0.923400
vt 0.069400 1.000000
vt 0.000000 1.000000
vt 0.000000 0.750000
vt 0.069400 0.750000
vt 0.000000 0.000000
vt 0.069400 0.000000
vt 0.128300 0.750000
vt 0.128300 0.000000
vt 0.128300 1.000000
vt 0.187100 0.750000
vt 0.187100 0.000000
vt 0.187100 1.000000
vt 0.256500 0.750000
vt 0.256500 0.000000
vt 0.256500 1.000000
vt 0.325900 0.750000
vt 0.325900 0.000000
vt 0.384800 1.000000
vt 0.325900 1.000000
vt 0.384800 0.750000
vt 0.384800 0.000000
vt 0.443700 1.000000
vt 0.450600 0.750000
vt 0.443700 0.000000
vt 0.513100 1.000000
vt 0.513100 0.500000
vt 0.513100 0.000000
vt 0.513100 0.750000
vn 0.996100 -0.057100 -0.067400
vn 0.997000 -0.030000 0.070400
vn 0.746000 -0.055300 -0.663600
vn 0.700700 -0.102200 -0.706000
vn 0.035900 -0.053700 -0.997900
vn -0.616900 -0.014400 -0.786900
vn 0.117400 -0.083800 -0.989500
vn -0.999000 0.039500 0.022100
vn -0.737300 -0.026800 -0.674900
vn -0.678500 0.063400 0.731800
vn -0.998300 0.005400 0.057800
vn -0.054100 0.078000 0.995500
vn -0.685300 0.030500 0.727600
vn -0.027600 0.041800 0.998700
vn 0.653200 0.019000 0.757000
vn 0.701000 0.030200 0.712500
vn -0.549500 -0.650400 0.524300
vn -0.779100 -0.625700 0.037500
vn 0.781700 -0.619600 -0.071000
vn -0.552700 -0.572600 -0.605500
vn 0.105100 -0.638400 -0.762400
vn 0.517600 -0.682800 -0.515600
vn 0.537800 -0.620500 0.570700
vn -0.105900 -0.636500 0.763900
vn 0.522200 0.690900 -0.499900
vn 0.041000 0.640700 -0.766700
vn -0.552700 0.632300 -0.542900
vn -0.798400 0.600800 0.038900
vn -0.538200 0.624200 0.566300
vn -0.034400 0.612900 0.789400
vn 0.517200 0.582400 0.627100
vn 0.737200 0.675200 0.024200
vn 0.999500 0.016100 -0.024700
vn 0.627700 0.046900 -0.777000
vn -0.089600 0.061600 -0.994000
vn -0.737700 0.032500 -0.674400
vn -0.999500 -0.006200 -0.032500
vn -0.656400 -0.050100 0.752700
vn 0.072400 -0.053300 0.995900
vn 0.686600 -0.020500 0.726700
s 1
f 2/1/1 3/2/2 4/3/3
f 1/4/4 4/3/3 6/5/5
f 7/6/6 5/7/7 6/5/5
f 9/8/8 7/6/6 8/9/9
f 11/10/10 9/8/8 10/11/11
f 13/12/12 11/10/10 12/13/13
f 13/12/12 14/14/14 16/15/15
f 15/16/16 16/15/15 3/17/2
f 18/18/17 19/19/18 20/20/19
f 19/19/18 21/21/20 22/22/21
f 22/22/21 23/23/22 20/20/19
f 24/24/23 17/25/24 20/20/19
f 25/26/25 26/27/26 27/28/27
f 27/28/27 29/29/28 30/30/29
f 30/30/29 31/31/30 28/32/31
f 32/33/32 25/26/25 28/32/31
f 25/34/25 32/35/32 33/36/33
f 1/4/4 34/37/34 33/36/33
f 20/38/19 23/39/22 4/3/3
f 25/34/25 34/37/34 35/40/35
f 5/7/7 35/40/35 34/37/34
f 22/41/21 6/5/5 4/3/3
f 26/42/26 35/40/35 36/43/36
f 35/40/35 5/7/7 7/6/6
f 21/44/20 8/9/9 6/5/5
f 27/45/27 36/43/36 37/46/37
f 37/46/37 36/43/36 7/6/6
f 19/47/18 10/11/11 8/9/9
f 29/48/28 37/46/37 38/49/38
f 37/46/37 9/8/8 11/10/10
f 18/50/17 12/13/13 10/11/11
f 31/51/30 30/52/29 38/49/38
f 39/53/39 38/49/38 11/10/10
f 18/50/17 17/54/24 14/14/14
f 28/55/31 31/51/30 39/53/39
f 40/56/40 39/53/39 13/12/12
f 17/54/24 24/57/23 16/15/15
f 32/58/32 28/55/31 40/56/40
f 40/56/40 15/16/16 2/59/1
f 20/60/19 3/17/2 16/15/15
f 1/4/4 2/1/1 4/3/3
f 5/7/7 1/4/4 6/5/5
f 8/9/9 7/6/6 6/5/5
f 10/11/11 9/8/8 8/9/9
f 12/13/13 11/10/10 10/11/11
f 14/14/14 13/12/12 12/13/13
f 15/16/16 13/12/12 16/15/15
f 2/59/1 15/16/16 3/17/2
f 17/25/24 18/18/17 20/20/19
f 20/20/19 19/19/18 22/22/21
f 28/32/31 25/26/25 27/28/27
f 28/32/31 27/28/27 30/30/29
f 34/37/34 25/34/25 33/36/33
f 2/1/1 1/4/4 33/36/33
f 3/2/2 20/38/19 4/3/3
f 26/42/26 25/34/25 35/40/35
f 1/4/4 5/7/7 34/37/34
f 23/39/22 22/41/21 4/3/3
f 27/45/27 26/42/26 36/43/36
f 36/43/36 35/40/35 7/6/6
f 22/41/21 21/44/20 6/5/5
f 29/48/28 27/45/27 37/46/37
f 9/8/8 37/46/37 7/6/6
f 21/44/20 19/47/18 8/9/9
f 30/52/29 29/48/28 38/49/38
f 38/49/38 37/46/37 11/10/10
f 19/47/18 18/50/17 10/11/11
f 39/53/39 31/51/30 38/49/38
f 13/12/12 39/53/39 11/10/10
f 12/13/13 18/50/17 14/14/14
f 40/56/40 28/55/31 39/53/39
f 15/16/16 40/56/40 13/12/12
f 14/14/14 17/54/24 16/15/15
f 33/61/33 32/58/32 40/56/40
f 33/61/33 40/56/40 2/59/1
f 24/57/23 20/60/19 16/15/15
