# Blender v2.73 (sub 7) OBJ File: ''
# www.blender.org
v 0.017424 -0.738181 1.675980
v 0.027949 -0.768666 -1.661084
v 0.018790 -0.680622 0.645350
v 0.020305 -0.668695 0.006666
v 0.022818 -0.692288 -0.631689
v 0.025125 -0.718545 -1.172804
v 0.027064 -0.750265 -1.534233
v 0.017340 -0.722100 1.548811
v 0.017682 -0.696988 1.186857
v 0.255243 -0.170951 -1.538806
v 0.447131 0.338088 -1.181125
v 0.574403 0.680955 -0.642495
v 0.617680 0.805450 -0.004916
v 0.570375 0.692621 0.634544
v 0.439689 0.359645 1.178535
v 0.245519 -0.142786 1.544238
v 0.009613 -0.129236 -1.539962
v -0.006733 0.415167 -1.183261
v -0.018600 0.781664 -0.645285
v -0.024182 0.914456 -0.007937
v -0.022628 0.793330 0.631754
v -0.014176 0.436724 1.176399
v -0.000111 -0.101071 1.543082
v -0.233286 -0.184692 -1.540221
v -0.455552 0.312698 -1.183740
v -0.605011 0.647781 -0.645912
v -0.658908 0.769543 -0.008615
v -0.609039 0.659447 0.631127
v -0.462995 0.334255 1.175920
v -0.243010 -0.156527 1.542823
vt 0.039956 0.956386
vt 0.076037 0.777571
vt 0.075605 0.952029
vt 0.688402 0.527295
vt 0.688412 0.941951
vt 0.509487 0.937389
vt 0.940004 0.779552
vt 0.939635 0.954011
vt 0.838256 0.946470
vt 0.041832 0.959173
vt 0.077502 0.780276
vt 0.077471 0.954735
vt 0.330571 0.527295
vt 0.509487 0.491714
vt 0.177765 0.626151
vt 0.177018 0.944953
vt 0.560666 0.414602
vt 0.496900 0.299387
vt 0.609013 0.238603
vt 0.436618 0.471174
vt 0.384786 0.360171
vt 0.305607 0.510177
vt 0.271144 0.421726
vt 0.870967 0.154643
vt 0.777870 0.253155
vt 0.722656 0.177047
vt 0.171146 0.533972
vt 0.154753 0.484585
vt 0.674833 0.341062
vt 0.215929 0.345618
vt 0.318966 0.257711
vt 0.688192 0.088597
vt 0.822653 0.064802
vt 0.122833 0.444130
vt 0.557181 0.127599
vt 0.433133 0.184171
vt 0.329686 0.525171
vt 0.328725 0.939825
vt 0.941472 0.780276
vt 0.941503 0.954735
vt 0.840107 0.947426
vt 0.178883 0.628623
vt 0.178867 0.947426
vt 0.330562 0.941951
vt 0.687516 0.525992
vt 0.686574 0.940646
vt 0.507660 0.935674
vt 0.838971 0.627667
vt 0.975264 0.958531
vt 0.958151 0.050008
vt 0.839047 0.114188
vt 0.035648 0.548765
vt 0.508682 0.490001
vt 0.977142 0.959173
vt 0.840091 0.628623
vn 0.020600 -0.794400 0.607000
vn -0.716900 0.022100 0.696700
vn 0.028300 -0.994700 -0.099100
vn 0.826700 0.478200 0.296600
vn 0.028200 -0.999300 -0.023000
vn 0.028100 -0.999500 0.009200
vn -0.712500 0.009300 -0.701600
vn 0.027600 -0.992700 0.117400
vn 0.027900 -0.997500 0.065100
vn 0.024400 -0.805400 -0.592200
vn 0.714900 0.049500 -0.697400
vn 0.828500 0.472700 -0.300000
vn 0.844700 0.535300 -0.002200
vn -0.797700 0.266200 0.541100
vn 0.028200 -0.998500 -0.046700
vn -0.028100 0.999500 -0.009200
vn -0.027200 0.930300 0.365800
vn -0.024800 0.923400 -0.382900
vn 0.781700 0.300600 -0.546300
vn -0.018000 0.712200 -0.701700
vn 0.710500 0.062200 0.700900
vn 0.778300 0.310600 0.545700
vn -0.022400 0.724900 0.688500
vn -0.008400 0.394500 -0.918800
vn -0.794200 0.256300 -0.550900
vn -0.852000 0.425500 -0.304900
vn -0.853900 0.430900 0.291700
vn -0.873400 0.487000 -0.007200
vn 0.028000 -0.998700 0.041400
vn -0.014200 0.411300 0.911400
s 1
f 1/1/1 30/2/2 8/3/3
f 14/4/4 3/5/5 4/6/6
f 24/7/7 7/8/8 6/9/9
f 2/10/10 10/11/11 7/12/8
f 12/13/12 13/14/13 4/6/6
f 30/2/2 29/15/14 9/16/15
f 13/17/13 20/18/16 21/19/17
f 12/20/12 19/21/18 20/18/16
f 11/22/19 18/23/20 19/21/18
f 16/24/21 15/25/22 22/26/23
f 11/22/19 10/27/11 17/28/24
f 15/25/22 14/29/4 21/19/17
f 18/23/20 25/30/25 26/31/26
f 22/26/23 29/32/14 30/33/2
f 17/28/24 24/34/7 25/30/25
f 21/19/17 28/35/27 29/32/14
f 20/18/16 27/36/28 28/35/27
f 20/18/16 19/21/18 26/31/26
f 29/15/14 28/37/27 3/38/5
f 16/39/21 8/40/3 9/41/15
f 10/11/11 11/42/19 6/43/9
f 11/42/19 12/13/12 5/44/29
f 26/45/26 5/46/29 4/47/6
f 25/48/25 6/9/9 5/46/29
f 24/7/7 2/49/10 7/8/8
f 1/50/1 16/24/21 23/51/30
f 10/27/11 2/52/10 17/28/24
f 1/50/1 23/51/30 30/33/2
f 17/28/24 2/52/10 24/34/7
f 28/37/27 27/53/28 4/47/6
f 16/39/21 1/54/1 8/40/3
f 15/55/22 9/41/15 3/5/5
f 13/14/13 14/4/4 4/6/6
f 25/48/25 24/7/7 6/9/9
f 5/44/29 12/13/12 4/6/6
f 8/3/3 30/2/2 9/16/15
f 14/29/4 13/17/13 21/19/17
f 13/17/13 12/20/12 20/18/16
f 12/20/12 11/22/19 19/21/18
f 23/51/30 16/24/21 22/26/23
f 18/23/20 11/22/19 17/28/24
f 22/26/23 15/25/22 21/19/17
f 19/21/18 18/23/20 26/31/26
f 23/51/30 22/26/23 30/33/2
f 18/23/20 17/28/24 25/30/25
f 22/26/23 21/19/17 29/32/14
f 21/19/17 20/18/16 28/35/27
f 27/36/28 20/18/16 26/31/26
f 9/16/15 29/15/14 3/38/5
f 15/55/22 16/39/21 9/41/15
f 7/12/8 10/11/11 6/43/9
f 6/43/9 11/42/19 5/44/29
f 27/53/28 26/45/26 4/47/6
f 26/45/26 25/48/25 5/46/29
f 3/38/5 28/37/27 4/47/6
f 14/4/4 15/55/22 3/5/5
