# Blender v2.76 (sub 0) OBJ File: ''
# www.blender.org
v -0.153821 0.259949 0.051079
v 0.005679 0.263199 0.051080
v 0.005679 0.356199 0.051097
v 0.165179 0.259949 0.051079
v -0.083821 0.194699 0.051068
v 0.095179 0.194699 0.051068
v -0.214321 0.006199 0.051033
v 0.225679 0.006199 0.051033
v 0.127679 0.006199 0.051033
v -0.116321 0.006199 0.051033
v -0.153821 -0.247551 0.050986
v -0.083821 -0.182301 0.050998
v 0.095179 -0.182301 0.050998
v 0.165179 -0.247551 0.050986
v 0.005679 -0.250801 0.050986
v 0.005679 -0.343801 0.050969
v 0.005679 0.263218 -0.054920
v -0.153821 0.259968 -0.054921
v 0.005679 0.356218 -0.054903
v 0.165179 0.259968 -0.054921
v -0.083821 0.194718 -0.054933
v 0.095179 0.194718 -0.054933
v -0.214321 0.006218 -0.054967
v 0.225679 0.006218 -0.054967
v 0.127679 0.006218 -0.054967
v -0.116321 0.006218 -0.054967
v -0.153821 -0.247532 -0.055014
v -0.083821 -0.182282 -0.055002
v 0.095179 -0.182282 -0.055002
v 0.165179 -0.247532 -0.055014
v 0.005679 -0.250782 -0.055014
v 0.005679 -0.343782 -0.055031
v -0.214321 0.006199 0.051033
v -0.214321 0.006218 -0.054967
v -0.153821 -0.247532 -0.055014
v -0.153821 0.259949 0.051079
v -0.153821 0.259968 -0.054921
v 0.005679 0.356199 0.051097
v 0.005679 0.356218 -0.054903
v 0.165179 0.259949 0.051079
v 0.165179 0.259968 -0.054921
v 0.225679 0.006199 0.051033
v 0.225679 0.006218 -0.054967
v 0.165179 -0.247551 0.050986
v 0.165179 -0.247532 -0.055014
v 0.005679 -0.343801 0.050969
v 0.005679 -0.343782 -0.055031
v -0.153821 -0.247551 0.050986
v -0.116321 0.006199 0.051033
v -0.116321 0.006218 -0.054967
v -0.083821 0.194718 -0.054933
v -0.083821 -0.182301 0.050998
v -0.083821 -0.182282 -0.055002
v 0.005679 -0.250801 0.050986
v 0.005679 -0.250782 -0.055014
v 0.095179 -0.182301 0.050998
v 0.095179 -0.182282 -0.055002
v 0.127679 0.006199 0.051033
v 0.127679 0.006218 -0.054967
v 0.095179 0.194699 0.051068
v 0.095179 0.194718 -0.054933
v 0.005679 0.263199 0.051080
v 0.005679 0.263218 -0.054920
v -0.083821 0.194699 0.051068
vt 0.100256 0.607276
vt 0.233053 0.574367
vt 0.251425 0.662368
vt 0.364566 0.535308
vt 0.145365 0.529742
vt 0.293677 0.489358
vt 0.000000 0.380817
vt 0.364566 0.281550
vt 0.283367 0.303660
vt 0.081199 0.358708
vt 0.000000 0.127060
vt 0.070889 0.173009
vt 0.219201 0.132626
vt 0.264311 0.055091
vt 0.131513 0.088000
vt 0.113141 0.000000
vt 0.597619 0.088000
vt 0.615991 0.000000
vt 0.464822 0.055091
vt 0.729132 0.127060
vt 0.509931 0.132626
vt 0.658243 0.173009
vt 0.729132 0.380817
vt 0.647934 0.358708
vt 0.445765 0.303660
vt 0.435456 0.489358
vt 0.583768 0.529742
vt 0.628877 0.607276
vt 0.496080 0.574367
vt 0.477708 0.662367
vt 0.729132 0.340467
vt 0.819422 0.340467
vt 0.819422 0.587305
vt 0.729132 0.093628
vt 0.819422 0.093628
vt 0.729132 0.000000
vt 0.819422 0.000000
vt 0.909711 0.587305
vt 0.909711 0.680934
vt 0.909711 0.340467
vt 0.909711 0.093628
vt 0.909711 0.000000
vt 0.729133 0.680934
vt 0.729133 0.587305
vt 0.909711 0.750000
vt 1.000000 0.933366
vt 1.000000 0.750000
vt 0.909711 0.566634
vt 1.000000 0.566634
vt 0.909711 0.500000
vt 1.000000 0.500000
vt 0.909711 0.433366
vt 1.000000 0.433366
vt 0.909711 0.250000
vt 1.000000 0.250000
vt 0.909711 0.066634
vt 1.000000 0.066634
vt 1.000000 0.000000
vt 0.909711 0.933366
vt 1.000000 1.000000
vt 0.819422 0.680934
vt 0.909711 1.000000
vn -0.000000 -0.000200 1.000000
vn -1.000000 0.000000 -0.000000
vn -0.807500 -0.589900 -0.000100
vn -0.807500 0.589900 0.000100
vn 0.000000 1.000000 0.000200
vn 0.807500 0.589900 0.000100
vn 1.000000 0.000000 -0.000000
vn 0.807500 -0.589900 -0.000100
vn 0.000000 -1.000000 -0.000200
vn -0.855600 0.517700 0.000100
vn -0.855600 -0.517700 -0.000100
vn 0.855600 -0.517700 -0.000100
vn 0.855600 0.517700 0.000100
s 1
f 1/1/1 2/2/1 3/3/1
f 2/2/1 4/4/1 3/3/1
f 1/1/1 5/5/1 2/2/1
f 6/6/1 4/4/1 2/2/1
f 7/7/1 5/5/1 1/1/1
f 6/6/1 8/8/1 4/4/1
f 9/9/1 8/8/1 6/6/1
f 7/7/1 10/10/1 5/5/1
f 11/11/1 10/10/1 7/7/1
f 11/11/1 12/12/1 10/10/1
f 13/13/1 8/8/1 9/9/1
f 13/13/1 14/14/1 8/8/1
f 11/11/1 15/15/1 12/12/1
f 15/15/1 14/14/1 13/13/1
f 16/16/1 15/15/1 11/11/1
f 15/15/1 16/16/1 14/14/1
f 17/17/1 19/18/1 18/19/1
f 20/20/1 19/18/1 17/17/1
f 21/21/1 17/17/1 18/19/1
f 20/20/1 17/17/1 22/22/1
f 21/21/1 18/19/1 23/8/1
f 24/23/1 20/20/1 22/22/1
f 24/23/1 22/22/1 25/24/1
f 26/25/1 21/21/1 23/8/1
f 26/25/1 23/8/1 27/4/1
f 28/26/1 26/25/1 27/4/1
f 24/23/1 25/24/1 29/27/1
f 30/28/1 24/23/1 29/27/1
f 31/29/1 28/26/1 27/4/1
f 30/28/1 29/27/1 31/29/1
f 31/29/1 27/4/1 32/30/1
f 32/30/1 30/28/1 31/29/1
f 33/31/2 34/32/2 35/33/3
f 33/31/2 36/34/4 37/35/4
f 38/36/5 39/37/5 37/35/4
f 40/33/6 41/38/6 39/39/5
f 42/32/7 43/40/7 41/38/6
f 44/35/8 45/41/8 43/40/7
f 46/37/9 47/42/9 45/41/8
f 46/43/9 48/44/3 35/33/3
f 49/45/2 51/46/10 50/47/2
f 52/48/11 50/47/2 53/49/11
f 54/50/9 53/49/11 55/51/9
f 56/52/12 55/51/9 57/53/12
f 58/54/7 57/53/12 59/55/7
f 60/56/13 59/55/7 61/57/13
f 60/56/13 63/58/5 62/42/5
f 64/59/10 63/60/5 51/46/10
f 48/44/3 33/31/2 35/33/3
f 34/32/2 33/31/2 37/35/4
f 36/34/4 38/36/5 37/35/4
f 38/61/5 40/33/6 39/39/5
f 40/33/6 42/32/7 41/38/6
f 42/32/7 44/35/8 43/40/7
f 44/35/8 46/37/9 45/41/8
f 47/61/9 46/43/9 35/33/3
f 64/59/10 51/46/10 49/45/2
f 49/45/2 50/47/2 52/48/11
f 52/48/11 53/49/11 54/50/9
f 54/50/9 55/51/9 56/52/12
f 56/52/12 57/53/12 58/54/7
f 58/54/7 59/55/7 60/56/13
f 61/57/13 63/58/5 60/56/13
f 62/62/5 63/60/5 64/59/10
