# Blender v2.73 (sub 7) OBJ File: 'nums.blend'
# www.blender.org
v -0.042321 -0.334801 0.047970
v -0.042321 0.347199 0.048096
v 0.055679 0.347199 0.048096
v 0.055679 -0.334801 0.047970
v -0.042321 -0.334782 -0.052030
v -0.042321 0.347218 -0.051904
v 0.055679 0.347218 -0.051904
v 0.055679 -0.334782 -0.052030
v -0.042321 -0.334782 -0.052030
v -0.042321 -0.334801 0.047970
v -0.042321 0.347218 -0.051904
v -0.042321 0.347199 0.048096
v 0.055679 0.347218 -0.051904
v 0.055679 0.347199 0.048096
v 0.055679 -0.334782 -0.052030
v 0.055679 -0.334801 0.047970
vt 0.603239 0.000000
vt 0.801620 1.000000
vt 0.603239 1.000000
vt 0.801620 0.000000
vt 0.404859 1.000000
vt 0.404859 0.000000
vt 0.202429 0.000000
vt 1.000000 0.146628
vt 1.000000 0.293255
vt 0.801620 0.293255
vt 0.000000 0.000000
vt 0.202429 1.000000
vt 1.000000 0.000000
vt 0.801620 0.146628
vt 0.000000 1.000000
vn 0.000000 -0.000200 1.000000
vn 0.000000 0.000200 -1.000000
vn -0.707100 0.707100 0.000100
vn -0.707100 -0.707100 -0.000100
vn 0.707100 0.707100 0.000100
vn 0.707100 -0.707100 -0.000100
s off
f 1/1/1 3/2/1 2/3/1
f 1/1/1 4/4/1 3/2/1
f 7/1/2 5/5/2 6/6/2
f 8/3/2 5/5/2 7/1/2
s 1
f 12/7/3 11/6/3 9/5/4
f 14/8/5 13/9/5 11/10/3
f 16/11/6 15/7/6 13/12/5
f 10/13/4 9/8/4 15/14/6
f 10/12/4 12/7/3 9/5/4
f 12/14/3 14/8/5 11/10/3
f 14/15/5 16/11/6 13/12/5
f 16/4/6 10/13/4 15/14/6
