# Blender v2.76 (sub 0) OBJ File: ''
# www.blender.org
mtllib num2.mtl
o num2
v -0.115821 -0.340198 -0.053094
v 0.114804 -0.296948 -0.053086
v -0.035321 -0.356198 -0.053097
v -0.196321 -0.291198 -0.053085
v -0.042321 -0.260198 -0.053080
v 0.041304 -0.224323 -0.053073
v 0.172679 -0.143198 -0.053058
v -0.196321 -0.168198 -0.053063
v -0.117071 -0.240448 -0.053076
v 0.074679 -0.132198 -0.053056
v 0.123679 0.023052 -0.053028
v 0.062679 -0.058448 -0.053042
v 0.026679 0.013802 -0.053029
v -0.085446 0.173802 -0.053000
v -0.039321 0.241802 -0.052987
v -0.210321 0.327802 -0.052972
v 0.221679 0.241802 -0.052987
v 0.221679 0.334802 -0.052970
v -0.210321 0.334802 -0.052970
v 0.114804 -0.296968 0.056914
v -0.115821 -0.340218 0.056906
v -0.035321 -0.356218 0.056903
v -0.196321 -0.291218 0.056915
v -0.042321 -0.260218 0.056920
v 0.041304 -0.224344 0.056927
v 0.172679 -0.143218 0.056942
v -0.117071 -0.240468 0.056924
v -0.196321 -0.168218 0.056937
v 0.074679 -0.132218 0.056944
v 0.123679 0.023031 0.056972
v 0.062679 -0.058468 0.056958
v 0.026679 0.013782 0.056971
v -0.085446 0.173782 0.057000
v -0.039321 0.241782 0.057013
v -0.210321 0.327782 0.057028
v 0.221679 0.241782 0.057013
v 0.221679 0.334782 0.057030
v -0.210321 0.334782 0.057030
v -0.210321 0.327802 -0.052972
v -0.210321 0.327782 0.057028
v -0.210321 0.334782 0.057030
v -0.085446 0.173802 -0.053000
v -0.085446 0.173782 0.057000
v 0.026679 0.013802 -0.053029
v 0.026679 0.013782 0.056971
v 0.062679 -0.058448 -0.053042
v 0.062679 -0.058468 0.056958
v 0.074679 -0.132198 -0.053056
v 0.074679 -0.132218 0.056944
v 0.041304 -0.224323 -0.053073
v 0.041304 -0.224344 0.056927
v -0.042321 -0.260198 -0.053080
v -0.042321 -0.260218 0.056920
v -0.117071 -0.240448 -0.053076
v -0.117071 -0.240468 0.056924
v -0.196321 -0.168198 -0.053063
v -0.196321 -0.168218 0.056937
v -0.196321 -0.291198 -0.053085
v -0.196321 -0.291218 0.056915
v -0.115821 -0.340198 -0.053094
v -0.115821 -0.340218 0.056906
v -0.035321 -0.356198 -0.053097
v -0.035321 -0.356218 0.056903
v 0.114804 -0.296948 -0.053086
v 0.114804 -0.296968 0.056914
v 0.172679 -0.143198 -0.053058
v 0.172679 -0.143218 0.056942
v 0.123679 0.023052 -0.053028
v 0.123679 0.023031 0.056972
v -0.039321 0.241802 -0.052987
v -0.039321 0.241782 0.057013
v 0.221679 0.241802 -0.052987
v 0.221679 0.241782 0.057013
v 0.221679 0.334802 -0.052970
v 0.221679 0.334782 0.057030
v -0.210321 0.334802 -0.052970
vt 0.709871 0.015942
vt 0.497117 0.059035
vt 0.635609 0.000000
vt 0.784133 0.064765
vt 0.642066 0.095652
vt 0.564921 0.131397
vt 0.443727 0.212229
vt 0.784133 0.187319
vt 0.711024 0.115331
vt 0.534133 0.223189
vt 0.488930 0.377877
vt 0.545203 0.296672
vt 0.578413 0.368660
vt 0.681850 0.528081
vt 0.639299 0.595834
vt 0.797048 0.681523
vt 0.398524 0.595834
vt 0.398524 0.688498
vt 0.797048 0.688498
vt 0.299931 0.059035
vt 0.087177 0.015942
vt 0.161439 0.000000
vt 0.012915 0.064765
vt 0.154981 0.095652
vt 0.232126 0.131397
vt 0.353321 0.212229
vt 0.086024 0.115331
vt 0.012915 0.187319
vt 0.262915 0.223189
vt 0.308118 0.377876
vt 0.251845 0.296672
vt 0.218635 0.368660
vt 0.115198 0.528081
vt 0.157749 0.595834
vt 0.000000 0.681523
vt 0.000000 0.688498
vt 0.898524 0.006964
vt 0.797048 0.006964
vt 0.797048 0.000000
vt 0.898524 0.167025
vt 0.797048 0.167025
vt 0.898524 0.332356
vt 0.797048 0.332356
vt 0.898524 0.406211
vt 0.797048 0.406211
vt 0.898524 0.480240
vt 0.797048 0.480240
vt 0.898524 0.570061
vt 0.797048 0.570061
vt 0.304428 0.773441
vt 0.202952 0.773441
vt 0.202952 0.688498
vt 0.304428 0.846889
vt 0.202952 0.846889
vt 0.304428 0.922302
vt 0.202952 0.922302
vt 0.304428 0.810866
vt 0.304428 0.688498
vt 0.405904 0.688498
vt 0.000000 0.913350
vt 0.101476 0.913350
vt 0.101476 0.997709
vt 0.000000 0.832015
vt 0.101476 0.832015
vt 0.101476 0.688498
vt 1.000000 0.154535
vt 0.898524 0.154535
vt 0.898524 0.000000
vt 1.000000 0.318962
vt 0.898524 0.318962
vt 1.000000 0.532955
vt 0.898524 0.532955
vt 0.202952 0.947450
vt 0.491673 0.688498
vt 0.491673 0.798099
vt 0.898524 1.000000
vt 0.797048 1.000000
vt 0.405904 0.810866
vt 0.000000 0.997709
vt 1.000000 0.000000
vt 0.101476 0.947450
vt 0.405904 0.798099
vn 0.000000 0.000200 -1.000000
vn 0.000000 0.000300 -1.000000
vn -0.000000 -0.000200 1.000000
vn 0.000000 -0.000300 1.000000
vn -0.942500 -0.334100 -0.000100
vn -0.707100 0.707100 0.000100
vn -0.798300 -0.602200 -0.000100
vn -0.859400 -0.511400 -0.000100
vn -0.951800 -0.306800 -0.000100
vn -0.995700 0.093000 0.000000
vn -0.727200 0.686400 0.000100
vn -0.073400 0.997300 0.000200
vn 0.478300 0.878200 0.000200
vn -0.403900 0.914800 0.000200
vn -0.871800 -0.489900 -0.000100
vn -0.363000 -0.931800 -0.000200
vn 0.089700 -0.996000 -0.000200
vn 0.712700 -0.701500 -0.000100
vn 0.999300 -0.036700 -0.000000
vn 0.894500 0.447100 0.000100
vn 0.893700 -0.448600 -0.000100
vn 0.707100 -0.707100 -0.000100
vn 0.707100 0.707100 0.000100
usemtl None
s 1
f 1/1/1 2/2/1 3/3/1
f 4/4/1 2/2/1 1/1/1
f 4/4/1 5/5/1 2/2/1
f 5/5/1 6/6/1 2/2/1
f 6/6/1 7/7/1 2/2/1
f 8/8/1 9/9/1 4/4/1
f 9/9/1 5/5/1 4/4/1
f 10/10/1 7/7/1 6/6/1
f 10/10/1 11/11/1 7/7/1
f 12/12/1 11/11/1 10/10/1
f 13/13/1 11/11/1 12/12/1
f 14/14/1 11/11/1 13/13/1
f 14/14/1 15/15/1 11/11/1
f 16/16/1 15/15/1 14/14/1
f 16/16/1 17/17/1 15/15/1
f 16/16/1 18/18/1 17/17/1
f 19/19/2 18/18/1 16/16/1
f 20/20/3 21/21/3 22/22/3
f 20/20/3 23/23/3 21/21/3
f 24/24/3 23/23/3 20/20/3
f 25/25/3 24/24/3 20/20/3
f 26/26/3 25/25/3 20/20/3
f 27/27/3 28/28/3 23/23/3
f 24/24/3 27/27/3 23/23/3
f 26/26/3 29/29/3 25/25/3
f 30/30/3 29/29/3 26/26/3
f 30/30/3 31/31/3 29/29/3
f 30/30/3 32/32/3 31/31/3
f 30/30/3 33/33/3 32/32/3
f 34/34/3 33/33/3 30/30/3
f 34/34/3 35/35/3 33/33/3
f 36/17/3 35/35/3 34/34/3
f 37/18/3 35/35/3 36/17/3
f 37/18/3 38/36/4 35/35/3
f 39/37/5 40/38/5 41/39/6
f 42/40/7 43/41/7 40/38/5
f 44/42/8 45/43/8 43/41/7
f 44/42/8 46/44/9 47/45/9
f 46/44/9 48/46/10 49/47/10
f 48/46/10 50/48/11 51/49/11
f 52/50/12 53/51/12 51/52/11
f 54/53/13 55/54/13 53/51/12
f 56/55/14 57/56/14 55/54/13
f 56/57/14 58/58/15 59/59/15
f 60/60/16 61/61/16 59/62/15
f 62/63/17 63/64/17 61/61/16
f 64/36/18 65/65/18 63/64/17
f 66/66/19 67/67/19 65/68/18
f 66/66/19 68/69/20 69/70/20
f 70/71/21 71/72/21 69/70/20
f 72/65/22 73/52/22 71/73/21
f 72/59/22 74/74/23 75/75/23
f 76/76/6 41/77/6 75/49/23
f 76/68/6 39/37/5 41/39/6
f 39/37/5 42/40/7 40/38/5
f 42/40/7 44/42/8 43/41/7
f 45/43/8 44/42/8 47/45/9
f 47/45/9 46/44/9 49/47/10
f 49/47/10 48/46/10 51/49/11
f 50/58/11 52/50/12 51/52/11
f 52/50/12 54/53/13 53/51/12
f 54/53/13 56/55/14 55/54/13
f 57/78/14 56/57/14 59/59/15
f 58/79/15 60/60/16 59/62/15
f 60/60/16 62/63/17 61/61/16
f 62/63/17 64/36/18 63/64/17
f 64/80/18 66/66/19 65/68/18
f 67/67/19 66/66/19 69/70/20
f 68/69/20 70/71/21 69/70/20
f 70/81/21 72/65/22 71/73/21
f 73/82/22 72/59/22 75/75/23
f 74/48/23 76/76/6 75/49/23
