# Blender v2.76 (sub 0) OBJ File: ''
# www.blender.org
v 0.101571 0.349199 -0.051096
v -0.113929 0.307699 -0.051088
v 0.032321 0.356199 -0.051097
v 0.163321 0.327199 -0.051092
v 0.163321 0.234199 -0.051075
v 0.101571 0.256574 -0.051079
v 0.047321 0.263199 -0.051080
v -0.038679 0.235824 -0.051075
v -0.168679 0.178199 -0.051064
v -0.070679 0.161199 -0.051061
v -0.148429 0.085949 -0.051048
v -0.036929 0.088449 -0.051048
v 0.064321 0.062199 -0.051043
v -0.081679 0.025199 -0.051036
v 0.064321 -0.027801 -0.051027
v -0.156179 -0.037426 -0.051025
v -0.045054 -0.057801 -0.051021
v -0.179679 -0.136801 -0.051007
v -0.081679 -0.141801 -0.051006
v -0.119429 -0.286051 -0.050979
v -0.051804 -0.221051 -0.050991
v 0.180321 -0.304801 -0.050976
v 0.103571 -0.237926 -0.050988
v 0.180321 -0.198801 -0.050995
v 0.028321 -0.250801 -0.050986
v 0.035321 -0.343801 -0.050969
v 0.107071 -0.333676 -0.050970
v -0.113929 0.307718 0.054912
v 0.101571 0.349218 0.054904
v 0.032321 0.356218 0.054903
v 0.163321 0.327218 0.054908
v 0.101571 0.256593 0.054921
v 0.163321 0.234218 0.054925
v 0.047321 0.263218 0.054920
v -0.038679 0.235843 0.054925
v -0.168679 0.178218 0.054936
v -0.070679 0.161218 0.054939
v -0.148429 0.085968 0.054952
v -0.036929 0.088468 0.054952
v 0.064321 0.062218 0.054957
v -0.081679 0.025218 0.054964
v 0.064321 -0.027782 0.054973
v -0.156179 -0.037407 0.054975
v -0.045054 -0.057782 0.054979
v -0.179679 -0.136782 0.054993
v -0.081679 -0.141782 0.054994
v -0.119429 -0.286032 0.055021
v -0.051804 -0.221032 0.055009
v 0.103571 -0.237907 0.055012
v 0.180321 -0.304782 0.055024
v 0.180321 -0.198782 0.055005
v 0.028321 -0.250782 0.055014
v 0.035321 -0.343782 0.055031
v 0.107071 -0.333657 0.055030
v 0.032321 0.356199 -0.051097
v 0.032321 0.356218 0.054903
v 0.101571 0.349218 0.054904
v -0.113929 0.307699 -0.051088
v -0.113929 0.307718 0.054912
v -0.168679 0.178199 -0.051064
v -0.168679 0.178218 0.054936
v -0.148429 0.085949 -0.051048
v -0.148429 0.085968 0.054952
v -0.081679 0.025199 -0.051036
v -0.081679 0.025218 0.054964
v -0.156179 -0.037426 -0.051025
v -0.156179 -0.037407 0.054975
v -0.179679 -0.136801 -0.051007
v -0.179679 -0.136782 0.054993
v -0.119429 -0.286051 -0.050979
v -0.119429 -0.286032 0.055021
v 0.035321 -0.343801 -0.050969
v 0.035321 -0.343782 0.055031
v 0.107071 -0.333676 -0.050970
v 0.107071 -0.333657 0.055030
v 0.180321 -0.304801 -0.050976
v 0.180321 -0.304782 0.055024
v 0.180321 -0.198801 -0.050995
v 0.180321 -0.198782 0.055005
v 0.103571 -0.237926 -0.050988
v 0.103571 -0.237907 0.055012
v 0.028321 -0.250801 -0.050986
v 0.028321 -0.250782 0.055014
v -0.051804 -0.221051 -0.050991
v -0.051804 -0.221032 0.055009
v -0.081679 -0.141801 -0.051006
v -0.081679 -0.141782 0.054994
v -0.045054 -0.057801 -0.051021
v -0.045054 -0.057782 0.054979
v 0.064321 -0.027801 -0.051027
v 0.064321 -0.027782 0.054973
v 0.064321 0.062199 -0.051043
v 0.064321 0.062218 0.054957
v -0.036929 0.088449 -0.051048
v -0.036929 0.088468 0.054952
v -0.070679 0.161199 -0.051061
v -0.070679 0.161218 0.054939
v -0.038679 0.235824 -0.051075
v -0.038679 0.235843 0.054925
v 0.047321 0.263199 -0.051080
v 0.047321 0.263218 0.054920
v 0.101571 0.256574 -0.051079
v 0.101571 0.256593 0.054921
v 0.163321 0.234199 -0.051075
v 0.163321 0.234218 0.054925
v 0.163321 0.327199 -0.051092
v 0.163321 0.327218 0.054908
v 0.101571 0.349199 -0.051096
vt 0.319961 0.009991
vt 0.086322 0.047342
vt 0.245591 0.000000
vt 0.385729 0.035944
vt 0.382490 0.136527
vt 0.316736 0.110169
vt 0.258514 0.101107
vt 0.164899 0.127708
vt 0.022821 0.185488
vt 0.127821 0.207300
vt 0.041428 0.285968
vt 0.161652 0.287161
vt 0.269832 0.319091
vt 0.111233 0.354004
vt 0.266697 0.416429
vt 0.028781 0.419131
vt 0.147805 0.445052
vt 0.000000 0.525788
vt 0.105418 0.534621
vt 0.059720 0.689313
vt 0.134847 0.621377
vt 0.382038 0.720070
vt 0.301671 0.645059
vt 0.385729 0.605427
vt 0.220143 0.656354
vt 0.224447 0.757181
vt 0.302108 0.748739
vt 0.472051 0.709839
vt 0.705690 0.747190
vt 0.631320 0.757181
vt 0.771458 0.721238
vt 0.702465 0.647013
vt 0.768219 0.620655
vt 0.644243 0.656074
vt 0.550628 0.629473
vt 0.408550 0.571693
vt 0.513550 0.549882
vt 0.427157 0.471214
vt 0.547381 0.470020
vt 0.655560 0.438091
vt 0.496962 0.403177
vt 0.652426 0.340752
vt 0.414510 0.338050
vt 0.533534 0.312129
vt 0.385729 0.231394
vt 0.491146 0.222560
vt 0.445449 0.067868
vt 0.520576 0.135804
vt 0.687400 0.112122
vt 0.767767 0.037112
vt 0.771458 0.151755
vt 0.605872 0.100828
vt 0.610176 0.000000
vt 0.687837 0.008443
vt 0.771458 0.808777
vt 0.885729 0.808777
vt 0.885729 0.884094
vt 0.771458 0.656227
vt 0.885729 0.656227
vt 0.114271 0.904217
vt 0.000000 0.904217
vt 0.000000 0.757181
vt 0.114271 1.000000
vt 0.000000 1.000000
vt 0.682702 0.757181
vt 0.770148 0.757181
vt 0.770148 0.871884
vt 0.771458 0.260842
vt 0.885729 0.260842
vt 0.885729 0.339208
vt 0.771458 0.150810
vt 0.885729 0.150810
vt 0.771458 0.000000
vt 0.885729 0.000000
vt 0.885729 0.517472
vt 0.771458 0.517472
vt 0.771458 0.339208
vt 0.885729 0.588917
vt 0.771458 0.588917
vt 0.457084 0.757181
vt 0.571355 0.757181
vt 0.571355 0.871884
vt 1.000000 0.078650
vt 0.885729 0.078650
vt 1.000000 0.158384
vt 0.885729 0.158384
vt 1.000000 0.247756
vt 0.885729 0.247756
vt 0.228542 0.848197
vt 0.342813 0.848197
vt 0.342813 0.933856
vt 0.228542 0.757181
vt 0.342813 0.757181
vt 0.561179 0.871884
vt 0.561179 0.986587
vt 0.457084 0.986587
vt 0.982751 0.247756
vt 0.982751 0.362459
vt 0.885729 0.362459
vt 0.342813 0.838038
vt 0.457084 0.838038
vt 0.457084 0.916650
vt 0.114271 0.886468
vt 0.228542 0.886468
vt 0.228542 0.967475
vt 0.114271 0.828111
vt 0.228542 0.828111
vt 0.114271 0.757181
vt 0.582446 0.871884
vt 0.682702 0.871884
vt 0.682702 0.986587
vt 0.771458 0.884094
vt 0.885729 0.952874
vt 0.457084 0.871884
vt 1.000000 0.000000
vt 0.228542 0.933856
vt 0.342813 0.916650
vt 0.114271 0.967475
vt 0.582446 0.986587
vt 0.771458 0.952874
vn -0.000000 -0.000200 -1.000000
vn 0.000000 -0.000300 -1.000000
vn 0.000000 0.000200 1.000000
vn -0.000000 0.000300 1.000000
vn -0.109500 0.994000 -0.000200
vn 0.219700 0.975600 -0.000200
vn -0.678300 0.734700 -0.000100
vn -0.995800 0.091800 -0.000000
vn -0.865700 -0.500600 0.000100
vn -0.999800 0.019700 -0.000000
vn -0.851500 0.524400 -0.000100
vn -0.997100 -0.075700 0.000000
vn -0.697700 -0.716400 0.000100
vn -0.108300 -0.994100 0.000200
vn 0.255000 -0.966900 0.000200
vn 0.826700 -0.562700 0.000100
vn 0.522400 0.852700 -0.000200
vn -0.315000 0.949100 -0.000200
vn 0.092900 0.995700 -0.000200
vn 0.705300 0.708900 -0.000100
vn 0.999700 -0.025300 0.000000
vn 0.654600 -0.756000 0.000100
vn 0.795100 -0.606400 0.000100
vn 0.790900 0.612000 -0.000100
vn 0.640400 0.768000 -0.000100
vn 0.999900 0.014600 -0.000000
vn 0.672000 -0.740500 0.000100
vn 0.093200 -0.995600 0.000200
vn -0.232400 -0.972600 0.000200
vn 0.574200 -0.818700 0.000100
vn 0.817200 0.576400 -0.000100
s 1
f 1/1/1 2/2/1 3/3/1
f 4/4/1 2/2/1 1/1/1
f 5/5/1 6/6/1 4/4/1
f 6/6/1 2/2/1 4/4/1
f 6/6/1 7/7/1 2/2/1
f 7/7/1 8/8/1 2/2/1
f 8/8/1 9/9/1 2/2/1
f 10/10/1 9/9/1 8/8/1
f 10/10/1 11/11/1 9/9/1
f 12/12/1 11/11/1 10/10/1
f 13/13/1 11/11/1 12/12/1
f 13/13/1 14/14/1 11/11/1
f 15/15/1 14/14/1 13/13/1
f 15/15/1 16/16/1 14/14/1
f 17/17/1 16/16/1 15/15/1
f 17/17/1 18/18/1 16/16/1
f 19/19/1 18/18/1 17/17/1
f 19/19/1 20/20/1 18/18/1
f 21/21/1 20/20/1 19/19/1
f 22/22/1 23/23/1 24/24/1
f 25/25/1 20/20/1 21/21/1
f 22/22/1 25/25/1 23/23/1
f 22/22/1 20/20/1 25/25/1
f 22/22/1 26/26/1 20/20/1
f 27/27/2 26/26/1 22/22/1
f 28/28/3 29/29/3 30/30/3
f 28/28/3 31/31/3 29/29/3
f 32/32/3 33/33/3 31/31/3
f 28/28/3 32/32/3 31/31/3
f 34/34/3 32/32/3 28/28/3
f 35/35/3 34/34/3 28/28/3
f 36/36/3 35/35/3 28/28/3
f 36/36/3 37/37/3 35/35/3
f 38/38/3 37/37/3 36/36/3
f 38/38/3 39/39/3 37/37/3
f 38/38/3 40/40/3 39/39/3
f 41/41/3 40/40/3 38/38/3
f 41/41/3 42/42/3 40/40/3
f 43/43/3 42/42/3 41/41/3
f 43/43/3 44/44/3 42/42/3
f 45/45/3 44/44/3 43/43/3
f 45/45/3 46/46/3 44/44/3
f 47/47/3 46/46/3 45/45/3
f 47/47/3 48/48/3 46/46/3
f 49/49/3 50/50/3 51/51/3
f 47/47/3 52/52/3 48/48/3
f 52/52/3 50/50/3 49/49/3
f 47/47/3 50/50/3 52/52/3
f 53/53/3 50/50/3 47/47/3
f 53/53/3 54/54/4 50/50/3
f 55/55/5 56/56/5 57/57/6
f 58/58/7 59/59/7 56/56/5
f 60/60/8 61/61/8 59/62/7
f 62/63/9 63/64/9 61/61/8
f 62/65/9 64/66/10 65/67/10
f 66/68/11 67/69/11 65/70/10
f 66/68/11 68/71/12 69/72/12
f 70/73/13 71/74/13 69/72/12
f 72/75/14 73/76/14 71/77/13
f 72/75/14 74/78/15 75/79/15
f 76/59/16 77/58/16 75/79/15
f 78/80/17 79/81/17 77/82/16
f 80/83/18 81/84/18 79/74/17
f 80/83/18 82/85/19 83/86/19
f 84/87/20 85/88/20 83/86/19
f 86/89/21 87/90/21 85/91/20
f 88/92/22 89/93/22 87/90/21
f 90/94/23 91/95/23 89/96/22
f 92/97/24 93/98/24 91/99/23
f 94/82/25 95/81/25 93/65/24
f 96/100/26 97/101/26 95/102/25
f 98/93/27 99/80/27 97/101/26
f 100/103/28 101/104/28 99/105/27
f 102/106/29 103/107/29 101/104/28
f 102/106/29 104/108/30 105/92/30
f 104/109/30 106/110/31 107/111/31
f 108/112/6 57/57/6 107/113/31
f 108/112/6 55/55/5 57/57/6
f 55/55/5 58/58/7 56/56/5
f 58/108/7 60/60/8 59/62/7
f 60/60/8 62/63/9 61/61/8
f 63/110/9 62/65/9 65/67/10
f 64/77/10 66/68/11 65/70/10
f 67/69/11 66/68/11 69/72/12
f 68/71/12 70/73/13 69/72/12
f 70/70/13 72/75/14 71/77/13
f 73/76/14 72/75/14 75/79/15
f 74/78/15 76/59/16 75/79/15
f 76/114/16 78/80/17 77/82/16
f 78/115/17 80/83/18 79/74/17
f 81/84/18 80/83/18 83/86/19
f 82/85/19 84/87/20 83/86/19
f 84/116/20 86/89/21 85/91/20
f 86/89/21 88/92/22 87/90/21
f 88/114/22 90/94/23 89/96/22
f 90/88/23 92/97/24 91/99/23
f 92/110/24 94/82/25 93/65/24
f 94/117/25 96/100/26 95/102/25
f 96/100/26 98/93/27 97/101/26
f 98/118/27 100/103/28 99/105/27
f 100/103/28 102/106/29 101/104/28
f 103/107/29 102/106/29 105/92/30
f 105/119/30 104/109/30 107/111/31
f 106/120/31 108/112/6 107/113/31
