# Blender v2.76 (sub 0) OBJ File: ''
# www.blender.org
v 0.233321 0.065802 0.052020
v -0.153679 -0.356199 0.052097
v -0.111679 -0.356199 0.052097
v -0.053679 -0.171199 0.052063
v -0.055679 -0.171199 0.052063
v -0.153679 0.022802 0.052028
v 0.102321 0.022802 0.052028
v -0.055679 0.022802 0.052028
v -0.226679 0.022802 0.052028
v -0.226679 0.110802 0.052011
v 0.233321 0.110802 0.052011
v -0.055679 0.110802 0.052011
v -0.055679 0.334802 0.051970
v -0.153679 0.110802 0.052011
v -0.153679 0.334802 0.051970
v -0.153679 -0.356218 -0.055903
v 0.233321 0.065782 -0.055980
v -0.111679 -0.356218 -0.055903
v -0.053679 -0.171218 -0.055937
v -0.055679 -0.171218 -0.055937
v -0.153679 0.022782 -0.055972
v 0.102321 0.022782 -0.055972
v -0.055679 0.022782 -0.055972
v -0.226679 0.022782 -0.055972
v -0.226679 0.110782 -0.055989
v 0.233321 0.110782 -0.055989
v -0.055679 0.110782 -0.055989
v -0.153679 0.110782 -0.055989
v -0.055679 0.334782 -0.056030
v -0.153679 0.334782 -0.056030
v -0.226679 0.110802 0.052011
v -0.226679 0.110782 -0.055989
v -0.226679 0.022782 -0.055972
v -0.153679 0.110802 0.052011
v -0.153679 0.110782 -0.055989
v -0.153679 0.334802 0.051970
v -0.153679 0.334782 -0.056030
v -0.055679 0.334802 0.051970
v -0.055679 0.334782 -0.056030
v -0.055679 0.110802 0.052011
v -0.055679 0.110782 -0.055989
v 0.233321 0.110802 0.052011
v 0.233321 0.110782 -0.055989
v 0.233321 0.065802 0.052020
v 0.233321 0.065782 -0.055980
v -0.111679 -0.356199 0.052097
v -0.111679 -0.356218 -0.055903
v -0.153679 -0.356199 0.052097
v -0.153679 -0.356218 -0.055903
v -0.153679 0.022802 0.052028
v -0.153679 0.022782 -0.055972
v -0.226679 0.022802 0.052028
v -0.055679 0.022802 0.052028
v -0.055679 -0.171199 0.052063
v -0.055679 -0.171218 -0.055937
v -0.053679 -0.171199 0.052063
v -0.053679 -0.171218 -0.055937
v 0.102321 0.022802 0.052028
v 0.102321 0.022782 -0.055972
v -0.055679 0.022782 -0.055972
vt 0.447471 0.054776
vt 0.823930 0.568456
vt 0.783074 0.568456
vt 0.726654 0.343265
vt 0.728599 0.343265
vt 0.823930 0.107118
vt 0.574903 0.107118
vt 0.728599 0.107118
vt 0.894942 0.107118
vt 0.894942 0.000000
vt 0.447471 0.000000
vt 0.000000 0.000000
vt 0.420234 0.568456
vt 0.515564 0.841120
vt 0.420234 0.841120
vt 0.515564 0.568456
vt 0.376459 0.000000
vt 0.000000 0.513680
vt 0.335603 0.000000
vt 0.279183 0.225191
vt 0.281128 0.225191
vt 0.376459 0.461338
vt 0.127432 0.461338
vt 0.281128 0.461338
vt 0.447471 0.461338
vt 0.447471 0.568456
vt 0.000000 0.568456
vt 0.610895 0.568456
vt 0.610895 0.841120
vt 0.000000 0.911380
vt 0.105058 0.911380
vt 0.105058 0.994857
vt 0.000000 0.855696
vt 0.105058 0.855696
vt 0.000000 0.643209
vt 0.105058 0.643210
vt 0.105058 0.568456
vt 0.610895 0.788903
vt 0.715953 0.788903
vt 0.715953 1.000000
vt 0.715953 0.568456
vt 1.000000 0.042408
vt 0.894942 0.042408
vt 1.000000 0.705903
vt 0.894942 0.705903
vt 1.000000 0.738262
vt 0.894942 0.738262
vt 0.210117 0.568456
vt 0.210117 0.927976
vt 0.760899 0.568456
vt 0.760899 0.699919
vt 0.715953 0.699919
vt 0.315175 0.690186
vt 0.315175 0.873011
vt 0.210117 0.873011
vt 0.315175 0.871480
vt 0.420234 0.871480
vt 0.420234 0.873006
vt 0.315175 0.568456
vt 0.210117 0.690186
vt 0.000000 0.994857
vt 0.610895 1.000000
vt 1.000000 0.000000
vt 0.105058 0.927976
vn 0.000000 0.000200 1.000000
vn -0.000000 -0.797200 -0.603700
vn 0.000000 0.894400 0.447200
vn -0.000000 -0.000200 -1.000000
vn -0.020400 0.129400 -0.991400
vn 0.000000 0.992900 0.118700
vn -0.707100 0.707100 -0.000100
vn -0.707100 -0.707100 0.000100
vn 0.707100 0.707100 -0.000100
vn 0.941900 -0.336000 0.000100
vn 0.428400 -0.903600 0.000200
vn 0.707100 -0.707100 0.000100
vn -0.432100 0.901800 -0.000200
vn -0.901800 -0.432100 0.000100
s 1
f 1/1/1 2/2/1 3/3/1
f 1/1/1 4/4/1 2/2/1
f 4/4/1 5/5/1 2/2/1
f 5/5/1 6/6/1 2/2/1
f 1/1/1 7/7/1 4/4/1
f 8/8/1 6/6/1 5/5/1
f 1/1/1 8/8/1 7/7/1
f 1/1/1 6/6/1 8/8/1
f 1/1/1 9/9/1 6/6/1
f 1/1/1 10/10/1 9/9/1
f 11/11/1 10/10/1 1/1/1
f 12/12/2 10/12/1 11/12/1
f 13/13/1 14/14/3 12/15/2
f 14/12/3 10/12/1 12/12/2
f 13/13/1 15/16/1 14/14/3
f 16/17/4 17/18/4 18/19/4
f 19/20/4 17/18/4 16/17/4
f 20/21/4 19/20/4 16/17/4
f 21/22/4 20/21/4 16/17/4
f 22/23/4 17/18/4 19/20/4
f 21/22/4 23/24/4 20/21/4
f 23/24/4 17/18/4 22/23/4
f 21/22/4 17/18/4 23/24/4
f 24/25/4 17/18/4 21/22/4
f 25/26/4 17/18/4 24/25/4
f 25/26/4 26/27/4 17/18/4
f 25/12/4 27/12/5 26/12/4
f 28/14/6 29/28/4 27/29/5
f 25/12/4 28/12/6 27/12/5
f 30/16/4 29/28/4 28/14/6
f 31/30/7 32/31/7 33/32/8
f 34/33/7 35/34/7 32/31/7
f 36/35/7 37/36/7 35/34/7
f 38/27/9 39/37/9 37/36/7
f 40/38/9 41/39/9 39/40/9
f 42/28/9 43/41/9 41/39/9
f 44/42/10 45/43/10 43/10/9
f 46/44/11 47/45/11 45/43/10
f 48/46/8 49/47/8 47/45/11
f 50/37/8 51/48/8 49/49/8
f 52/50/8 33/51/8 51/52/8
f 53/53/12 54/54/9 55/55/9
f 56/56/13 57/57/13 55/58/9
f 58/59/14 59/13/14 57/57/13
f 53/53/12 60/60/12 59/48/14
f 52/61/8 31/30/7 33/32/8
f 31/30/7 34/33/7 32/31/7
f 34/33/7 36/35/7 35/34/7
f 36/35/7 38/27/9 37/36/7
f 38/62/9 40/38/9 39/40/9
f 40/38/9 42/28/9 41/39/9
f 42/63/9 44/42/10 43/10/9
f 44/42/10 46/44/11 45/43/10
f 46/44/11 48/46/8 47/45/11
f 48/64/8 50/37/8 49/49/8
f 50/41/8 52/50/8 51/52/8
f 60/60/12 53/53/12 55/55/9
f 54/54/9 56/56/13 55/58/9
f 56/56/13 58/59/14 57/57/13
f 58/59/14 53/53/12 59/48/14
