# Blender v2.76 (sub 0) OBJ File: ''
# www.blender.org
v 0.143321 0.007801 0.051030
v 0.054321 -0.259199 0.051079
v 0.143321 -0.347199 0.051096
v -0.159679 -0.347199 0.051096
v -0.159679 -0.259199 0.051079
v 0.054321 -0.088199 0.051048
v -0.127429 -0.031824 0.051038
v -0.032429 0.021676 0.051028
v -0.193679 0.125801 0.051009
v -0.095679 0.127801 0.051008
v -0.130554 0.282051 0.050980
v -0.054054 0.214426 0.050992
v 0.194321 0.301801 0.050976
v 0.120196 0.238176 0.050988
v 0.194321 0.200801 0.050995
v 0.045321 0.250801 0.050986
v 0.029321 0.343801 0.050969
v 0.111821 0.334051 0.050970
v 0.054321 -0.259218 -0.054921
v 0.143321 0.007782 -0.054970
v 0.143321 -0.347218 -0.054904
v -0.159679 -0.347218 -0.054904
v -0.159679 -0.259218 -0.054921
v 0.054321 -0.088218 -0.054952
v -0.127429 -0.031843 -0.054962
v -0.032429 0.021657 -0.054972
v -0.193679 0.125782 -0.054991
v -0.095679 0.127782 -0.054992
v -0.130554 0.282032 -0.055020
v -0.054054 0.214407 -0.055008
v 0.120196 0.238157 -0.055012
v 0.194321 0.301782 -0.055024
v 0.194321 0.200782 -0.055005
v 0.045321 0.250782 -0.055014
v 0.029321 0.343782 -0.055031
v 0.111821 0.334032 -0.055030
v 0.054321 -0.088199 0.051048
v 0.054321 -0.088218 -0.054952
v 0.054321 -0.259218 -0.054921
v -0.127429 -0.031824 0.051038
v -0.127429 -0.031843 -0.054962
v -0.193679 0.125801 0.051009
v -0.193679 0.125782 -0.054991
v -0.130554 0.282051 0.050980
v -0.130554 0.282032 -0.055020
v 0.029321 0.343801 0.050969
v 0.029321 0.343782 -0.055031
v 0.111821 0.334051 0.050970
v 0.111821 0.334032 -0.055030
v 0.194321 0.301801 0.050976
v 0.194321 0.301782 -0.055024
v 0.194321 0.200801 0.050995
v 0.194321 0.200782 -0.055005
v 0.120196 0.238176 0.050988
v 0.120196 0.238157 -0.055012
v 0.045321 0.250801 0.050986
v 0.045321 0.250782 -0.055014
v -0.054054 0.214426 0.050992
v -0.054054 0.214407 -0.055008
v -0.095679 0.127801 0.051008
v -0.095679 0.127782 -0.054992
v -0.032429 0.021676 0.051028
v -0.032429 0.021657 -0.054972
v 0.143321 0.007801 0.051030
v 0.143321 0.007782 -0.054970
v 0.143321 -0.347199 0.051096
v 0.143321 -0.347218 -0.054904
v -0.159679 -0.347199 0.051096
v -0.159679 -0.347218 -0.054904
v -0.159679 -0.259199 0.051079
v -0.159679 -0.259218 -0.054921
v 0.054321 -0.259199 0.051079
vt 0.356920 0.411618
vt 0.291121 0.115919
vt 0.390807 0.030290
vt 0.080024 0.000000
vt 0.071624 0.094526
vt 0.274798 0.299601
vt 0.082998 0.341988
vt 0.175331 0.408953
vt 0.000000 0.504680
vt 0.100326 0.516626
vt 0.049831 0.678829
vt 0.134752 0.613836
vt 0.381166 0.732521
vt 0.311211 0.656767
vt 0.390807 0.624030
vt 0.233207 0.662843
vt 0.207919 0.761141
vt 0.293469 0.758915
vt 0.681928 0.645221
vt 0.747728 0.349523
vt 0.781615 0.730851
vt 0.470831 0.761141
vt 0.462431 0.666615
vt 0.665605 0.461539
vt 0.473805 0.419153
vt 0.566139 0.352188
vt 0.390807 0.256460
vt 0.491134 0.244515
vt 0.440639 0.082312
vt 0.525559 0.147305
vt 0.702018 0.104374
vt 0.771974 0.028620
vt 0.781615 0.137111
vt 0.624014 0.098298
vt 0.598726 0.000000
vt 0.684276 0.002226
vt 0.436771 0.761141
vt 0.545963 0.761141
vt 0.545963 0.945616
vt 0.327578 0.963034
vt 0.218385 0.963034
vt 0.218385 0.761141
vt 0.890807 0.338619
vt 0.890807 0.168334
vt 1.000000 0.168334
vt 0.890807 0.000000
vt 1.000000 0.000000
vt 0.890807 0.552480
vt 0.781615 0.552480
vt 0.781615 0.382892
vt 0.890807 0.641838
vt 0.781615 0.641838
vt 0.890807 0.732196
vt 0.781615 0.732196
vt 0.545963 0.875494
vt 0.649983 0.761141
vt 0.781615 0.915823
vt 0.890807 0.915823
vt 0.890807 1.000000
vt 0.781615 0.834003
vt 0.890807 0.834003
vt 0.218385 0.853631
vt 0.109193 0.853631
vt 0.109193 0.761141
vt 0.218385 0.969524
vt 0.109193 0.969524
vt 0.327578 0.761141
vt 0.436771 0.951196
vt 0.890807 0.382892
vt 0.781615 0.000000
vt 1.000000 0.707472
vt 0.890807 0.707472
vt 0.740633 0.761141
vt 0.740632 0.875494
vt 0.649983 0.875494
vt 0.000000 0.761141
vt 0.109193 0.991810
vt 0.436771 0.945616
vt 1.000000 0.338619
vt 0.781615 1.000000
vt 0.327578 0.951196
vt 1.000000 0.382892
vt 0.000000 0.991810
vn 0.000000 0.000200 1.000000
vn 0.000000 -0.000200 -1.000000
vn -0.805100 -0.593200 0.000100
vn -0.707100 0.707100 -0.000100
vn -0.672000 -0.740600 0.000100
vn -1.000000 -0.007000 0.000000
vn -0.701700 0.712500 -0.000100
vn -0.125100 0.992100 -0.000200
vn 0.242700 0.970100 -0.000200
vn 0.825900 0.563900 -0.000100
vn 0.524300 -0.851500 0.000200
vn -0.311700 -0.950200 0.000200
vn 0.091800 -0.995800 0.000200
vn 0.672000 -0.740600 0.000100
vn 0.999000 0.044800 -0.000000
vn 0.999000 0.044700 -0.000000
vn 0.527800 0.849300 -0.000200
vn 0.734400 0.678700 -0.000100
vn 0.707100 -0.707100 0.000100
vn -0.707100 -0.707100 0.000100
s 1
f 1/1/1 2/2/1 3/3/1
f 2/2/1 4/4/1 3/3/1
f 2/2/1 5/5/1 4/4/1
f 1/1/1 6/6/1 2/2/1
f 1/1/1 7/7/1 6/6/1
f 1/1/1 8/8/1 7/7/1
f 8/8/1 9/9/1 7/7/1
f 10/10/1 9/9/1 8/8/1
f 10/10/1 11/11/1 9/9/1
f 12/12/1 11/11/1 10/10/1
f 13/13/1 14/14/1 15/15/1
f 16/16/1 11/11/1 12/12/1
f 13/13/1 16/16/1 14/14/1
f 13/13/1 11/11/1 16/16/1
f 13/13/1 17/17/1 11/11/1
f 18/18/1 17/17/1 13/13/1
f 19/19/2 20/20/2 21/21/2
f 22/22/2 19/19/2 21/21/2
f 23/23/2 19/19/2 22/22/2
f 24/24/2 20/20/2 19/19/2
f 25/25/2 20/20/2 24/24/2
f 26/26/2 20/20/2 25/25/2
f 27/27/2 26/26/2 25/25/2
f 27/27/2 28/28/2 26/26/2
f 29/29/2 28/28/2 27/27/2
f 29/29/2 30/30/2 28/28/2
f 31/31/2 32/32/2 33/33/2
f 29/29/2 34/34/2 30/30/2
f 34/34/2 32/32/2 31/31/2
f 29/29/2 32/32/2 34/34/2
f 35/35/2 32/32/2 29/29/2
f 35/35/2 36/36/2 32/32/2
f 37/37/3 38/38/3 39/39/4
f 40/40/5 41/41/5 38/42/3
f 40/43/5 42/44/6 43/45/6
f 44/46/7 45/47/7 43/45/6
f 46/48/8 47/49/8 45/50/7
f 48/51/9 49/52/9 47/49/8
f 48/51/9 50/53/10 51/54/10
f 52/55/11 53/38/11 51/56/10
f 54/57/12 55/58/12 53/59/11
f 54/57/12 56/60/13 57/61/13
f 58/54/14 59/53/14 57/61/13
f 60/62/15 61/63/16 59/64/14
f 62/65/17 63/66/17 61/63/16
f 64/67/18 65/37/18 63/68/17
f 66/69/19 67/50/19 65/70/18
f 68/71/20 69/72/20 67/69/19
f 70/73/4 71/74/4 69/75/20
f 72/76/4 39/64/4 71/77/4
f 72/78/4 37/37/3 39/39/4
f 37/67/3 40/40/5 38/42/3
f 41/79/5 40/43/5 43/45/6
f 42/44/6 44/46/7 43/45/6
f 44/69/7 46/48/8 45/50/7
f 46/48/8 48/51/9 47/49/8
f 49/52/9 48/51/9 51/54/10
f 50/75/10 52/55/11 51/56/10
f 52/80/11 54/57/12 53/59/11
f 55/58/12 54/57/12 57/61/13
f 56/60/13 58/54/14 57/61/13
f 58/42/14 60/62/15 59/64/14
f 60/62/15 62/65/17 61/63/16
f 62/81/17 64/67/18 63/68/17
f 64/46/18 66/69/19 65/70/18
f 66/82/19 68/71/20 67/69/19
f 68/56/20 70/73/4 69/75/20
f 70/83/4 72/76/4 71/77/4
