# Blender v2.76 (sub 0) OBJ File: ''
# www.blender.org
mtllib num6.mtl
o num6
v -0.130196 -0.147073 -0.052059
v 0.131679 -0.281199 -0.052083
v 0.072679 -0.356199 -0.052097
v 0.001679 -0.170823 -0.052063
v -0.077321 -0.031198 -0.052037
v -0.200321 0.101802 -0.052013
v -0.030571 -0.050448 -0.052041
v 0.166054 -0.002073 -0.052032
v 0.029679 -0.059198 -0.052043
v -0.043946 0.041302 -0.052024
v 0.009679 0.033802 -0.052026
v 0.090554 0.063802 -0.052020
v 0.220679 0.139802 -0.052006
v -0.098321 0.069802 -0.052019
v 0.122679 0.138802 -0.052006
v -0.078696 0.202302 -0.051995
v -0.139446 0.276802 -0.051981
v 0.092554 0.219927 -0.051991
v 0.161054 0.283427 -0.051980
v 0.013679 0.250802 -0.051986
v 0.019679 0.343802 -0.051969
v 0.131679 -0.281218 0.055917
v -0.130196 -0.147093 0.055941
v 0.072679 -0.356218 0.055903
v 0.001679 -0.170843 0.055937
v -0.077321 -0.031218 0.055963
v -0.200321 0.101782 0.055987
v 0.166054 -0.002093 0.055968
v -0.030571 -0.050468 0.055959
v 0.029679 -0.059218 0.055957
v -0.043946 0.041282 0.055976
v 0.009679 0.033782 0.055974
v 0.090554 0.063782 0.055980
v 0.220679 0.139782 0.055994
v -0.098321 0.069782 0.055981
v 0.122679 0.138782 0.055994
v -0.078696 0.202282 0.056005
v -0.139446 0.276782 0.056019
v 0.092554 0.219907 0.056009
v 0.161054 0.283407 0.056020
v 0.013679 0.250782 0.056014
v 0.019679 0.343782 0.056031
v -0.077321 -0.031198 -0.052037
v -0.077321 -0.031218 0.055963
v 0.001679 -0.170843 0.055937
v -0.030571 -0.050448 -0.052041
v -0.030571 -0.050468 0.055959
v 0.029679 -0.059198 -0.052043
v 0.029679 -0.059218 0.055957
v 0.166054 -0.002073 -0.052032
v 0.166054 -0.002093 0.055968
v 0.220679 0.139802 -0.052006
v 0.220679 0.139782 0.055994
v 0.161054 0.283427 -0.051980
v 0.161054 0.283407 0.056020
v 0.019679 0.343802 -0.051969
v 0.019679 0.343782 0.056031
v -0.139446 0.276802 -0.051981
v -0.139446 0.276782 0.056019
v -0.200321 0.101802 -0.052013
v -0.200321 0.101782 0.055987
v -0.130196 -0.147073 -0.052059
v -0.130196 -0.147093 0.055941
v 0.072679 -0.356199 -0.052097
v 0.072679 -0.356218 0.055903
v 0.131679 -0.281199 -0.052083
v 0.131679 -0.281218 0.055917
v 0.001679 -0.170823 -0.052063
v 0.122679 0.138802 -0.052006
v 0.122679 0.138782 0.055994
v 0.092554 0.219907 0.056009
v 0.090554 0.063802 -0.052020
v 0.090554 0.063782 0.055980
v 0.009679 0.033802 -0.052026
v 0.009679 0.033782 0.055974
v -0.043946 0.041302 -0.052024
v -0.043946 0.041282 0.055976
v -0.098321 0.069802 -0.052019
v -0.098321 0.069782 0.055981
v -0.078696 0.202302 -0.051995
v -0.078696 0.202282 0.056005
v 0.013679 0.250802 -0.051986
v 0.013679 0.250782 0.056014
v 0.092554 0.219927 -0.051991
vt 0.131085 0.522200
vt 0.441053 0.600911
vt 0.394974 0.688323
vt 0.277291 0.518075
vt 0.161394 0.395235
vt 0.000000 0.288310
vt 0.215670 0.404595
vt 0.414745 0.314715
vt 0.281993 0.400611
vt 0.180670 0.315734
vt 0.239635 0.311900
vt 0.319237 0.264835
vt 0.441053 0.161398
vt 0.116162 0.298740
vt 0.336614 0.183100
vt 0.107206 0.162185
vt 0.025504 0.100570
vt 0.286123 0.108395
vt 0.344945 0.030467
vt 0.194913 0.094204
vt 0.180324 0.000000
vt 0.882106 0.087413
vt 0.572138 0.166123
vt 0.836026 0.000000
vt 0.718344 0.170249
vt 0.602447 0.293089
vt 0.441053 0.400013
vt 0.855798 0.373608
vt 0.656722 0.283728
vt 0.723046 0.287712
vt 0.621723 0.372590
vt 0.680688 0.376423
vt 0.760290 0.423488
vt 0.882106 0.526926
vt 0.557215 0.389583
vt 0.777666 0.505223
vt 0.548259 0.526138
vt 0.466557 0.587753
vt 0.727176 0.579929
vt 0.785998 0.657856
vt 0.635966 0.594119
vt 0.621377 0.688323
vt 0.882106 0.531644
vt 1.000000 0.531644
vt 1.000000 0.682787
vt 0.639773 0.830031
vt 0.639773 0.940342
vt 0.589472 0.940342
vt 0.691846 0.830031
vt 0.691846 0.940342
vt 0.353683 0.821918
vt 0.235789 0.821918
vt 0.235789 0.688323
vt 0.353683 0.969245
vt 0.235789 0.969245
vt 0.117894 0.840233
vt 0.235789 0.840233
vt 0.235789 0.978238
vt 0.117894 0.688323
vt 0.000000 0.877458
vt 0.117894 0.877458
vt 0.117894 1.000000
vt 0.000000 0.688323
vt 0.882106 0.297567
vt 1.000000 0.297567
vt 0.882106 0.000000
vt 1.000000 0.000000
vt 0.707366 0.908946
vt 0.707367 0.798635
vt 0.811508 0.798635
vt 0.882106 0.682787
vt 1.000000 0.856800
vt 0.471578 0.688323
vt 0.589472 0.688323
vt 0.589472 0.769717
vt 0.707366 0.771609
vt 0.589472 0.771609
vt 0.707366 0.830031
vt 0.589472 0.830031
vt 0.758649 0.688323
vt 0.758649 0.798635
vt 0.824623 0.688323
vt 0.824623 0.798635
vt 0.471578 0.805531
vt 0.353683 0.805531
vt 0.353683 0.688323
vt 0.471578 0.903754
vt 0.353683 0.903754
vt 0.471578 0.769717
vt 0.589472 0.847933
vt 0.117894 0.978238
vt 0.000000 1.000000
vt 0.811508 0.908946
vt 0.882106 0.856800
vt 0.707366 0.688323
vt 0.471578 0.847933
vn 0.000000 0.000200 -1.000000
vn -0.000000 0.000000 -1.000000
vn -0.000000 -0.000200 1.000000
vn 0.000000 -0.000000 1.000000
vn 0.749700 -0.661800 -0.000100
vn 0.770700 0.637200 0.000100
vn -0.264200 -0.964500 -0.000200
vn 0.125900 -0.992000 -0.000200
vn 0.717300 -0.696700 -0.000100
vn 0.999900 0.013000 0.000000
vn 0.710700 0.703500 0.000100
vn 0.002500 1.000000 0.000200
vn -0.729300 0.684200 0.000100
vn -0.999500 0.030100 0.000000
vn -0.866600 -0.499000 -0.000100
vn 0.051800 -0.998700 -0.000200
vn 0.995000 0.100000 0.000000
vn -0.999700 0.024600 0.000000
vn -0.713300 -0.700900 -0.000100
vn -0.689400 0.724400 0.000100
vn -0.107900 0.994200 0.000200
vn 0.305900 0.952100 0.000200
vn 0.891300 0.453300 0.000100
vn 0.815500 -0.578700 -0.000100
vn 0.055200 -0.998500 -0.000200
usemtl None
s 1
f 1/1/1 2/2/1 3/3/1
f 1/1/1 4/4/1 2/2/1
f 1/1/1 5/5/1 4/4/1
f 6/6/1 5/5/1 1/1/1
f 7/7/1 8/8/1 9/9/1
f 5/5/1 8/8/1 7/7/1
f 6/6/1 10/10/1 5/5/1
f 10/10/1 8/8/1 5/5/1
f 10/10/1 11/11/2 8/8/1
f 11/11/2 12/12/1 8/8/1
f 12/12/1 13/13/1 8/8/1
f 6/6/1 14/14/1 10/10/1
f 15/15/1 13/13/1 12/12/1
f 6/6/1 16/16/1 14/14/1
f 17/17/1 16/16/1 6/6/1
f 18/18/1 13/13/1 15/15/1
f 18/18/1 19/19/1 13/13/1
f 17/17/1 20/20/1 16/16/1
f 20/20/1 19/19/1 18/18/1
f 17/17/1 19/19/1 20/20/1
f 21/21/1 19/19/1 17/17/1
f 22/22/3 23/23/3 24/24/3
f 25/25/3 23/23/3 22/22/3
f 26/26/3 23/23/3 25/25/3
f 26/26/3 27/27/3 23/23/3
f 28/28/3 29/29/3 30/30/3
f 28/28/3 26/26/3 29/29/3
f 31/31/3 27/27/3 26/26/3
f 28/28/3 31/31/3 26/26/3
f 32/32/4 31/31/3 28/28/3
f 33/33/3 32/32/4 28/28/3
f 34/34/3 33/33/3 28/28/3
f 35/35/3 27/27/3 31/31/3
f 34/34/3 36/36/3 33/33/3
f 37/37/3 27/27/3 35/35/3
f 37/37/3 38/38/3 27/27/3
f 34/34/3 39/39/3 36/36/3
f 40/40/3 39/39/3 34/34/3
f 41/41/3 38/38/3 37/37/3
f 40/40/3 41/41/3 39/39/3
f 40/40/3 38/38/3 41/41/3
f 40/40/3 42/42/3 38/38/3
f 43/43/5 44/44/5 45/45/6
f 46/46/7 47/47/7 44/48/5
f 48/49/8 49/50/8 47/47/7
f 50/51/9 51/52/9 49/53/8
f 52/54/10 53/55/10 51/52/9
f 54/56/11 55/57/11 53/58/10
f 54/56/11 56/59/12 57/53/12
f 58/60/13 59/61/13 57/62/12
f 58/60/13 60/63/14 61/59/14
f 62/64/15 63/65/15 61/44/14
f 62/64/15 64/66/16 65/67/16
f 66/68/17 67/69/17 65/70/16
f 68/71/6 45/45/6 67/72/17
f 69/73/18 70/74/18 71/75/19
f 72/76/20 73/77/20 70/74/18
f 74/78/21 75/79/21 73/77/20
f 76/80/22 77/81/22 75/69/21
f 76/80/22 78/82/23 79/83/23
f 80/84/24 81/85/24 79/86/23
f 82/87/25 83/88/25 81/85/24
f 84/89/19 71/75/19 83/90/25
f 68/71/6 43/43/5 45/45/6
f 43/79/5 46/46/7 44/48/5
f 46/46/7 48/49/8 47/47/7
f 48/86/8 50/51/9 49/53/8
f 50/51/9 52/54/10 51/52/9
f 52/91/10 54/56/11 53/58/10
f 55/57/11 54/56/11 57/53/12
f 56/92/12 58/60/13 57/62/12
f 59/61/13 58/60/13 61/59/14
f 60/43/14 62/64/15 61/44/14
f 63/65/15 62/64/15 65/67/16
f 64/93/16 66/68/17 65/70/16
f 66/94/17 68/71/6 67/72/17
f 84/89/19 69/73/18 71/75/19
f 69/95/18 72/76/20 70/74/18
f 72/76/20 74/78/21 73/77/20
f 74/95/21 76/80/22 75/69/21
f 77/81/22 76/80/22 79/83/23
f 78/73/23 80/84/24 79/86/23
f 80/84/24 82/87/25 81/85/24
f 82/96/25 84/89/19 83/90/25
