# Blender v2.73 (sub 7) OBJ File: 'nums.blend'
# www.blender.org
v -0.148821 -0.287676 0.050979
v -0.212321 -0.149801 0.051004
v -0.188196 -0.055551 0.051022
v -0.115321 0.013199 0.051034
v -0.174946 0.078824 0.051046
v -0.196321 0.160199 0.051061
v -0.136446 0.300199 0.051087
v 0.012679 0.356199 0.051097
v 0.156304 0.299574 0.051087
v 0.213679 0.158199 0.051061
v 0.192929 0.080824 0.051047
v 0.128679 0.013199 0.051034
v 0.199804 -0.055301 0.051022
v 0.223679 -0.150801 0.051004
v 0.161429 -0.288176 0.050979
v 0.007679 -0.343801 0.050969
v -0.068196 0.235574 0.051075
v -0.098321 0.162199 0.051062
v -0.066571 0.089199 0.051048
v 0.008679 0.058199 0.051042
v 0.084304 0.088574 0.051048
v 0.115679 0.160199 0.051061
v 0.086054 0.233824 0.051075
v 0.010679 0.263199 0.051080
v -0.081071 -0.064801 0.051020
v -0.114321 -0.142801 0.051006
v -0.080571 -0.220426 0.050991
v 0.005679 -0.250801 0.050986
v 0.095304 -0.218176 0.050992
v 0.125679 -0.142801 0.051006
v 0.092554 -0.065551 0.051020
v 0.007679 -0.034801 0.051025
v -0.148821 -0.287657 -0.055021
v -0.212321 -0.149782 -0.054996
v -0.188196 -0.055532 -0.054978
v -0.115321 0.013218 -0.054966
v -0.174946 0.078843 -0.054954
v -0.196321 0.160218 -0.054939
v -0.136446 0.300218 -0.054913
v 0.012679 0.356218 -0.054903
v 0.156304 0.299593 -0.054913
v 0.213679 0.158218 -0.054939
v 0.192929 0.080843 -0.054953
v 0.128679 0.013218 -0.054966
v 0.199804 -0.055282 -0.054978
v 0.223679 -0.150782 -0.054996
v 0.161429 -0.288157 -0.055021
v 0.007679 -0.343782 -0.055031
v -0.068196 0.235593 -0.054925
v -0.098321 0.162218 -0.054938
v -0.066571 0.089218 -0.054952
v 0.008679 0.058218 -0.054958
v 0.084304 0.088593 -0.054952
v 0.115679 0.160218 -0.054939
v 0.086054 0.233843 -0.054925
v 0.010679 0.263218 -0.054920
v -0.081071 -0.064782 -0.054980
v -0.114321 -0.142782 -0.054994
v -0.080571 -0.220407 -0.055009
v 0.005679 -0.250782 -0.055014
v 0.095304 -0.218157 -0.055008
v 0.125679 -0.142782 -0.054994
v 0.092554 -0.065532 -0.054980
v 0.007679 -0.034782 -0.054975
v -0.148821 -0.287657 -0.055021
v -0.148821 -0.287676 0.050979
v -0.212321 -0.149782 -0.054996
v -0.212321 -0.149801 0.051004
v -0.188196 -0.055532 -0.054978
v -0.188196 -0.055551 0.051022
v -0.115321 0.013218 -0.054966
v -0.115321 0.013199 0.051034
v -0.174946 0.078843 -0.054954
v -0.174946 0.078824 0.051046
v -0.196321 0.160218 -0.054939
v -0.196321 0.160199 0.051061
v -0.136446 0.300218 -0.054913
v -0.136446 0.300199 0.051087
v 0.012679 0.356218 -0.054903
v 0.012679 0.356199 0.051097
v 0.156304 0.299593 -0.054913
v 0.156304 0.299574 0.051087
v 0.213679 0.158218 -0.054939
v 0.213679 0.158199 0.051061
v 0.192929 0.080843 -0.054953
v 0.192929 0.080824 0.051047
v 0.128679 0.013218 -0.054966
v 0.128679 0.013199 0.051034
v 0.199804 -0.055282 -0.054978
v 0.199804 -0.055301 0.051022
v 0.223679 -0.150782 -0.054996
v 0.223679 -0.150801 0.051004
v 0.161429 -0.288157 -0.055021
v 0.161429 -0.288176 0.050979
v 0.007679 -0.343782 -0.055031
v 0.007679 -0.343801 0.050969
v -0.068196 0.235593 -0.054925
v -0.068196 0.235574 0.051075
v -0.098321 0.162218 -0.054938
v -0.098321 0.162199 0.051062
v -0.066571 0.089218 -0.054952
v -0.066571 0.089199 0.051048
v 0.008679 0.058218 -0.054958
v 0.008679 0.058199 0.051042
v 0.084304 0.088593 -0.054952
v 0.084304 0.088574 0.051048
v 0.115679 0.160218 -0.054939
v 0.115679 0.160199 0.051061
v 0.086054 0.233843 -0.054925
v 0.086054 0.233824 0.051075
v 0.010679 0.263218 -0.054920
v 0.010679 0.263199 0.051080
v -0.081071 -0.064782 -0.054980
v -0.081071 -0.064801 0.051020
v -0.114321 -0.142782 -0.054994
v -0.114321 -0.142801 0.051006
v -0.080571 -0.220407 -0.055009
v -0.080571 -0.220426 0.050991
v 0.005679 -0.250782 -0.055014
v 0.005679 -0.250801 0.050986
v 0.095304 -0.218157 -0.055008
v 0.095304 -0.218176 0.050992
v 0.125679 -0.142782 -0.054994
v 0.125679 -0.142801 0.051006
v 0.092554 -0.065532 -0.054980
v 0.092554 -0.065551 0.051020
v 0.007679 -0.034782 -0.054975
v 0.007679 -0.034801 0.051025
vt 0.391929 0.064407
vt 0.092635 0.049760
vt 0.242442 0.000000
vt 0.445749 0.209091
vt 0.318752 0.126190
vt 0.239580 0.094141
vt 0.160979 0.119909
vt 0.026525 0.189716
vt 0.345675 0.201955
vt 0.126810 0.192809
vt 0.309368 0.274111
vt 0.419605 0.290258
vt 0.155104 0.266869
vt 0.043655 0.269037
vt 0.230808 0.301529
vt 0.105765 0.340768
vt 0.355192 0.353502
vt 0.426060 0.426821
vt 0.226924 0.395618
vt 0.029445 0.406320
vt 0.316065 0.430584
vt 0.138539 0.422281
vt 0.000000 0.501638
vt 0.445749 0.523381
vt 0.345939 0.511188
vt 0.100602 0.498663
vt 0.307343 0.587917
vt 0.127675 0.576463
vt 0.373562 0.659478
vt 0.056386 0.643792
vt 0.217572 0.614129
vt 0.210621 0.708061
vt 0.538385 0.658300
vt 0.837678 0.643654
vt 0.688191 0.708061
vt 0.764501 0.581871
vt 0.891498 0.498970
vt 0.685329 0.613920
vt 0.606728 0.588152
vt 0.472275 0.518344
vt 0.791424 0.506106
vt 0.572560 0.515252
vt 0.755117 0.433950
vt 0.865354 0.417803
vt 0.600853 0.441192
vt 0.489404 0.439024
vt 0.676558 0.406532
vt 0.551515 0.367293
vt 0.800941 0.354559
vt 0.871809 0.281239
vt 0.672673 0.312443
vt 0.475194 0.301741
vt 0.761814 0.277477
vt 0.584288 0.285780
vt 0.445749 0.206423
vt 0.891498 0.184680
vt 0.791688 0.196873
vt 0.546351 0.209398
vt 0.753092 0.120144
vt 0.573424 0.131598
vt 0.819312 0.048583
vt 0.502136 0.064269
vt 0.663321 0.093932
vt 0.656370 0.000000
vt 0.891498 0.683093
vt 1.000000 0.683093
vt 1.000000 0.803871
vt 0.108502 0.802897
vt 0.217003 0.802897
vt 0.217003 0.899414
vt 0.108502 0.708061
vt 0.217003 0.708061
vt 0.410421 0.865775
vt 0.410421 0.973099
vt 0.325505 0.973099
vt 0.891498 0.618414
vt 1.000000 0.618414
vt 0.891498 0.464420
vt 1.000000 0.464420
vt 0.891498 0.347497
vt 1.000000 0.347497
vt 0.108502 0.863721
vt 0.000000 0.863721
vt 0.000000 0.708061
vt 0.108502 0.980026
vt 0.000000 0.980026
vt 0.217003 0.877651
vt 0.217003 0.797928
vt 0.325505 0.797928
vt 0.325505 0.708061
vt 0.434007 0.864209
vt 0.530579 0.864209
vt 0.530579 0.971533
vt 0.891498 0.270765
vt 1.000000 0.270765
vt 0.891498 0.118096
vt 1.000000 0.118096
vt 0.891498 0.000000
vt 1.000000 0.000000
vt 0.891498 0.803871
vt 1.000000 0.970827
vt 0.651010 1.000000
vt 0.542508 1.000000
vt 0.542508 0.919824
vt 0.759512 0.852199
vt 0.759511 0.790224
vt 0.868013 0.790224
vt 0.759511 0.708061
vt 0.868013 0.708061
vt 0.651010 0.938591
vt 0.759511 0.938591
vt 0.759511 0.999686
vt 0.651010 0.859479
vt 0.759511 0.859479
vt 0.868013 0.912832
vt 0.759512 0.912832
vt 0.868013 0.994323
vt 0.759512 0.994323
vt 0.651010 0.919824
vt 0.542508 0.860071
vt 0.542508 0.708061
vt 0.651010 0.708061
vt 0.651010 0.793827
vt 0.325505 0.865775
vt 0.325505 0.799884
vt 0.434007 0.799884
vt 0.434007 0.708061
vt 0.759511 0.777393
vt 0.651010 0.777393
vt 0.434007 0.798750
vt 0.542508 0.798750
vt 0.542508 0.864209
vt 0.542508 0.793827
vt 0.651010 0.860071
vt 0.108502 0.899414
vt 0.325505 0.877651
vt 0.434007 0.971533
vt 0.891498 0.970827
vt 0.868013 0.852199
vt 0.651010 0.999686
vt 0.434007 0.865775
vn 0.000000 -0.000200 1.000000
vn 0.000000 0.000200 -1.000000
vn -0.995900 -0.090400 0.000000
vn -0.675600 -0.737300 -0.000100
vn -0.861500 0.507700 0.000100
vn -0.999200 0.038500 0.000000
vn -0.878900 -0.476900 -0.000100
vn -0.997300 0.073500 0.000000
vn -0.691000 0.722800 0.000100
vn 0.008100 0.999900 0.000200
vn 0.703500 0.710600 0.000100
vn 0.998100 0.061700 0.000000
vn 0.872300 -0.489000 -0.000100
vn 0.999700 0.022200 0.000000
vn 0.865500 0.500800 0.000100
vn 0.995900 -0.090100 0.000000
vn 0.678900 -0.734200 -0.000100
vn 0.001400 -1.000000 -0.000200
vn 0.999900 0.010300 0.000000
vn 0.688200 -0.725500 -0.000100
vn 0.700200 0.714000 0.000100
vn 0.004400 1.000000 0.000200
vn -0.696100 0.717900 0.000100
vn -0.999900 0.015100 0.000000
vn -0.703200 -0.711000 -0.000100
vn -0.017300 -0.999800 -0.000200
vn 1.000000 0.003600 0.000000
vn 0.679300 -0.733800 -0.000100
vn 0.681400 0.731900 0.000100
vn -0.005200 1.000000 0.000200
vn -0.695000 0.719000 0.000100
vn -0.999900 -0.011000 0.000000
vn -0.686500 -0.727100 -0.000100
vn -0.010800 -0.999900 -0.000200
s 1
f 7/1/1 9/2/1 8/3/1
f 6/4/1 17/5/1 7/1/1
f 17/5/1 24/6/1 7/1/1
f 24/6/1 9/2/1 7/1/1
f 24/6/1 23/7/1 9/2/1
f 23/7/1 10/8/1 9/2/1
f 6/4/1 18/9/1 17/5/1
f 22/10/1 10/8/1 23/7/1
f 6/4/1 19/11/1 18/9/1
f 5/12/1 19/11/1 6/4/1
f 21/13/1 10/8/1 22/10/1
f 21/13/1 11/14/1 10/8/1
f 5/12/1 20/15/1 19/11/1
f 20/15/1 11/14/1 21/13/1
f 20/15/1 12/16/1 11/14/1
f 4/17/1 20/15/1 5/12/1
f 4/17/1 12/16/1 20/15/1
f 3/18/1 12/16/1 4/17/1
f 3/18/1 32/19/1 12/16/1
f 32/19/1 13/20/1 12/16/1
f 3/18/1 25/21/1 32/19/1
f 31/22/1 13/20/1 32/19/1
f 31/22/1 14/23/1 13/20/1
f 2/24/1 25/21/1 3/18/1
f 2/24/1 26/25/1 25/21/1
f 30/26/1 14/23/1 31/22/1
f 2/24/1 27/27/1 26/25/1
f 29/28/1 14/23/1 30/26/1
f 1/29/1 27/27/1 2/24/1
f 29/28/1 15/30/1 14/23/1
f 28/31/1 15/30/1 29/28/1
f 1/29/1 28/31/1 27/27/1
f 1/29/1 15/30/1 28/31/1
f 16/32/1 15/30/1 1/29/1
f 41/33/2 39/34/2 40/35/2
f 49/36/2 38/37/2 39/34/2
f 56/38/2 49/36/2 39/34/2
f 41/33/2 56/38/2 39/34/2
f 55/39/2 56/38/2 41/33/2
f 42/40/2 55/39/2 41/33/2
f 50/41/2 38/37/2 49/36/2
f 42/40/2 54/42/2 55/39/2
f 51/43/2 38/37/2 50/41/2
f 51/43/2 37/44/2 38/37/2
f 42/40/2 53/45/2 54/42/2
f 43/46/2 53/45/2 42/40/2
f 52/47/2 37/44/2 51/43/2
f 43/46/2 52/47/2 53/45/2
f 44/48/2 52/47/2 43/46/2
f 52/47/2 36/49/2 37/44/2
f 44/48/2 36/49/2 52/47/2
f 44/48/2 35/50/2 36/49/2
f 64/51/2 35/50/2 44/48/2
f 45/52/2 64/51/2 44/48/2
f 57/53/2 35/50/2 64/51/2
f 45/52/2 63/54/2 64/51/2
f 46/55/2 63/54/2 45/52/2
f 57/53/2 34/56/2 35/50/2
f 58/57/2 34/56/2 57/53/2
f 46/55/2 62/58/2 63/54/2
f 59/59/2 34/56/2 58/57/2
f 46/55/2 61/60/2 62/58/2
f 59/59/2 33/61/2 34/56/2
f 47/62/2 61/60/2 46/55/2
f 47/62/2 60/63/2 61/60/2
f 60/63/2 33/61/2 59/59/2
f 47/62/2 33/61/2 60/63/2
f 47/62/2 48/64/2 33/61/2
f 68/65/3 67/66/3 65/67/4
f 70/68/5 69/69/5 67/70/3
f 72/71/6 71/72/6 69/69/5
f 74/73/7 73/74/7 71/75/6
f 76/76/8 75/77/8 73/66/7
f 78/78/9 77/79/9 75/77/8
f 78/78/9 80/80/10 79/81/10
f 82/82/11 81/83/11 79/84/10
f 84/85/12 83/86/12 81/83/11
f 84/87/12 86/88/13 85/89/13
f 86/88/13 88/72/14 87/90/14
f 88/91/14 90/92/15 89/93/15
f 92/94/16 91/95/16 89/81/15
f 92/94/16 94/96/17 93/97/17
f 96/98/18 95/99/18 93/97/17
f 66/100/4 65/67/4 95/101/18
f 100/102/19 99/103/19 97/104/20
f 100/105/19 102/106/21 101/107/21
f 102/106/21 104/108/22 103/109/22
f 106/110/23 105/111/23 103/112/22
f 108/113/24 107/114/24 105/111/23
f 110/115/25 109/116/25 107/105/24
f 110/115/25 112/117/26 111/118/26
f 98/119/20 97/104/20 111/120/26
f 116/121/27 115/122/27 113/123/28
f 116/124/27 118/125/29 117/126/29
f 120/90/30 119/127/30 117/126/29
f 120/108/30 122/128/31 121/129/31
f 124/114/32 123/113/32 121/129/31
f 126/130/33 125/131/33 123/132/32
f 128/127/34 127/121/34 125/131/33
f 114/133/28 113/123/28 127/134/34
f 66/100/4 68/65/3 65/67/4
f 68/135/3 70/68/5 67/70/3
f 70/68/5 72/71/6 69/69/5
f 72/124/6 74/73/7 71/75/6
f 74/65/7 76/76/8 73/66/7
f 76/76/8 78/78/9 75/77/8
f 77/79/9 78/78/9 79/81/10
f 80/71/10 82/82/11 79/84/10
f 82/82/11 84/85/12 81/83/11
f 83/136/12 84/87/12 85/89/13
f 85/89/13 86/88/13 87/90/14
f 87/137/14 88/91/14 89/93/15
f 90/80/15 92/94/16 89/81/15
f 91/95/16 92/94/16 93/97/17
f 94/96/17 96/98/18 93/97/17
f 96/138/18 66/100/4 95/101/18
f 98/119/20 100/102/19 97/104/20
f 99/139/19 100/105/19 101/107/21
f 101/107/21 102/106/21 103/109/22
f 104/140/22 106/110/23 103/112/22
f 106/110/23 108/113/24 105/111/23
f 108/139/24 110/115/25 107/105/24
f 109/116/25 110/115/25 111/118/26
f 112/134/26 98/119/20 111/120/26
f 114/133/28 116/121/27 113/123/28
f 115/141/27 116/124/27 117/126/29
f 118/125/29 120/90/30 117/126/29
f 119/122/30 120/108/30 121/129/31
f 122/128/31 124/114/32 121/129/31
f 124/91/32 126/130/33 123/132/32
f 126/130/33 128/127/34 125/131/33
f 128/120/34 114/133/28 127/134/34
