# Blender v2.73 (sub 7) OBJ File: 'palm.blend'
# www.blender.org
v 1.080890 61.745033 -3.664728
v 1.240480 68.688095 -3.570955
v 3.680380 68.555122 -3.361685
v 2.983050 61.657867 -3.409608
v 0.965530 58.684917 -2.177570
v 4.590170 61.441662 -2.409248
v 3.377990 58.521446 -1.461300
v 5.239850 61.068501 -0.629658
v 3.918700 58.259380 0.900000
v 5.121170 60.661541 1.217302
v 6.385680 67.758530 1.908585
v 6.093550 68.044678 -0.193625
v 5.155520 68.324707 -1.975715
v 2.973710 60.075539 5.652582
v 0.968330 58.069313 3.831270
v 3.164110 58.063263 3.089810
v 4.470500 60.155376 4.590171
v 5.232500 60.324421 3.070782
v 6.094750 67.482750 4.011765
v 5.157740 67.285355 5.802785
v 3.395800 67.193420 6.996985
v 1.243630 67.218231 7.429515
v 1.071620 60.127728 5.822231
v -0.872860 67.141541 7.014155
v -4.294100 68.001282 1.562075
v -3.344220 60.631660 1.254262
v -2.917080 60.363262 2.605212
v -3.852620 67.832840 3.281685
v -0.596950 60.257233 5.338582
v -2.712010 67.527756 5.214396
v -1.228210 58.243042 2.936260
v -1.903990 60.511360 3.945332
v -0.780890 61.780243 -3.375078
v -0.875960 68.670097 -3.299555
v -2.317880 61.421303 -2.103638
v -1.230170 58.673103 -1.261490
v -3.177280 61.032021 -0.593408
v -2.138810 58.482658 0.929050
v -2.673630 68.620949 -2.386265
v -4.337990 68.267044 -0.542235
v -2.458120 56.264118 0.656469
v -1.476200 55.987732 3.009019
v -1.478450 56.469154 -1.705371
v -2.247850 30.157541 -0.904974
v -1.428080 30.148432 1.063986
v -1.435300 30.179850 -2.876824
v 0.533620 30.202721 -3.682694
v 0.888990 56.484039 -2.692801
v 3.257220 56.295429 -1.727981
v 2.505510 30.211121 -2.883814
v 3.325290 30.201252 -0.914864
v 4.239070 56.017189 0.624349
v 2.512750 30.179220 1.056996
v 3.259430 55.812828 2.986269
v 0.543830 30.157598 1.876676
v 0.892110 55.801250 3.974109
v -3.389630 -0.351458 -3.181300
v -3.214620 0.150188 3.523390
v -5.033270 -0.220300 0.217490
v 0.026820 -0.135518 -4.380870
v 0.000000 0.150187 4.854920
v 3.214640 0.150188 3.523390
v 3.551100 -0.145178 -3.268030
v 4.546170 0.150190 0.308750
v 0.033170 4.180461 -2.966968
v -2.337400 4.273652 -2.023308
v -3.318350 4.407930 0.344952
v -2.335120 4.502869 2.714172
v 0.036400 4.502868 3.696492
v 2.404650 4.178700 -2.021018
v 3.387900 4.273650 0.348202
v 2.406950 4.407928 2.716462
vt 0.995605 0.824097
vt 0.995605 0.928101
vt 0.963867 0.928101
vt 0.963867 0.824097
vt 0.995605 0.756714
vt 0.934082 0.824097
vt 0.934082 0.756714
vt 0.903320 0.822510
vt 0.872559 0.756714
vt 0.872559 0.819214
vt 0.872559 0.928101
vt 0.903320 0.928101
vt 0.934082 0.928101
vt 0.777832 0.819214
vt 0.745117 0.756714
vt 0.810059 0.756714
vt 0.810059 0.819214
vt 0.841309 0.819214
vt 0.841309 0.928101
vt 0.810059 0.928101
vt 0.777832 0.928101
vt 0.745117 0.928101
vt 0.745117 0.819214
vt 0.713379 0.928101
vt 0.618164 0.928101
vt 0.618164 0.819214
vt 0.649414 0.819214
vt 0.649414 0.928101
vt 0.713379 0.819214
vt 0.681152 0.928101
vt 0.681152 0.756714
vt 0.681152 0.819214
vt 0.529297 0.824097
vt 0.529297 0.928101
vt 0.499023 0.928101
vt 0.558105 0.824097
vt 0.558105 0.756714
vt 0.588379 0.819214
vt 0.618164 0.756714
vt 0.499023 0.824097
vt 0.499023 0.756714
vt 0.558105 0.928101
vt 0.588379 0.928101
vt 0.112061 0.905945
vt 0.173096 0.905945
vt 0.173096 0.994400
vt 0.112061 0.994400
vt 0.057190 0.905945
vt 0.057190 0.994400
vt 0.112061 0.268066
vt 0.173096 0.268066
vt 0.057190 0.268066
vt 0.005398 0.268066
vt 0.005398 0.905945
vt 0.005398 0.994400
vt 0.495117 0.268066
vt 0.495117 0.905945
vt 0.427002 0.905945
vt 0.427002 0.268066
vt 0.360107 0.268066
vt 0.360107 0.905945
vt 0.300781 0.268066
vt 0.300781 0.905945
vt 0.234131 0.268066
vt 0.234131 0.905945
vt 0.234131 0.994400
vt 0.300781 0.994400
vt 0.360107 0.994400
vt 0.427002 0.994400
vt 0.495117 0.994400
vt 0.932129 0.682129
vt 0.971191 0.682129
vt 0.951660 0.690186
vt 0.924316 0.662598
vt 0.979492 0.662598
vt 0.971191 0.643066
vt 0.932129 0.643066
vt 0.951660 0.635010
vt 0.057190 0.711426
vt 0.005398 0.711426
vt 0.005398 0.063477
vt 0.057190 0.063477
vt 0.005398 0.001953
vt 0.057190 0.001953
vt 0.112061 0.063477
vt 0.112061 0.001953
vt 0.173096 0.063477
vt 0.173096 0.001953
vt 0.234131 0.063477
vt 0.234131 0.001953
vt 0.173096 0.711426
vt 0.112061 0.711426
vt 0.427002 0.063477
vt 0.495117 0.063477
vt 0.495117 0.711426
vt 0.427002 0.711426
vt 0.360107 0.063477
vt 0.360107 0.711426
vt 0.300781 0.063477
vt 0.300781 0.711426
vt 0.234131 0.711426
vt 0.300781 0.001953
vt 0.360107 0.001953
vt 0.427002 0.001953
vt 0.495117 0.001953
vn -0.037100 -0.233000 -0.971800
vn -0.023000 0.011000 -0.999700
vn 0.409100 -0.029200 -0.912000
vn 0.328500 -0.259600 -0.908100
vn -0.047500 -0.145500 -0.988200
vn 0.701700 -0.264000 -0.661700
vn 0.671800 -0.233200 -0.703000
vn 0.929400 -0.302000 -0.212000
vn 0.969600 -0.243400 0.023300
vn 0.952700 -0.299800 -0.050100
vn 0.988000 -0.153800 -0.008700
vn 0.947400 -0.081100 -0.309700
vn 0.778900 -0.047800 -0.625300
vn 0.313200 -0.472000 0.824000
vn -0.062200 -0.396700 0.915800
vn 0.681300 -0.418300 0.600700
vn 0.703400 -0.442200 0.556400
vn 0.906300 -0.388100 0.167000
vn 0.949200 -0.171800 0.263300
vn 0.743800 -0.182800 0.642900
vn 0.383300 -0.195600 0.902600
vn 0.000200 -0.208800 0.977900
vn -0.100400 -0.467300 0.878400
vn -0.469100 -0.214800 0.856600
vn -0.984000 -0.135000 0.115800
vn -0.941400 -0.331800 0.060300
vn -0.845800 -0.375000 0.379400
vn -0.917700 -0.161800 0.362700
vn -0.488400 -0.422200 0.763700
vn -0.794400 -0.191500 0.576300
vn -0.706900 -0.281000 0.649100
vn -0.737100 -0.310900 0.600000
vn -0.366900 -0.237000 -0.899500
vn -0.311800 -0.019600 -0.949900
vn -0.707300 -0.239700 -0.665000
vn -0.681400 -0.175000 -0.710700
vn -0.884400 -0.300500 -0.357100
vn -0.972600 -0.232000 0.016400
vn -0.605100 -0.081300 -0.792000
vn -0.912200 -0.130300 -0.388500
vn -0.997500 0.070000 0.003800
vn -0.702600 0.021300 0.711200
vn -0.703500 0.123200 -0.700000
vn -0.999800 0.016800 -0.011400
vn -0.712100 0.008400 0.702000
vn -0.699100 0.015200 -0.714800
vn -0.001300 0.005500 -1.000000
vn -0.002200 0.132700 -0.991100
vn 0.690300 0.044900 -0.722100
vn 0.697400 -0.007200 -0.716600
vn 0.999700 -0.016500 -0.015200
vn 0.999500 0.026600 0.015500
vn 0.715500 -0.016000 0.698400
vn 0.715700 -0.029700 0.697700
vn 0.002600 -0.005400 1.000000
vn -0.006800 -0.019700 0.999800
vn -0.554900 -0.554100 -0.620500
vn -0.565200 -0.513800 0.645300
vn -0.854500 -0.518700 0.026600
vn -0.008700 -0.526700 -0.850000
vn -0.000500 -0.519300 0.854500
vn 0.602700 -0.514600 0.609800
vn 0.629400 -0.498100 -0.596400
vn 0.880800 -0.470900 0.048600
vn -0.007700 0.161600 -0.986800
vn -0.691100 0.169100 -0.702700
vn -0.980200 0.197800 -0.005100
vn -0.686900 0.182400 0.703400
vn 0.001400 0.167400 0.985900
vn 0.703100 0.168900 -0.690700
vn 0.990000 0.141300 0.002000
vn 0.698400 0.154200 0.698900
s 1
f 1/1/1 2/2/2 3/3/3
f 4/4/4 1/1/1 3/3/3
f 5/5/5 1/1/1 4/4/4
f 5/5/5 4/4/4 6/6/6
f 6/6/6 7/7/7 5/5/5
f 7/7/7 6/6/6 8/8/8
f 8/8/8 9/9/9 7/7/7
f 9/9/9 8/8/8 10/10/10
f 11/11/11 10/10/10 8/8/8
f 8/8/8 12/12/12 11/11/11
f 12/12/12 8/8/8 6/6/6
f 6/6/6 13/13/13 12/12/12
f 13/13/13 6/6/6 4/4/4
f 4/4/4 3/3/3 13/13/13
f 14/14/14 15/15/15 16/16/16
f 16/16/16 17/17/17 14/14/14
f 17/17/17 16/16/16 9/9/9
f 9/9/9 18/18/18 17/17/17
f 9/9/9 10/10/10 18/18/18
f 19/19/19 18/18/18 10/10/10
f 10/10/10 11/11/11 19/19/19
f 18/18/18 19/19/19 20/20/20
f 20/20/20 17/17/17 18/18/18
f 17/17/17 20/20/20 21/21/21
f 21/21/21 14/14/14 17/17/17
f 14/14/14 21/21/21 22/22/22
f 22/22/22 23/23/23 14/14/14
f 23/23/23 22/22/22 24/24/24
f 25/25/25 26/26/26 27/27/27
f 27/27/27 28/28/28 25/25/25
f 29/29/29 24/24/24 30/30/30
f 24/24/24 29/29/29 23/23/23
f 15/15/15 23/23/23 29/29/29
f 15/15/15 14/14/14 23/23/23
f 29/29/29 31/31/31 15/15/15
f 31/31/31 29/29/29 32/32/32
f 30/30/30 32/32/32 29/29/29
f 32/32/32 30/30/30 28/28/28
f 28/28/28 27/27/27 32/32/32
f 31/31/31 32/32/32 27/27/27
f 33/33/33 34/34/34 2/35/2
f 34/34/34 33/33/33 35/36/35
f 36/37/36 35/36/35 33/33/33
f 36/37/36 37/38/37 35/36/35
f 37/38/37 36/37/36 38/39/38
f 38/39/38 26/26/26 37/38/37
f 26/26/26 38/39/38 31/31/31
f 31/31/31 27/27/27 26/26/26
f 1/40/1 5/41/5 36/37/36
f 33/33/33 1/40/1 36/37/36
f 2/35/2 1/40/1 33/33/33
f 35/36/35 39/42/39 34/34/34
f 39/42/39 35/36/35 37/38/37
f 37/38/37 40/43/40 39/42/39
f 40/43/40 37/38/37 26/26/26
f 26/26/26 25/25/25 40/43/40
f 41/44/41 42/45/42 31/46/31
f 31/46/31 38/47/38 41/44/41
f 43/48/43 41/44/41 38/47/38
f 38/47/38 36/49/36 43/48/43
f 44/50/44 45/51/45 42/45/42
f 42/45/42 41/44/41 44/50/44
f 46/52/46 44/50/44 41/44/41
f 41/44/41 43/48/43 46/52/46
f 47/53/47 46/52/46 43/48/43
f 43/48/43 48/54/48 47/53/47
f 48/54/48 43/48/43 36/49/36
f 36/49/36 5/55/5 48/54/48
f 47/56/47 48/57/48 49/58/49
f 49/58/49 50/59/50 47/56/47
f 51/60/51 50/59/50 49/58/49
f 49/58/49 52/61/52 51/60/51
f 53/62/53 51/60/51 52/61/52
f 52/61/52 54/63/54 53/62/53
f 55/64/55 53/62/53 54/63/54
f 54/63/54 56/65/56 55/64/55
f 45/51/45 55/64/55 56/65/56
f 56/65/56 42/45/42 45/51/45
f 15/66/15 31/46/31 42/45/42
f 42/45/42 56/65/56 15/66/15
f 16/67/16 15/66/15 56/65/56
f 56/65/56 54/63/54 16/67/16
f 9/68/9 16/67/16 54/63/54
f 54/63/54 52/61/52 9/68/9
f 7/69/7 9/68/9 52/61/52
f 52/61/52 49/58/49 7/69/7
f 5/70/5 7/69/7 49/58/49
f 49/58/49 48/57/48 5/70/5
f 57/71/57 58/72/58 59/73/59
f 58/72/58 57/71/57 60/74/60
f 60/74/60 61/75/61 58/72/58
f 62/76/62 61/75/61 60/74/60
f 60/74/60 63/77/63 62/76/62
f 62/76/62 63/77/63 64/78/64
f 46/79/46 47/80/47 65/81/65
f 65/81/65 66/82/66 46/79/46
f 66/82/66 65/81/65 60/83/60
f 60/83/60 57/84/57 66/82/66
f 67/85/67 66/82/66 57/84/57
f 57/84/57 59/86/59 67/85/67
f 68/87/68 67/85/67 59/86/59
f 59/86/59 58/88/58 68/87/68
f 69/89/69 68/87/68 58/88/58
f 58/88/58 61/90/61 69/89/69
f 67/85/67 68/87/68 45/91/45
f 45/91/45 44/92/44 67/85/67
f 66/82/66 67/85/67 44/92/44
f 44/92/44 46/79/46 66/82/66
f 70/93/70 65/94/65 47/95/47
f 47/95/47 50/96/50 70/93/70
f 71/97/71 70/93/70 50/96/50
f 50/96/50 51/98/51 71/97/71
f 72/99/72 71/97/71 51/98/51
f 51/98/51 53/100/53 72/99/72
f 69/89/69 72/99/72 53/100/53
f 53/100/53 55/101/55 69/89/69
f 68/87/68 69/89/69 55/101/55
f 55/101/55 45/91/45 68/87/68
f 72/99/72 69/89/69 61/90/61
f 61/90/61 62/102/62 72/99/72
f 71/97/71 72/99/72 62/102/62
f 62/102/62 64/103/64 71/97/71
f 70/93/70 71/97/71 64/103/64
f 64/103/64 63/104/63 70/93/70
f 65/94/65 70/93/70 63/104/63
f 63/104/63 60/105/60 65/94/65
