# Blender v2.73 (sub 7) OBJ File: ''
# www.blender.org
v 0.115937 -1.420468 0.411607
v 0.037218 -1.498361 0.094797
v 0.630038 -1.280840 0.274814
v 0.802820 0.758250 -0.347117
v 0.922470 0.663598 -0.007136
v 1.172067 0.050890 -0.338796
v 0.855288 0.953544 -0.063755
v 0.606316 -0.256264 -1.060596
v 0.483916 -0.804706 -0.943102
v 0.190474 -0.378208 -1.175209
v 0.196966 0.287579 -1.119127
v 0.841419 0.046761 -0.879842
v 1.189595 0.018939 0.469831
v 1.038947 -0.491900 0.721338
v 1.190287 -0.522183 -0.058033
v 0.806496 0.422860 0.863463
v 0.991181 0.069843 0.853029
v -0.365187 0.213767 1.316468
v 0.007251 -0.284705 1.415901
v 0.082718 0.436674 1.259415
v -0.801330 0.371459 1.070586
v -0.385998 0.675777 1.082362
v -0.690514 0.730460 0.796307
v -0.929066 -0.019328 1.036443
v -1.221615 0.001900 0.571829
v -1.278849 0.241578 -0.153437
v -1.299948 -0.334655 0.235408
v -1.054242 -0.608942 0.786931
v 0.156246 0.731561 1.028598
v 0.565249 0.926698 0.471609
v 0.820978 0.706322 0.325271
v 0.744397 0.931463 0.282946
v -0.293324 -0.718561 -1.040561
v 0.173713 -1.056976 -0.905427
v 0.087372 -1.237305 -0.738739
v -0.913090 0.762765 0.399033
v 0.075152 1.166488 0.434290
v -0.347880 1.046909 0.092323
v -0.182518 1.174971 0.196206
v 0.315845 1.727503 0.122114
v 0.396245 1.631927 0.250890
v 0.480989 1.750171 0.048217
v 0.643750 1.369288 0.312716
v 0.427495 1.216586 0.429445
v 0.315847 1.111548 -0.597001
v 0.204199 1.574190 -0.468723
v 0.593466 1.287744 -0.523162
v 0.153313 1.596517 0.196062
v 0.085254 1.662089 -0.032554
v 0.744355 -0.995647 -0.601809
v 0.996414 -0.438515 -0.730777
v -1.039376 0.649738 0.051840
v 0.874012 -1.014015 0.480944
v 0.489083 -1.255443 0.643121
v 0.706632 -0.890382 0.884748
v 0.787904 -0.340278 1.057133
v -0.620456 -0.430993 1.192009
v -0.639610 -0.959443 0.913441
v -0.170691 -0.558979 1.344023
v -0.955501 -0.940352 0.601754
v -0.675314 0.828457 -0.385975
v -1.109001 0.450825 0.585068
v 0.527565 1.715525 -0.089934
v 0.489908 1.726404 -0.055524
v 0.666482 1.701079 -0.092337
v 0.483522 1.717987 -0.179201
v 0.649998 1.693436 -0.264031
v 0.282782 1.736385 -0.325845
v 0.320193 1.803286 -0.137009
v 0.408667 1.743051 -0.125917
v 0.876477 1.337767 0.021950
v -0.384661 0.984683 -0.232693
v -0.987890 -0.625724 -0.747820
v -1.164247 -0.023025 -0.561273
v -0.934885 -0.002898 -0.869676
v -0.887099 -0.971330 -0.570923
v -1.185914 -0.796165 -0.263181
v 0.879852 -1.027959 -0.232724
v -0.002227 0.984235 -0.615895
v 0.086782 1.649375 -0.233688
v 0.095618 1.267807 -0.506068
v 0.468040 -1.311670 -0.376518
v -0.353795 -1.190335 -0.683948
v -1.000508 0.494297 -0.496659
v -0.512376 0.555662 -0.885934
v 0.650714 0.237478 1.147575
v 0.389919 -0.115028 1.321456
v 0.168812 -0.638113 1.296708
v 0.464805 0.836050 -0.669588
v -0.008704 -1.083246 1.014462
v -0.700865 -0.368607 -0.996331
v -0.233350 -0.007371 -1.173442
v -0.569700 0.125829 -1.044921
v 0.224430 1.035365 0.583290
v 0.773898 1.580787 0.000580
v 0.771987 1.383123 -0.346081
v 0.549075 1.633134 -0.427987
v 0.626259 1.601051 0.186076
v -0.345495 -1.388826 0.306908
v -0.376063 -1.302956 0.259575
v -0.341736 -1.274127 0.188853
v -0.298084 -1.320503 0.181673
v -0.475972 -1.416935 0.443219
v -0.186264 -1.483788 0.407219
v -0.660912 -1.264079 0.581375
v -0.354658 -1.353572 0.635632
v -0.327286 -1.123421 0.906549
v -0.588486 -1.329717 0.338735
v -0.892007 -1.251623 0.143541
v -0.727543 -1.304152 0.116614
v -0.805974 -1.303423 0.327404
v -0.377840 -1.432350 -0.381165
v -0.834901 -1.299923 -0.112751
v -0.208821 -1.404301 0.106305
v -0.268878 -1.480980 0.017382
v -0.065367 -1.507200 -0.115154
v -0.489132 -1.220642 0.196915
v -0.486762 -1.271670 0.084513
v -0.653800 -1.382442 0.015727
v -0.518923 -1.332294 -0.034389
v -0.608161 -1.371238 -0.169615
v -0.375273 -1.462303 -0.235596
v -0.432991 -1.230038 0.044726
v -0.384141 -1.292768 0.035493
v -0.358051 -1.416648 -0.080647
v -0.500099 -1.222327 0.117035
v -0.348563 -1.326961 0.047686
v -1.217591 -0.725885 0.188645
v 0.679085 2.544927 -0.651511
v 0.623707 2.169564 -0.290576
v 0.568473 2.152686 -0.220182
v 0.701128 2.376268 -0.387408
v 0.520296 2.050358 -0.211442
v 0.725902 2.711241 -0.845984
v 0.753881 2.777124 -0.799039
v 0.730937 2.619329 -0.632183
v 0.681814 2.800844 -0.767650
v 0.629907 2.613545 -0.653024
v 0.644874 2.725863 -0.825444
v -0.276503 -1.310004 0.123294
v -0.501729 -1.292428 0.183606
vt 0.328627 0.110833
vt 0.333847 0.047769
vt 0.406846 0.177671
vt 0.661923 0.724474
vt 0.610370 0.717179
vt 0.591699 0.547428
vt 0.653803 0.809701
vt 0.691216 0.463803
vt 0.689478 0.368734
vt 0.729057 0.422455
vt 0.745255 0.536659
vt 0.666498 0.535014
vt 0.412379 0.528700
vt 0.389878 0.411504
vt 0.471951 0.417485
vt 0.331749 0.566803
vt 0.359097 0.507197
vt 0.218807 0.443188
vt 0.263139 0.391660
vt 0.255885 0.505877
vt 0.164879 0.456315
vt 0.193160 0.539565
vt 0.150287 0.549461
vt 0.166651 0.370809
vt 0.108780 0.358373
vt 0.034966 0.425827
vt 0.072733 0.278929
vt 0.157249 0.263188
vt 0.253695 0.567390
vt 0.295869 0.721323
vt 0.354700 0.690026
vt 0.325683 0.760626
vt 0.758956 0.330190
vt 0.705918 0.312146
vt 0.707503 0.254573
vt 0.101083 0.561472
vt 0.214669 0.756879
vt 0.142790 0.748138
vt 0.185752 0.776871
vt 0.237745 0.926172
vt 0.253752 0.895626
vt 0.257224 0.952366
vt 0.286282 0.861107
vt 0.268754 0.790538
vt 0.758058 0.767049
vt 0.782354 0.877127
vt 0.733864 0.829098
vt 0.220320 0.881196
vt 0.197323 0.921758
vt 0.643179 0.327980
vt 0.640099 0.446588
vt 0.050984 0.535918
vt 0.413625 0.286738
vt 0.359901 0.198272
vt 0.359795 0.310774
vt 0.341490 0.417718
vt 0.206866 0.326808
vt 0.213371 0.232023
vt 0.249894 0.327628
vt 0.170852 0.190270
vt 0.058945 0.615437
vt 0.106627 0.453403
vt 0.741075 0.991879
vt 0.733736 0.995947
vt 0.723933 0.980559
vt 0.283118 0.966328
vt 0.258130 0.979882
vt 0.752223 0.979751
vt 0.734339 0.947384
vt 0.779055 0.930482
vt 0.783290 0.962700
vt 0.763296 0.981097
vt 0.323094 0.898146
vt 0.396320 0.720011
vt 0.355383 0.799941
vt 0.110798 0.736602
vt 0.536974 0.543520
vt 0.549202 0.413283
vt 0.832376 0.294635
vt 0.891458 0.373625
vt 0.847588 0.407314
vt 0.814286 0.224907
vt 0.870968 0.210862
vt 0.950949 0.405060
vt 0.592990 0.284732
vt 0.892464 0.617361
vt 0.859466 0.736247
vt 0.798669 0.710242
vt 0.807242 0.911568
vt 0.790465 0.806431
vt 0.870778 0.782322
vt 0.820007 0.928519
vt 0.652574 0.221433
vt 0.751089 0.226151
vt 0.543798 0.276202
vt 0.583881 0.174487
vt 0.906823 0.494753
vt 0.832705 0.544351
vt 0.309878 0.500728
vt 0.291691 0.438578
vt 0.290527 0.330691
vt 0.722163 0.698226
vt 0.283548 0.236869
vt 0.807415 0.366420
vt 0.769803 0.453770
vt 0.811012 0.457099
vt 0.250644 0.706344
vt 0.704788 0.963661
vt 0.677894 0.905630
vt 0.224054 0.977206
vt 0.712443 0.887087
vt 0.746634 0.917403
vt 0.299878 0.945112
vt 0.276715 0.916421
vt 0.264323 0.068920
vt 0.246470 0.034114
vt 0.261201 0.024988
vt 0.268413 0.026526
vt 0.240919 0.099733
vt 0.286167 0.092567
vt 0.215416 0.134690
vt 0.254443 0.145200
vt 0.250535 0.215602
vt 0.218202 0.081974
vt 0.155466 0.065494
vt 0.177632 0.039762
vt 0.186748 0.088317
vt 0.745800 0.159584
vt 0.812021 0.114542
vt 0.715769 0.020820
vt 0.722402 0.063066
vt 0.672396 0.055209
vt 0.701936 0.103853
vt 0.229203 0.026958
vt 0.766243 0.018663
vt 0.789877 0.078855
vt 0.766701 0.078111
vt 0.776327 0.112985
vt 0.743874 0.122181
vt 0.762897 0.022571
vt 0.748577 0.032235
vt 0.739729 0.081939
vt 0.815086 0.048447
vt 0.773102 0.013840
vt 0.740707 0.027462
vt 0.213196 0.014450
vt 0.841591 0.066971
vt 0.882675 0.101012
vt 0.092659 0.187093
vt 0.242900 0.990925
vt 0.954415 0.283954
vt 0.912145 0.199000
vt 0.960311 0.534219
vt 0.287905 0.011955
vt 0.551486 0.920147
vt 0.461070 0.920870
vt 0.450143 0.849435
vt 0.376541 0.912064
vt 0.375775 0.943916
vt 0.485819 0.947760
vt 0.374654 0.829564
vt 0.375888 0.808437
vt 0.429900 0.881369
vt 0.598581 0.945604
vt 0.597138 0.984329
vt 0.554119 0.974170
vt 0.504721 0.815973
vt 0.559600 0.797792
vt 0.599876 0.847713
vt 0.564425 0.882670
vt 0.609635 0.884286
vt 0.374952 0.873779
vt 0.627282 0.876376
vt 0.616146 0.865903
vt 0.622631 0.902218
vt 0.599475 0.795566
vt 0.480541 0.172702
vt 0.489064 0.099213
vt 0.487244 0.188902
vt 0.510501 0.179342
vt 0.504039 0.199209
vt 0.459978 0.124171
vt 0.463030 0.123960
vt 0.459728 0.163940
vt 0.507622 0.094342
vt 0.525583 0.127980
vt 0.512077 0.141896
vt 0.479238 0.106597
vt 0.469150 0.127483
vt 0.519647 0.172917
vt 0.474740 0.086024
vt 0.469355 0.183800
vn 0.211800 -0.924800 0.315900
vn 0.119800 -0.991400 0.052900
vn 0.528000 -0.844900 0.085400
vn 0.839500 0.318600 -0.440100
vn 0.930800 0.365300 0.008000
vn 0.942100 0.204800 -0.265400
vn 0.991700 0.105600 -0.072700
vn 0.444100 -0.055500 -0.894200
vn 0.402500 -0.432000 -0.807000
vn 0.111500 -0.154300 -0.981700
vn 0.156900 0.360600 -0.919400
vn 0.660300 0.243900 -0.710200
vn 0.958500 0.170700 0.228200
vn 0.861100 -0.255300 0.439500
vn 0.958600 -0.276500 -0.068100
vn 0.672500 0.536900 0.509300
vn 0.810100 0.178600 0.558300
vn -0.245700 0.209900 0.946300
vn 0.018300 -0.047500 0.998700
vn 0.126300 0.424100 0.896700
vn -0.591500 0.354400 0.724200
vn -0.225600 0.666900 0.710100
vn -0.472200 0.753300 0.457700
vn -0.692300 0.036000 0.720700
vn -0.931300 0.087000 0.353700
vn -0.949600 0.276400 -0.147700
vn -0.990400 -0.089400 0.105500
vn -0.778800 -0.299000 0.551300
vn 0.207100 0.706200 0.677000
vn 0.578200 0.471600 0.665800
vn 0.821400 0.467800 0.326300
vn 0.806800 0.246300 0.536900
vn -0.222000 -0.388700 -0.894200
vn 0.126400 -0.598500 -0.791100
vn 0.059100 -0.795800 -0.602600
vn -0.618300 0.769600 0.159400
vn -0.271000 0.692500 0.668500
vn -0.605500 0.789500 0.100000
vn -0.679100 0.441900 0.586100
vn -0.187000 0.867100 0.461700
vn 0.039200 0.634700 0.771800
vn 0.257500 0.931900 0.255300
vn 0.548500 0.307000 0.777700
vn 0.172100 0.391100 0.904100
vn -0.020800 0.283400 -0.958800
vn -0.379700 0.476200 -0.793100
vn 0.477300 0.179000 -0.860300
vn -0.486200 0.635100 0.600100
vn -0.655200 0.738200 0.160500
vn 0.631300 -0.596300 -0.495800
vn 0.797700 -0.217400 -0.562400
vn -0.757200 0.652600 -0.025800
vn 0.769100 -0.587600 0.251300
vn 0.361000 -0.811200 0.460000
vn 0.545900 -0.519900 0.657000
vn 0.625700 -0.162100 0.763000
vn -0.468900 -0.211100 0.857600
vn -0.453500 -0.622600 0.637600
vn -0.193000 -0.329900 0.924100
vn -0.718300 -0.538700 0.440300
vn -0.482800 0.814700 -0.321200
vn -0.837800 0.431700 0.334300
vn 0.551300 0.833400 0.037300
vn 0.227000 0.952500 0.202900
vn 0.504100 0.862600 0.043100
vn 0.275200 0.825100 -0.493300
vn 0.550200 0.776000 -0.308200
vn -0.176000 0.867100 -0.466000
vn -0.031200 0.996900 -0.072800
vn 0.163100 0.985500 0.046900
vn 0.965200 0.190900 0.178600
vn -0.558300 0.792400 -0.245500
vn -0.680100 -0.309100 -0.664700
vn -0.888800 0.085000 -0.450400
vn -0.653400 0.151400 -0.741700
vn -0.568900 -0.585500 -0.577500
vn -0.897200 -0.376900 -0.229900
vn 0.767400 -0.614700 -0.182000
vn -0.245400 0.576600 -0.779200
vn -0.684300 0.669900 -0.288100
vn -0.436900 0.378100 -0.816100
vn 0.408200 -0.862200 -0.299800
vn -0.246300 -0.697600 -0.672800
vn -0.704500 0.541700 -0.458400
vn -0.344000 0.559300 -0.754200
vn 0.518800 0.316300 0.794200
vn 0.358200 0.019100 0.933400
vn 0.242400 -0.410200 0.879200
vn 0.388400 0.386500 -0.836500
vn 0.063100 -0.687400 0.723500
vn -0.424300 -0.160600 -0.891100
vn -0.162700 0.117700 -0.979600
vn -0.364800 0.233200 -0.901400
vn 0.170100 0.710700 0.682500
vn 0.828900 0.532700 0.170600
vn 0.840300 0.142100 -0.523100
vn 0.320900 0.578700 -0.749700
vn 0.508700 0.605800 0.611700
vn -0.493900 -0.727900 -0.475500
vn -0.389000 -0.769200 -0.506900
vn -0.426700 -0.887300 -0.174700
vn -0.698000 -0.644900 -0.311200
vn -0.360000 -0.932800 -0.015700
vn -0.083900 -0.982700 0.165100
vn -0.473800 -0.718600 0.508900
vn -0.154000 -0.823100 0.546600
vn -0.257400 -0.660600 0.705200
vn -0.230600 -0.905500 -0.356200
vn -0.676400 -0.735000 0.046300
vn -0.075600 -0.971100 0.226300
vn -0.445100 -0.882100 0.154100
vn -0.118800 -0.874300 -0.470500
vn -0.597200 -0.786400 -0.157800
vn -0.520500 -0.798100 0.303400
vn -0.433300 -0.807300 0.400600
vn 0.064500 -0.984600 -0.162600
vn -0.471200 -0.882000 -0.003900
vn -0.014000 -0.971300 0.237100
vn -0.034000 -0.953900 0.298300
vn 0.118000 -0.903500 0.411900
vn -0.226800 -0.973600 0.026400
vn -0.280300 -0.959700 -0.021900
vn -0.262700 -0.964200 -0.036800
vn -0.496500 -0.759300 0.420500
vn -0.588700 -0.709200 0.387800
vn -0.449800 -0.831800 0.325400
vn -0.663700 -0.611000 0.431500
vn -0.919900 -0.370100 0.129500
vn 0.114000 -0.743000 -0.659500
vn -0.364100 -0.391000 -0.845300
vn -0.395500 0.699900 0.594700
vn 0.835200 0.230500 0.499300
vn -0.927200 0.284300 -0.244000
vn 0.386200 -0.194100 -0.901700
vn 0.742200 0.616600 -0.262300
vn 0.951000 0.106800 0.289900
vn -0.259300 0.960400 0.101900
vn -0.997900 -0.017800 -0.062800
vn -0.734400 0.086200 -0.673100
vn -0.442400 -0.890900 0.103000
vn -0.695300 -0.669100 0.262300
s 1
f 1/1/1 2/2/2 3/3/3
f 4/4/4 5/5/5 6/6/6
f 4/4/4 7/7/7 5/5/5
f 8/8/8 9/9/9 10/10/10
f 8/8/8 11/11/11 12/12/12
f 13/13/13 14/14/14 15/15/15
f 13/13/13 16/16/16 17/17/17
f 13/13/13 17/17/17 14/14/14
f 18/18/18 19/19/19 20/20/20
f 21/21/21 22/22/22 23/23/23
f 21/21/21 24/24/24 18/18/18
f 25/25/25 26/26/26 27/27/27
f 27/27/27 28/28/28 25/25/25
f 29/29/29 16/16/16 30/30/30
f 30/30/30 31/31/31 32/32/32
f 33/33/33 34/34/34 35/35/35
f 36/36/36 23/23/23 37/37/37
f 36/36/36 37/37/37 38/38/38
f 38/38/38 37/37/37 39/39/39
f 40/40/40 41/41/41 42/42/42
f 30/30/30 43/43/43 44/44/44
f 43/43/43 41/41/41 44/44/44
f 45/45/45 46/46/46 47/47/47
f 39/39/39 48/48/48 49/49/49
f 35/35/35 34/34/34 50/50/50
f 34/34/34 10/10/10 9/9/9
f 9/9/9 51/51/51 50/50/50
f 36/36/36 52/52/52 26/26/26
f 53/53/53 54/54/54 3/3/3
f 53/53/53 15/15/15 14/14/14
f 55/55/55 14/14/14 56/56/56
f 57/57/57 58/58/58 59/59/59
f 57/57/57 59/59/59 18/18/18
f 57/57/57 24/24/24 28/28/28
f 57/57/57 18/18/18 24/24/24
f 58/58/58 28/28/28 60/60/60
f 36/36/36 61/61/61 52/52/52
f 21/21/21 62/62/62 25/25/25
f 62/62/62 23/23/23 36/36/36
f 63/63/63 64/64/64 65/65/65
f 42/42/42 65/66/65 64/67/64
f 66/68/66 67/69/67 68/70/68
f 66/68/66 69/71/69 70/72/70
f 30/30/30 32/32/32 71/73/71
f 31/31/31 13/13/13 5/74/5
f 7/75/7 32/32/32 31/31/31
f 36/36/36 38/38/38 72/76/72
f 6/6/6 13/77/13 15/78/15
f 73/79/73 74/80/74 75/81/75
f 73/79/73 76/82/76 77/83/77
f 77/83/77 26/84/26 74/80/74
f 15/78/15 78/85/78 50/50/50
f 61/86/61 72/87/72 79/88/79
f 80/89/80 81/90/81 79/88/79
f 80/89/80 72/87/72 38/91/38
f 38/91/38 49/92/49 80/89/80
f 80/89/80 46/46/46 81/90/81
f 78/85/78 82/93/82 50/50/50
f 73/79/73 33/33/33 83/94/83
f 53/95/53 3/96/3 78/85/78
f 84/97/84 61/86/61 85/98/85
f 86/99/86 87/100/87 56/56/56
f 87/100/87 88/101/88 56/56/56
f 86/99/86 17/17/17 16/16/16
f 87/100/87 19/19/19 88/101/88
f 37/37/37 48/48/48 39/39/39
f 89/102/89 4/4/4 12/12/12
f 89/102/89 12/12/12 11/11/11
f 90/103/90 54/54/54 88/101/88
f 73/79/73 75/81/75 91/104/91
f 33/33/33 92/105/92 10/10/10
f 93/106/93 85/98/85 11/11/11
f 93/106/93 91/104/91 75/81/75
f 93/106/93 75/81/75 85/98/85
f 29/29/29 94/107/94 22/22/22
f 67/69/67 95/108/95 71/109/71
f 69/110/69 40/40/40 42/42/42
f 68/70/68 46/46/46 80/89/80
f 67/69/67 96/111/96 97/112/97
f 95/113/95 65/66/65 98/114/98
f 98/114/98 43/43/43 71/73/71
f 97/112/97 96/111/96 47/47/47
f 46/46/46 68/70/68 97/112/97
f 97/112/97 47/47/47 46/46/46
f 42/42/42 41/41/41 98/114/98
f 99/115/99 100/116/100 101/117/101
f 99/115/99 101/117/101 102/118/102
f 99/115/99 103/119/103 100/116/100
f 104/120/104 103/119/103 99/115/99
f 105/121/105 106/122/106 107/123/107
f 107/123/107 60/60/60 105/121/105
f 105/121/105 108/124/108 103/119/103
f 109/125/109 110/126/110 111/127/111
f 111/127/111 108/124/108 105/121/105
f 111/127/111 105/121/105 60/60/60
f 112/128/112 76/82/76 83/94/83
f 113/129/113 76/82/76 112/128/112
f 114/130/114 115/131/115 2/132/2
f 2/132/2 115/131/115 116/133/116
f 100/116/100 103/119/103 108/124/108
f 108/124/108 117/134/117 100/116/100
f 118/135/118 119/136/119 120/137/120
f 121/138/121 122/139/122 120/137/120
f 123/140/123 120/137/120 124/141/124
f 120/137/120 125/142/125 124/141/124
f 120/137/120 123/140/123 118/135/118
f 110/143/110 119/136/119 126/144/126
f 115/131/115 125/142/125 122/139/122
f 122/139/122 116/133/116 115/131/115
f 125/142/125 115/131/115 127/145/127
f 127/145/127 124/141/124 125/142/125
f 117/134/117 110/126/110 126/146/126
f 111/127/111 110/126/110 117/134/117
f 104/120/104 106/122/106 103/119/103
f 90/103/90 1/1/1 54/54/54
f 104/120/104 90/103/90 106/122/106
f 82/93/82 3/96/3 2/132/2
f 35/35/35 82/93/82 116/133/116
f 113/129/113 109/147/109 128/148/128
f 113/129/113 128/148/128 77/83/77
f 113/129/113 77/83/77 76/82/76
f 54/54/54 1/1/1 3/3/3
f 2/2/2 1/1/1 104/120/104
f 4/4/4 6/6/6 12/12/12
f 8/8/8 10/10/10 11/11/11
f 10/10/10 92/105/92 11/11/11
f 51/51/51 8/8/8 12/12/12
f 8/8/8 51/51/51 9/9/9
f 14/14/14 17/17/17 56/56/56
f 22/22/22 18/18/18 20/20/20
f 22/22/22 20/20/20 29/29/29
f 21/21/21 18/18/18 22/22/22
f 28/28/28 27/27/27 128/149/128
f 60/60/60 28/28/28 128/149/128
f 25/25/25 28/28/28 24/24/24
f 71/109/71 7/7/7 96/111/96
f 96/111/96 7/7/7 47/47/47
f 7/7/7 4/4/4 47/47/47
f 30/30/30 94/107/94 29/29/29
f 30/30/30 16/16/16 31/31/31
f 85/98/85 79/88/79 11/11/11
f 79/88/79 89/102/89 11/11/11
f 89/102/89 79/88/79 45/45/45
f 40/40/40 48/48/48 41/41/41
f 30/30/30 44/44/44 94/107/94
f 79/88/79 81/90/81 45/45/45
f 45/45/45 81/90/81 46/46/46
f 38/38/38 39/39/39 49/49/49
f 34/34/34 33/33/33 10/10/10
f 34/34/34 9/9/9 50/50/50
f 55/55/55 53/53/53 14/14/14
f 53/53/53 55/55/55 54/54/54
f 59/59/59 58/58/58 107/123/107
f 18/18/18 59/59/59 19/19/19
f 58/58/58 57/57/57 28/28/28
f 62/62/62 26/26/26 25/25/25
f 62/62/62 21/21/21 23/23/23
f 63/63/63 65/65/65 66/68/66
f 65/65/65 67/69/67 66/68/66
f 42/42/42 70/150/70 69/110/69
f 64/67/64 70/150/70 42/42/42
f 13/13/13 31/31/31 16/16/16
f 7/75/7 31/31/31 5/74/5
f 6/6/6 15/78/15 51/51/51
f 6/6/6 51/51/51 12/12/12
f 13/77/13 6/6/6 5/5/5
f 73/79/73 77/83/77 74/80/74
f 27/151/27 77/83/77 128/152/128
f 26/84/26 77/83/77 27/151/27
f 32/32/32 7/75/7 71/73/71
f 61/86/61 79/88/79 85/98/85
f 72/87/72 80/89/80 79/88/79
f 78/85/78 15/78/15 53/95/53
f 82/93/82 78/85/78 3/96/3
f 84/97/84 85/98/85 75/81/75
f 84/97/84 75/81/75 74/80/74
f 84/97/84 26/84/26 52/153/52
f 84/97/84 74/80/74 26/84/26
f 84/97/84 52/153/52 61/86/61
f 89/102/89 47/47/47 4/4/4
f 47/47/47 89/102/89 45/45/45
f 86/99/86 56/56/56 17/17/17
f 29/29/29 86/99/86 16/16/16
f 86/99/86 29/29/29 20/20/20
f 86/99/86 20/20/20 87/100/87
f 87/100/87 20/20/20 19/19/19
f 37/37/37 94/107/94 44/44/44
f 48/48/48 37/37/37 41/41/41
f 41/41/41 37/37/37 44/44/44
f 88/101/88 54/54/54 55/55/55
f 88/101/88 55/55/55 56/56/56
f 88/101/88 19/19/19 59/59/59
f 88/101/88 59/59/59 90/103/90
f 90/103/90 59/59/59 107/123/107
f 73/79/73 91/104/91 33/33/33
f 33/33/33 91/104/91 92/105/92
f 93/106/93 92/105/92 91/104/91
f 22/22/22 37/37/37 23/23/23
f 69/110/69 49/49/49 40/40/40
f 49/49/49 48/48/48 40/40/40
f 69/71/69 80/89/80 49/92/49
f 80/89/80 69/71/69 68/70/68
f 68/70/68 69/71/69 66/68/66
f 68/70/68 67/69/67 97/112/97
f 95/108/95 67/69/67 65/65/65
f 98/114/98 65/66/65 42/42/42
f 95/113/95 98/114/98 71/73/71
f 43/43/43 98/114/98 41/41/41
f 106/122/106 105/121/105 103/119/103
f 107/123/107 58/58/58 60/60/60
f 109/125/109 111/127/111 128/149/128
f 111/127/111 60/60/60 128/149/128
f 121/138/121 112/128/112 122/139/122
f 113/129/113 112/128/112 121/138/121
f 113/129/113 121/138/121 119/136/119
f 121/138/121 120/137/120 119/136/119
f 120/137/120 122/139/122 125/142/125
f 126/144/126 119/136/119 118/135/118
f 104/120/104 114/154/114 2/2/2
f 99/115/99 114/154/114 104/120/104
f 114/154/114 99/115/99 102/118/102
f 117/134/117 108/124/108 111/127/111
f 1/1/1 90/103/90 104/120/104
f 106/122/106 90/103/90 107/123/107
f 116/133/116 82/93/82 2/132/2
f 116/133/116 112/128/112 83/94/83
f 35/35/35 116/133/116 83/94/83
f 122/139/122 112/128/112 116/133/116
f 113/129/113 110/143/110 109/147/109
f 110/143/110 113/129/113 119/136/119
f 83/94/83 33/33/33 35/35/35
f 82/93/82 35/35/35 50/50/50
f 62/62/62 36/36/36 26/26/26
f 24/24/24 21/21/21 25/25/25
f 43/43/43 30/30/30 71/73/71
f 61/61/61 36/36/36 72/76/72
f 51/51/51 15/78/15 50/50/50
f 76/82/76 73/79/73 83/94/83
f 92/105/92 93/106/93 11/11/11
f 94/107/94 37/37/37 22/22/22
f 96/111/96 67/69/67 71/109/71
f 129/155/129 130/156/130 131/157/131
f 66/158/66 130/156/130 63/159/63
f 63/159/63 130/156/130 132/160/132
f 64/161/64 63/162/63 131/157/131
f 66/158/66 133/163/133 130/156/130
f 134/164/134 135/165/135 136/166/136
f 131/157/131 63/162/63 132/167/132
f 132/167/132 136/168/136 137/169/137
f 132/167/132 137/169/137 131/157/131
f 138/170/138 139/171/139 129/155/129
f 133/163/133 66/158/66 70/172/70
f 133/163/133 70/172/70 131/157/131
f 70/172/70 64/161/64 131/157/131
f 136/166/136 129/155/129 134/164/134
f 132/160/132 130/156/130 129/155/129
f 129/155/129 136/166/136 132/160/132
f 131/157/131 130/156/130 133/163/133
f 138/170/138 131/157/131 137/169/137
f 135/173/135 139/171/139 137/174/137
f 139/171/139 135/173/135 134/175/134
f 137/169/137 136/168/136 135/176/135
f 137/169/137 139/171/139 138/170/138
f 138/170/138 129/155/129 131/157/131
f 139/171/139 134/164/134 129/155/129
f 127/177/127 101/178/101 124/179/124
f 124/179/124 118/180/118 123/181/123
f 114/182/114 140/183/140 115/184/115
f 100/185/100 117/186/117 141/187/141
f 141/187/141 101/178/101 100/185/100
f 118/180/118 101/178/101 141/187/141
f 102/188/102 127/177/127 140/189/140
f 124/179/124 101/178/101 118/180/118
f 117/186/117 126/190/126 141/187/141
f 118/180/118 141/187/141 126/190/126
f 127/177/127 102/188/102 101/178/101
f 102/191/102 140/183/140 114/182/114
f 140/183/140 127/192/127 115/184/115
