# Blender v2.76 (sub 0) OBJ File: ''
# www.blender.org
v 0.859318 0.000000 0.000000
v 0.842852 -0.000000 0.039751
v 0.803101 -0.000000 0.056217
v 0.763349 -0.000000 0.039751
v 0.746884 -0.000000 0.000000
v 0.763349 0.000000 -0.039751
v 0.803101 0.000000 -0.056217
v 0.842852 0.000000 -0.039751
v 0.744191 0.429659 0.000000
v 0.729931 0.421426 0.039751
v 0.695505 0.401550 0.056217
v 0.661080 0.381675 0.039751
v 0.646820 0.373442 0.000000
v 0.661080 0.381675 -0.039751
v 0.695505 0.401550 -0.056217
v 0.729931 0.421426 -0.039751
v 0.429659 0.744191 0.000000
v 0.421426 0.729931 0.039751
v 0.401550 0.695505 0.056217
v 0.381674 0.661080 0.039751
v 0.373442 0.646820 0.000000
v 0.381674 0.661080 -0.039751
v 0.401550 0.695505 -0.056217
v 0.421426 0.729931 -0.039751
v 0.000000 0.859318 0.000000
v 0.000000 0.842852 0.039751
v 0.000000 0.803101 0.056217
v 0.000000 0.763349 0.039751
v 0.000000 0.746884 0.000000
v 0.000000 0.763349 -0.039751
v 0.000000 0.803101 -0.056217
v 0.000000 0.842852 -0.039751
v -0.429659 0.744191 0.000000
v -0.421426 0.729931 0.039751
v -0.401550 0.695506 0.056217
v -0.381674 0.661080 0.039751
v -0.373442 0.646820 0.000000
v -0.381674 0.661080 -0.039751
v -0.401550 0.695506 -0.056217
v -0.421426 0.729931 -0.039751
v -0.744191 0.429659 0.000000
v -0.729931 0.421426 0.039751
v -0.695505 0.401551 0.056217
v -0.661080 0.381675 0.039751
v -0.646820 0.373442 0.000000
v -0.661080 0.381675 -0.039751
v -0.695505 0.401551 -0.056217
v -0.729931 0.421426 -0.039751
v -0.859318 0.000000 0.000000
v -0.842852 0.000000 0.039751
v -0.803101 0.000000 0.056217
v -0.763349 0.000000 0.039751
v -0.746884 0.000000 0.000000
v -0.763349 0.000000 -0.039751
v -0.803101 0.000000 -0.056217
v -0.842852 0.000000 -0.039751
v -0.744191 -0.429659 -0.000000
v -0.729931 -0.421426 0.039751
v -0.695506 -0.401550 0.056217
v -0.661080 -0.381674 0.039751
v -0.646820 -0.373442 -0.000000
v -0.661080 -0.381674 -0.039751
v -0.695506 -0.401550 -0.056217
v -0.729931 -0.421426 -0.039751
v -0.429659 -0.744191 -0.000000
v -0.421426 -0.729931 0.039751
v -0.401550 -0.695506 0.056217
v -0.381674 -0.661080 0.039751
v -0.373442 -0.646820 -0.000000
v -0.381674 -0.661080 -0.039751
v -0.401550 -0.695506 -0.056217
v -0.421426 -0.729931 -0.039751
v 0.000000 -0.859318 -0.000000
v 0.000000 -0.842852 0.039751
v 0.000000 -0.803101 0.056217
v 0.000000 -0.763349 0.039751
v 0.000000 -0.746884 -0.000000
v 0.000000 -0.763349 -0.039751
v 0.000000 -0.803101 -0.056217
v 0.000000 -0.842852 -0.039751
v 0.429659 -0.744191 -0.000000
v 0.421426 -0.729931 0.039751
v 0.401550 -0.695505 0.056217
v 0.381674 -0.661080 0.039751
v 0.373442 -0.646820 -0.000000
v 0.381674 -0.661080 -0.039751
v 0.401550 -0.695505 -0.056217
v 0.421426 -0.729931 -0.039751
v 0.744191 -0.429659 -0.000000
v 0.729931 -0.421426 0.039751
v 0.695505 -0.401550 0.056217
v 0.661080 -0.381675 0.039751
v 0.646820 -0.373442 -0.000000
v 0.661080 -0.381675 -0.039751
v 0.695505 -0.401550 -0.056217
v 0.729931 -0.421426 -0.039751
vt 0.189332 0.572622
vt 0.202271 0.576717
vt 0.174631 0.709594
vt 0.566987 0.495905
vt 0.574463 0.486020
vt 0.685016 0.559119
vt 0.584250 0.476135
vt 0.689331 0.545615
vt 0.250232 0.692966
vt 0.275264 0.572622
vt 0.288204 0.576717
vt 0.298192 0.572622
vt 0.273160 0.692966
vt 0.189331 0.027007
vt 0.084250 0.096487
vt 0.076775 0.086602
vt 0.066987 0.076717
vt 0.183013 0.000000
vt 0.151703 0.709594
vt 0.179343 0.576717
vt 0.060017 0.864527
vt 0.073496 0.863028
vt 0.101136 0.995905
vt 0.500000 0.363028
vt 0.510635 0.359410
vt 0.523582 0.355791
vt 0.346153 0.572622
vt 0.321121 0.692966
vt 0.311672 0.694465
vt 0.298193 0.692966
vt 0.323225 0.572622
vt 0.023582 0.216831
vt 0.012947 0.213213
vt 0.000000 0.209594
vt 0.050568 0.863028
vt 0.088196 1.000000
vt 0.060017 0.708096
vt 0.073496 0.709594
vt 0.500000 0.209594
vt 0.510635 0.213212
vt 0.523582 0.216831
vt 0.321121 0.831927
vt 0.311672 0.830428
vt 0.298193 0.831927
vt 0.023582 0.355792
vt 0.012947 0.359410
vt 0.000000 0.363028
vt 0.050568 0.709594
vt 0.088196 0.572622
vt 0.101136 0.576717
vt 0.566987 0.076717
vt 0.574463 0.086602
vt 0.584250 0.096487
vt 0.346153 0.952270
vt 0.336164 0.948176
vt 0.323225 0.952270
vt 0.084250 0.476135
vt 0.076775 0.486020
vt 0.066987 0.495905
vt 0.078208 0.576717
vt 0.110585 0.864527
vt 0.124064 0.863028
vt 0.151703 0.995905
vt 0.683013 0.000000
vt 0.685016 0.013503
vt 0.689331 0.027007
vt 0.394114 0.692966
vt 0.380635 0.694465
vt 0.356142 0.576717
vt 0.371186 0.692966
vt 0.189331 0.545616
vt 0.187328 0.559119
vt 0.183013 0.572622
vt 0.101136 0.863028
vt 0.138764 1.000000
vt 0.110585 0.708095
vt 0.124064 0.709594
vt 0.816987 0.000000
vt 0.812672 0.013503
vt 0.810669 0.027007
vt 0.394114 0.831927
vt 0.380635 0.830428
vt 0.371186 0.831927
vt 0.310669 0.545616
vt 0.314984 0.559119
vt 0.316987 0.572622
vt 0.101136 0.709594
vt 0.138764 0.572622
vt 0.151703 0.576717
vt 0.933013 0.076717
vt 0.923225 0.086602
vt 0.915750 0.096487
vt 0.369081 0.952270
vt 0.356142 0.948176
vt 0.415750 0.476135
vt 0.425537 0.486020
vt 0.433013 0.495905
vt 0.128775 0.576717
vt 0.012939 1.000000
vt 0.041119 0.864527
vt 1.000000 0.209594
vt 0.987053 0.213212
vt 0.976418 0.216831
vt 0.227304 0.952270
vt 0.202271 0.831927
vt 0.215750 0.830428
vt 0.225199 0.831927
vt 0.250232 0.952270
vt 0.476419 0.355791
vt 0.489365 0.359410
vt 0.027640 0.863028
vt 0.041119 0.708095
vt 1.000000 0.363028
vt 0.987053 0.359410
vt 0.976418 0.355791
vt 0.202271 0.692966
vt 0.215750 0.694465
vt 0.225199 0.692966
vt 0.476418 0.216831
vt 0.489365 0.213212
vt 0.027640 0.709594
vt 0.012939 0.572622
vt 0.022928 0.576717
vt 0.933013 0.495905
vt 0.923225 0.486020
vt 0.915750 0.476135
vt 0.227304 0.572622
vt 0.240243 0.576717
vt 0.250232 0.572622
vt 0.415750 0.096487
vt 0.425537 0.086602
vt 0.433013 0.076717
vt 0.000000 0.576717
vt 0.161152 0.864527
vt 0.174631 0.863028
vt 0.202271 0.995905
vt 0.816987 0.572622
vt 0.812672 0.559119
vt 0.810669 0.545615
vt 0.250232 0.831927
vt 0.263711 0.830428
vt 0.288204 0.948176
vt 0.273160 0.831927
vt 0.310669 0.027007
vt 0.314984 0.013503
vt 0.316987 0.000000
vt 0.151703 0.863028
vt 0.189332 1.000000
vt 0.161152 0.708096
vt 0.683013 0.572622
vt 0.263711 0.694465
vt 0.187328 0.013503
vt 0.336164 0.576717
vt 0.078208 0.995905
vt 0.369081 0.572622
vt 0.128775 0.995905
vt 0.022928 0.995905
vt 0.240243 0.948176
vt 0.000000 0.995905
vt 0.275265 0.952270
vt 0.298193 0.952270
vt 0.179343 0.995905
vn 0.866000 0.500000 0.000000
vn 0.637500 0.368100 0.676800
vn 0.736200 0.000000 0.676800
vn 0.055000 0.031800 0.998000
vn 0.063500 0.000000 0.998000
vn -0.582300 -0.336200 0.740200
vn -0.672400 0.000000 0.740200
vn -0.866000 -0.500000 0.000000
vn -0.582300 -0.336200 -0.740200
vn -0.672400 0.000000 -0.740200
vn 0.055000 0.031800 -0.998000
vn 0.637500 0.368100 -0.676800
vn 0.736200 0.000000 -0.676800
vn 0.500000 0.866000 0.000000
vn 0.368100 0.637500 0.676800
vn 0.031800 0.055000 0.998000
vn -0.336200 -0.582300 0.740200
vn -0.500000 -0.866000 0.000000
vn -0.336200 -0.582300 -0.740200
vn 0.031800 0.055000 -0.998000
vn 0.368100 0.637500 -0.676800
vn 0.000000 1.000000 0.000000
vn 0.000000 0.736200 0.676800
vn 0.000000 0.063500 0.998000
vn 0.000000 -0.672400 0.740200
vn 0.000000 -1.000000 0.000000
vn 0.000000 -0.672400 -0.740200
vn 0.000000 0.063500 -0.998000
vn 0.000000 0.736200 -0.676800
vn -0.500000 0.866000 0.000000
vn -0.368100 0.637500 0.676800
vn -0.031800 0.055000 0.998000
vn 0.336200 -0.582300 0.740200
vn 0.500000 -0.866000 0.000000
vn 0.336200 -0.582300 -0.740200
vn -0.031800 0.055000 -0.998000
vn -0.368100 0.637500 -0.676800
vn -0.866000 0.500000 0.000000
vn -0.637500 0.368100 0.676800
vn -0.055000 0.031800 0.998000
vn 0.582300 -0.336200 0.740200
vn 0.866000 -0.500000 0.000000
vn 0.582300 -0.336200 -0.740200
vn -0.055000 0.031800 -0.998000
vn -0.637500 0.368100 -0.676800
vn -1.000000 0.000000 0.000000
vn -0.736200 0.000000 0.676800
vn -0.063500 0.000000 0.998000
vn 0.672400 0.000000 0.740200
vn 1.000000 0.000000 0.000000
vn 0.672400 0.000000 -0.740200
vn -0.063500 0.000000 -0.998000
vn -0.736200 0.000000 -0.676800
vn -0.637500 -0.368100 0.676800
vn -0.055000 -0.031800 0.998000
vn 0.582300 0.336200 0.740200
vn 0.582300 0.336200 -0.740200
vn -0.055000 -0.031800 -0.998000
vn -0.637500 -0.368100 -0.676800
vn -0.368100 -0.637500 0.676800
vn -0.031800 -0.055000 0.998000
vn 0.336200 0.582300 0.740200
vn 0.336200 0.582300 -0.740200
vn -0.031800 -0.055000 -0.998000
vn -0.368100 -0.637500 -0.676800
vn 0.000000 -0.736200 0.676800
vn 0.000000 -0.063500 0.998000
vn 0.000000 0.672400 0.740200
vn 0.000000 0.672400 -0.740200
vn 0.000000 -0.063500 -0.998000
vn 0.000000 -0.736200 -0.676800
vn 0.368100 -0.637500 0.676800
vn 0.031800 -0.055000 0.998000
vn -0.336200 0.582300 0.740200
vn -0.336200 0.582300 -0.740200
vn 0.031800 -0.055000 -0.998000
vn 0.368100 -0.637500 -0.676800
vn 0.637500 -0.368100 0.676800
vn 0.055000 -0.031800 0.998000
vn -0.582300 0.336200 0.740200
vn -0.582300 0.336200 -0.740200
vn 0.055000 -0.031800 -0.998000
vn 0.637500 -0.368100 -0.676800
vn 0.063500 0.000000 -0.998000
s 1
f 9/1/1 10/2/2 2/3/3
f 10/4/2 11/5/4 3/6/5
f 11/5/4 12/7/6 4/8/7
f 4/9/7 12/10/6 13/11/8
f 13/11/8 14/12/9 6/13/10
f 6/14/10 14/15/9 15/16/11
f 15/16/11 16/17/12 8/18/13
f 8/19/13 16/20/12 9/1/1
f 17/21/14 18/22/15 10/23/2
f 18/24/15 19/25/16 11/5/4
f 19/25/16 20/26/17 12/7/6
f 12/27/6 20/28/17 21/29/18
f 21/29/18 22/30/19 14/31/9
f 14/15/9 22/32/19 23/33/20
f 23/33/20 24/34/21 16/17/12
f 24/35/21 17/21/14 9/36/1
f 25/37/22 26/38/23 18/22/15
f 18/24/15 26/39/23 27/40/24
f 27/40/24 28/41/25 20/26/17
f 28/42/25 29/43/26 21/29/18
f 29/43/26 30/44/27 22/30/19
f 22/32/19 30/45/27 31/46/28
f 31/46/28 32/47/29 24/34/21
f 24/35/21 32/48/29 25/37/22
f 33/49/30 34/50/31 26/38/23
f 26/39/23 34/51/31 35/52/32
f 35/52/32 36/53/33 28/41/25
f 28/42/25 36/54/33 37/55/34
f 37/55/34 38/56/35 30/44/27
f 38/57/35 39/58/36 31/46/28
f 39/58/36 40/59/37 32/47/29
f 32/48/29 40/60/37 33/49/30
f 41/61/38 42/62/39 34/63/31
f 42/64/39 43/65/40 35/52/32
f 43/65/40 44/66/41 36/53/33
f 44/67/41 45/68/42 37/69/34
f 45/68/42 46/70/43 38/27/35
f 46/71/43 47/72/44 39/58/36
f 47/72/44 48/73/45 40/59/37
f 48/74/45 41/61/38 33/75/30
f 41/61/38 49/76/46 50/77/47
f 50/78/47 51/79/48 43/65/40
f 51/79/48 52/80/49 44/66/41
f 44/67/41 52/81/49 53/82/50
f 45/68/42 53/82/50 54/83/51
f 54/84/51 55/85/52 47/72/44
f 55/85/52 56/86/53 48/73/45
f 56/87/53 49/76/46 41/61/38
f 57/88/8 58/89/54 50/77/47
f 58/90/54 59/91/55 51/79/48
f 59/91/55 60/92/56 52/80/49
f 60/93/56 61/94/1 53/82/50
f 61/94/1 62/54/57 54/83/51
f 62/95/57 63/96/58 55/85/52
f 55/85/52 63/96/58 64/97/59
f 56/87/53 64/98/59 57/88/8
f 57/99/8 65/100/18 66/35/60
f 66/101/60 67/102/61 59/91/55
f 67/102/61 68/103/62 60/92/56
f 60/104/56 68/105/62 69/106/14
f 69/106/14 70/107/63 62/108/57
f 70/109/63 71/110/64 63/96/58
f 71/110/64 72/24/65 64/97/59
f 72/111/65 65/100/18 57/99/8
f 65/100/18 73/112/26 74/48/66
f 74/113/66 75/114/67 67/102/61
f 75/114/67 76/115/68 68/103/62
f 76/116/68 77/117/22 69/106/14
f 77/117/22 78/118/69 70/107/63
f 78/119/69 79/120/70 71/110/64
f 71/110/64 79/120/70 80/39/71
f 80/121/71 73/112/26 65/100/18
f 73/112/26 81/122/34 82/123/72
f 82/124/72 83/125/73 75/114/67
f 83/125/73 84/126/74 76/115/68
f 76/116/68 84/127/74 85/128/30
f 85/128/30 86/129/75 78/118/69
f 86/130/75 87/131/76 79/120/70
f 87/131/76 88/132/77 80/39/71
f 88/133/77 81/122/34 73/112/26
f 89/134/42 90/135/78 82/136/72
f 82/124/72 90/137/78 91/138/79
f 91/138/79 92/139/80 84/126/74
f 92/140/80 93/141/38 85/142/30
f 85/142/30 93/141/38 94/143/81
f 86/130/75 94/144/81 95/145/82
f 95/145/82 96/146/83 88/132/77
f 96/147/83 89/134/42 81/148/34
f 89/134/42 1/149/50 2/3/3
f 90/137/78 2/150/3 3/6/5
f 3/6/5 4/8/7 92/139/80
f 4/9/7 5/151/46 93/141/38
f 93/141/38 5/151/46 6/13/10
f 6/14/10 7/152/84 95/145/82
f 7/152/84 8/18/13 96/146/83
f 8/19/13 1/149/50 89/134/42
f 1/149/50 9/1/1 2/3/3
f 2/150/3 10/4/2 3/6/5
f 3/6/5 11/5/4 4/8/7
f 5/151/46 4/9/7 13/11/8
f 5/151/46 13/11/8 6/13/10
f 7/152/84 6/14/10 15/16/11
f 7/152/84 15/16/11 8/18/13
f 1/149/50 8/19/13 9/1/1
f 9/36/1 17/21/14 10/23/2
f 10/4/2 18/24/15 11/5/4
f 11/5/4 19/25/16 12/7/6
f 13/153/8 12/27/6 21/29/18
f 13/153/8 21/29/18 14/31/9
f 15/16/11 14/15/9 23/33/20
f 15/16/11 23/33/20 16/17/12
f 16/154/12 24/35/21 9/36/1
f 17/21/14 25/37/22 18/22/15
f 19/25/16 18/24/15 27/40/24
f 19/25/16 27/40/24 20/26/17
f 20/28/17 28/42/25 21/29/18
f 21/29/18 29/43/26 22/30/19
f 23/33/20 22/32/19 31/46/28
f 23/33/20 31/46/28 24/34/21
f 17/21/14 24/35/21 25/37/22
f 25/37/22 33/49/30 26/38/23
f 27/40/24 26/39/23 35/52/32
f 27/40/24 35/52/32 28/41/25
f 29/43/26 28/42/25 37/55/34
f 29/43/26 37/55/34 30/44/27
f 30/45/27 38/57/35 31/46/28
f 31/46/28 39/58/36 32/47/29
f 25/37/22 32/48/29 33/49/30
f 33/75/30 41/61/38 34/63/31
f 34/51/31 42/64/39 35/52/32
f 35/52/32 43/65/40 36/53/33
f 36/155/33 44/67/41 37/69/34
f 37/69/34 45/68/42 38/27/35
f 38/57/35 46/71/43 39/58/36
f 39/58/36 47/72/44 40/59/37
f 40/156/37 48/74/45 33/75/30
f 42/62/39 41/61/38 50/77/47
f 42/64/39 50/78/47 43/65/40
f 43/65/40 51/79/48 44/66/41
f 45/68/42 44/67/41 53/82/50
f 46/70/43 45/68/42 54/83/51
f 46/71/43 54/84/51 47/72/44
f 47/72/44 55/85/52 48/73/45
f 48/74/45 56/87/53 41/61/38
f 49/76/46 57/88/8 50/77/47
f 50/78/47 58/90/54 51/79/48
f 51/79/48 59/91/55 52/80/49
f 52/81/49 60/93/56 53/82/50
f 53/82/50 61/94/1 54/83/51
f 54/84/51 62/95/57 55/85/52
f 56/86/53 55/85/52 64/97/59
f 49/76/46 56/87/53 57/88/8
f 58/157/54 57/99/8 66/35/60
f 58/90/54 66/101/60 59/91/55
f 59/91/55 67/102/61 60/92/56
f 61/158/1 60/104/56 69/106/14
f 61/158/1 69/106/14 62/108/57
f 62/95/57 70/109/63 63/96/58
f 63/96/58 71/110/64 64/97/59
f 64/159/59 72/111/65 57/99/8
f 66/35/60 65/100/18 74/48/66
f 66/101/60 74/113/66 67/102/61
f 67/102/61 75/114/67 68/103/62
f 68/105/62 76/116/68 69/106/14
f 69/106/14 77/117/22 70/107/63
f 70/109/63 78/119/69 71/110/64
f 72/24/65 71/110/64 80/39/71
f 72/111/65 80/121/71 65/100/18
f 74/48/66 73/112/26 82/123/72
f 74/113/66 82/124/72 75/114/67
f 75/114/67 83/125/73 76/115/68
f 77/117/22 76/116/68 85/128/30
f 77/117/22 85/128/30 78/118/69
f 78/119/69 86/130/75 79/120/70
f 79/120/70 87/131/76 80/39/71
f 80/121/71 88/133/77 73/112/26
f 81/148/34 89/134/42 82/136/72
f 83/125/73 82/124/72 91/138/79
f 83/125/73 91/138/79 84/126/74
f 84/160/74 92/140/80 85/142/30
f 86/161/75 85/142/30 94/143/81
f 87/131/76 86/130/75 95/145/82
f 87/131/76 95/145/82 88/132/77
f 88/162/77 96/147/83 81/148/34
f 90/135/78 89/134/42 2/3/3
f 91/138/79 90/137/78 3/6/5
f 91/138/79 3/6/5 92/139/80
f 92/140/80 4/9/7 93/141/38
f 94/143/81 93/141/38 6/13/10
f 94/144/81 6/14/10 95/145/82
f 95/145/82 7/152/84 96/146/83
f 96/147/83 8/19/13 89/134/42
