# Blender v2.76 (sub 0) OBJ File: ''
# www.blender.org
v 1.165256 -0.728071 -0.441132
v 0.762782 0.395439 0.604450
v 0.455664 -0.211334 -0.945279
v 0.623631 -0.884431 0.171223
v -1.582695 0.418840 -0.003962
v -0.651793 0.357940 -1.264627
v 0.518193 0.036802 1.302767
v 0.927329 -0.837005 -0.190804
v -0.275440 -0.965393 0.156418
v -1.109585 -0.431441 -1.075379
v -1.130961 0.464428 0.568907
v -0.286826 -0.978746 -0.246503
v -0.320652 -0.858258 0.656709
v 1.247812 -0.689381 -0.048475
v 1.146046 0.432853 -0.203070
v -0.054897 -0.917178 0.390779
v -1.150176 0.941039 0.415147
v 0.436255 0.877678 0.426573
v 0.942068 -0.788817 -0.625497
v 1.225808 -0.196452 -0.422107
v 1.050211 0.104071 -0.589228
v 1.089200 0.241270 0.265476
v -0.985101 -0.300286 -1.266078
v -0.752948 0.834419 0.628316
v -0.568480 -0.895280 0.479616
v 0.486599 -0.905097 -0.413424
v -0.615341 1.248711 -0.092260
v -0.727912 -0.008209 0.887748
v 0.153267 -0.927388 0.151455
v -0.935667 1.051385 -0.279527
v 0.023851 0.919030 -0.839194
v -0.882946 -0.805471 0.691911
v -0.067238 -0.749749 1.333868
v 1.445276 -0.523247 -0.025798
v -0.709909 -0.042648 -1.272751
v -0.433242 1.207008 0.411418
v -1.007843 0.016998 -1.262386
v -1.029178 -0.861962 -0.395417
v -1.059214 -0.697408 -0.755925
v -1.262264 0.985568 -0.068709
v -0.232080 1.000795 0.760422
v -0.529558 -0.731356 1.192317
v 0.847008 -0.729166 0.803750
v -1.400888 0.328108 -0.870568
v 0.149166 -0.494449 1.309702
v -0.670393 1.301625 0.100161
v 0.168650 -0.062264 1.184721
v 0.754513 0.158804 0.942169
v -0.232051 -0.791786 1.126488
v -0.624113 -0.763385 0.958494
v 0.224343 0.736633 -1.055735
v 1.001088 0.486249 0.007591
v -0.519564 -0.888065 -0.564575
v 0.926877 -0.600221 -0.653322
v -0.764028 -0.417944 1.009864
v 0.728591 0.923277 -0.196751
v -1.056143 -0.909217 0.086939
v 0.023171 1.015213 0.640709
v -0.672681 -0.992657 -0.094600
v -0.865879 -0.874281 0.384547
v -0.783948 -0.971919 0.171218
v 0.702427 -0.809650 0.441542
v -1.524103 0.136691 0.170859
v 0.270929 1.198919 -0.088041
v 0.983846 -0.440947 0.965557
v 1.014832 -0.622700 0.900917
v 0.253320 -0.529881 -1.030551
v 1.398913 -0.007770 -0.273366
v 0.153890 -0.757223 -1.071430
v 0.342213 0.554731 -0.995021
v 0.472724 1.095859 -0.228464
v -0.378187 -0.603378 -1.207347
v -0.177422 -0.173792 -1.176847
v -0.348629 1.056357 -0.566064
v 1.125773 0.478270 -0.488933
v -1.251362 -0.175936 -0.934478
v -0.875806 1.157877 0.421855
v -0.581558 1.127225 0.572827
v -0.046154 0.290476 -1.180719
v -0.041030 1.241793 0.151902
v -0.461388 -0.699125 -1.009995
v 0.735761 -0.888223 -0.471891
v -0.994836 0.397716 -1.012372
v -0.340665 0.285139 0.924178
v -1.143746 -0.729269 0.575005
v 1.298093 0.098441 0.007754
v 0.826402 0.562045 0.178354
v 1.120934 -0.059342 0.617048
v 0.300673 0.210440 -1.024216
v 1.459570 -0.256545 -0.133798
v -0.149862 0.568138 -1.231005
v 0.550412 -0.309630 1.354561
v 0.189501 0.700641 1.008419
v 0.235351 1.082425 0.290276
v -1.595126 0.430248 0.338652
v 0.552687 -0.753920 0.944805
v 0.804762 -0.333259 -0.759945
v -0.035380 1.296622 -0.179153
v -1.198690 -0.107516 -1.198579
v -0.035724 -0.846176 0.786697
v 1.059305 -0.735972 0.351090
v 0.164945 -0.973431 -0.149820
v -0.161907 -0.826483 -0.888617
v -0.490932 -0.263295 -1.222634
v -1.186993 -0.450975 -0.366010
v 0.646635 -0.014996 -0.824437
v 0.608547 0.947433 -0.735232
v -1.368833 0.716059 -0.446606
v -1.487019 0.465993 -0.635006
v 0.566785 0.949913 0.028198
v 0.219805 -0.776745 1.136957
v 1.304680 -0.146668 0.309620
v 0.551270 0.346448 1.001756
v -0.256869 -0.417793 1.181517
v 0.430839 0.283931 1.226536
v 0.288315 -0.879895 0.480258
v 0.680485 0.673417 0.314748
v 1.262216 -0.597764 0.521150
v 0.237054 -0.807638 0.813025
v 1.398391 -0.553810 0.187503
v -0.816020 -0.628726 -0.997223
v -1.428999 -0.074986 0.653343
v -1.463361 0.180495 -0.398984
v -0.303779 0.590934 0.900446
v 0.866654 0.811978 -0.370297
v 0.136981 -0.934683 -0.571786
v -0.396359 0.650198 -1.062249
v -1.445992 0.409040 0.463272
v 0.388161 1.165568 -0.438367
v 0.533458 0.621348 0.695832
v 1.360232 -0.603974 -0.194554
v -0.822719 0.723706 -0.759839
v 0.906475 0.218258 0.619542
v 0.753067 0.365213 -0.748947
v 0.867443 -0.115702 0.987853
v 0.820140 0.790288 -0.655766
v 0.038766 1.135102 -0.517214
v 1.295313 0.235166 -0.367554
v -1.113057 -0.580838 0.912539
v 0.238260 -0.681472 1.373345
v 0.138957 -0.155201 -1.066491
v -0.402687 0.197621 -1.240316
v 0.527845 -0.583569 -0.901090
v 0.763154 -0.616317 1.177906
v 0.505220 -0.595893 1.371954
v 0.305155 0.510200 1.125450
v 0.472212 -0.929095 -0.001357
v -1.285853 -0.375905 0.790698
v 0.538072 -0.797233 -0.875164
v -0.778433 -0.433041 -1.265942
v -0.902213 1.237925 0.110675
v -0.356719 1.326296 -0.001268
v -0.132072 -0.480179 -1.172371
v -1.434380 0.735791 0.313224
vt 0.553478 0.127124
vt 0.556043 0.088861
vt 0.584149 0.098957
vt 0.584547 0.405779
vt 0.601007 0.383698
vt 0.614569 0.395101
vt 0.769286 0.335046
vt 0.758818 0.366527
vt 0.741963 0.329809
vt 0.838122 0.007120
vt 0.865688 0.034640
vt 0.824749 0.032892
vt 0.892276 0.457601
vt 0.933823 0.440746
vt 0.919295 0.469097
vt 0.672282 0.353498
vt 0.704141 0.333732
vt 0.701957 0.372537
vt 0.732947 0.477521
vt 0.772682 0.443513
vt 0.790309 0.471590
vt 0.571399 0.162132
vt 0.578939 0.191293
vt 0.543736 0.208263
vt 0.596535 0.140665
vt 0.591626 0.160338
vt 0.825765 0.067705
vt 0.872588 0.339982
vt 0.855510 0.294557
vt 0.912341 0.316490
vt 0.782977 0.365850
vt 0.892416 0.190023
vt 0.915175 0.189679
vt 0.917610 0.211975
vt 0.588436 0.064898
vt 0.602413 0.104747
vt 0.812284 0.184442
vt 0.851995 0.197333
vt 0.814252 0.215319
vt 0.858341 0.128805
vt 0.858618 0.098595
vt 0.882768 0.118353
vt 0.935000 0.190259
vt 0.959037 0.207884
vt 0.648701 0.451425
vt 0.664586 0.484271
vt 0.634813 0.481191
vt 0.641875 0.403678
vt 0.672488 0.414884
vt 0.666470 0.053660
vt 0.624656 0.072607
vt 0.617846 0.051118
vt 0.669093 0.146910
vt 0.711540 0.163912
vt 0.673862 0.169241
vt 0.666631 0.331029
vt 0.715203 0.310754
vt 0.954766 0.327924
vt 0.898398 0.347824
vt 0.784673 0.400895
vt 0.760693 0.401646
vt 0.817496 0.009857
vt 0.739778 0.390559
vt 0.687227 0.447778
vt 0.570153 0.433765
vt 0.613529 0.446193
vt 0.825990 0.147226
vt 0.549601 0.056946
vt 0.576995 0.034602
vt 0.898038 0.415848
vt 0.940662 0.408205
vt 0.896297 0.259062
vt 0.883732 0.226239
vt 0.512575 0.040133
vt 0.518049 0.019441
vt 0.545024 0.012072
vt 0.934417 0.086966
vt 0.941501 0.110894
vt 0.904578 0.095246
vt 0.831072 0.242270
vt 0.793134 0.220295
vt 0.675849 0.388305
vt 0.867631 0.167183
vt 0.630936 0.157762
vt 0.612227 0.159406
vt 0.523786 0.122553
vt 0.506315 0.074823
vt 0.599465 0.004594
vt 0.615120 0.027691
vt 0.556923 0.274793
vt 0.530952 0.236728
vt 0.569161 0.238277
vt 0.813300 0.445649
vt 0.976115 0.154786
vt 0.960230 0.183479
vt 0.933419 0.164324
vt 0.794626 0.055402
vt 0.807073 0.026170
vt 0.630267 0.005199
vt 0.597278 0.278363
vt 0.629153 0.255555
vt 0.909334 0.126476
vt 0.630198 0.212982
vt 0.755402 0.301926
vt 0.652316 0.110950
vt 0.623270 0.122321
vt 0.991460 0.228075
vt 0.994068 0.261036
vt 0.859787 0.245876
vt 0.794373 0.326260
vt 0.805567 0.308143
vt 0.850702 0.337050
vt 0.977132 0.115779
vt 0.940370 0.138780
vt 0.866719 0.427683
vt 0.860406 0.464336
vt 0.699452 0.015220
vt 0.710607 0.054363
vt 0.660144 0.032486
vt 0.678734 0.113952
vt 0.666702 0.077849
vt 0.701045 0.087477
vt 0.879435 0.379693
vt 0.810398 0.094818
vt 0.788062 0.082484
vt 0.695138 0.212240
vt 0.730784 0.200526
vt 0.732192 0.234244
vt 0.666749 0.313378
vt 0.708997 0.287887
vt 0.723808 0.299170
vt 0.872342 0.007644
vt 0.739467 0.134487
vt 0.707920 0.122202
vt 0.729820 0.099626
vt 0.990459 0.200432
vt 0.827524 0.395511
vt 0.867003 0.079482
vt 0.692775 0.260794
vt 0.746348 0.432723
vt 0.728204 0.430183
vt 0.711618 0.406074
vt 0.817850 0.358386
vt 0.724001 0.352939
vt 0.824606 0.112982
vt 0.506641 0.117963
vt 0.578133 0.128079
vt 0.928291 0.366783
vt 0.876756 0.474093
vt 0.605189 0.314778
vt 0.934341 0.055318
vt 0.974422 0.040538
vt 0.962416 0.076985
vt 0.831597 0.303917
vt 0.816116 0.280542
vt 0.838055 0.272431
vt 0.544421 0.169639
vt 0.748916 0.165539
vt 0.512509 0.152285
vt 0.521762 0.181226
vt 0.633394 0.090104
vt 0.758669 0.186645
vt 0.778458 0.302188
vt 0.849250 0.487911
vt 0.815783 0.495097
vt 0.705562 0.183618
vt 0.708203 0.482278
vt 0.898104 0.151994
vt 0.806189 0.259588
vt 0.691317 0.065633
vt 0.947530 0.026225
vt 0.648021 0.367794
vt 0.961034 0.297463
vt 0.985440 0.317932
vt 0.782362 0.168034
vt 0.993658 0.139269
vt 0.632906 0.318088
vt 0.911608 0.035608
vt 0.914157 0.015271
vt 0.737560 0.268923
vt 0.983172 0.065447
vt 0.782940 0.126985
vt 0.989836 0.094395
vt 0.633651 0.354087
vt 0.523705 0.207628
vt 0.648597 0.194263
vt 0.886516 0.061918
vt 0.584058 0.464939
vt 0.572428 0.005247
vt 0.674180 0.009983
vt 0.609858 0.473456
vt 0.872742 0.350886
vt 0.956427 0.380719
vt 0.768304 0.495236
vt 0.561289 0.450732
vn 0.734200 0.305400 0.606300
vn 0.798100 0.366500 0.478200
vn 0.707000 0.554800 0.438500
vn 0.670600 -0.587000 -0.453500
vn 0.530500 -0.613100 -0.585400
vn 0.591100 -0.062600 -0.804100
vn 0.062500 -0.016600 -0.997900
vn 0.135400 -0.046300 -0.989700
vn 0.156200 -0.030800 -0.987200
vn 0.875900 -0.415000 0.246200
vn 0.380500 -0.914000 0.140700
vn 0.518000 -0.853900 0.049800
vn -0.422500 0.906100 -0.020100
vn -0.554000 0.559900 0.616000
vn -0.379200 0.747500 0.545400
vn 0.390500 -0.010700 -0.920500
vn 0.240900 -0.032800 -0.970000
vn 0.352300 -0.028000 -0.935400
vn 0.461400 0.668600 -0.583100
vn -0.045000 0.797400 -0.601700
vn -0.030600 0.864900 -0.501000
vn 0.259500 0.310400 0.914500
vn -0.328100 0.239700 0.913700
vn -0.206200 0.240700 0.948400
vn 0.662300 0.557700 0.500400
vn 0.234000 0.416600 0.878400
vn 0.320200 -0.947100 0.019500
vn -0.783200 0.264900 -0.562500
vn -0.924000 -0.331300 -0.190800
vn -0.940700 -0.304300 -0.149800
vn -0.194300 0.390700 -0.899700
vn -0.096100 -0.992200 -0.079700
vn -0.152900 -0.972800 0.174000
vn -0.624200 -0.780900 0.023500
vn 0.739300 0.570900 0.356900
vn 0.701700 0.591400 0.397300
vn -0.099600 -0.914700 -0.391600
vn -0.129900 -0.940100 -0.315000
vn -0.188100 -0.871200 -0.453300
vn 0.082800 -0.996500 0.011800
vn 0.138600 -0.988300 0.063400
vn 0.074300 -0.988300 0.133200
vn -0.239700 -0.931100 0.275000
vn -0.693100 -0.694700 0.192000
vn 0.594000 0.029900 -0.803900
vn 0.790400 0.406200 -0.458400
vn 0.882400 0.317500 -0.347200
vn 0.540500 -0.016600 -0.841200
vn 0.499300 0.044500 -0.865300
vn 0.649700 0.733300 0.200300
vn 0.695700 0.617900 0.366400
vn 0.705100 0.615700 0.351700
vn 0.309600 0.831500 0.461200
vn 0.042400 0.923900 0.380300
vn -0.068000 0.674700 0.734900
vn 0.219100 -0.573400 -0.789500
vn -0.013700 -0.505100 -0.862900
vn -0.988900 0.113900 -0.095600
vn -0.880800 0.290900 -0.373500
vn -0.249500 0.732700 -0.633100
vn 0.085000 0.382000 -0.920300
vn 0.928800 -0.370400 -0.010700
vn 0.318200 -0.054600 -0.946400
vn 0.528700 0.066600 -0.846200
vn 0.804900 -0.503700 -0.313700
vn 0.697800 -0.066900 -0.713200
vn 0.052000 -0.975600 -0.213400
vn 0.886800 0.281400 0.366500
vn 0.851200 0.452700 0.265400
vn -0.663200 0.735700 -0.137000
vn -0.742100 0.529300 0.411200
vn -0.918800 -0.381000 -0.103100
vn -0.604000 -0.767400 -0.215100
vn 0.983600 0.054700 -0.172100
vn 0.108600 -0.979600 0.169000
vn 0.034400 -0.985500 0.166100
vn 0.108600 -0.979600 0.169200
vn -0.255600 -0.817000 -0.516800
vn 0.436200 0.006300 -0.899800
vn -0.014800 -0.994400 -0.105000
vn 0.180500 0.626700 0.758000
vn 0.184900 0.528400 0.828600
vn 0.776400 0.070300 0.626300
vn 0.807600 -0.456100 0.373700
vn 0.781800 0.588700 0.205500
vn -0.359300 -0.491200 0.793500
vn -0.142100 -0.527800 0.837300
vn -0.273900 0.288900 0.917300
vn -0.192600 0.822400 -0.535200
vn -0.225300 -0.937200 0.266100
vn -0.279000 -0.907000 0.315400
vn -0.057100 -0.968000 0.244500
vn -0.338700 0.277200 0.899100
vn -0.323800 0.302800 0.896300
vn 0.039900 -0.986300 0.159700
vn -0.343100 0.221500 0.912800
vn -0.128000 -0.426900 -0.895200
vn 0.589200 0.710500 0.384600
vn 0.653800 0.620100 0.433400
vn -0.775000 -0.131200 0.618200
vn -0.812300 -0.049000 0.581200
vn -0.626900 -0.707200 -0.326900
vn -0.289800 0.220300 -0.931400
vn -0.714000 -0.081300 -0.695400
vn -0.071600 -0.975000 0.210300
vn -0.044100 -0.979100 0.198600
vn -0.342400 0.809000 -0.477700
vn -0.216600 0.893800 -0.392600
vn 0.321800 0.911700 -0.255400
vn 0.718800 0.695100 0.012300
vn 0.446700 0.821800 0.353500
vn 0.612700 0.721100 0.323300
vn 0.415100 0.893100 0.173100
vn -0.650800 0.659700 -0.375700
vn 0.192100 -0.970900 -0.143000
vn -0.370000 0.307600 0.876600
vn -0.473500 0.340000 0.812500
vn -0.925300 0.184800 0.331100
vn -0.015100 0.998900 -0.044500
vn 0.233100 0.930200 0.283300
vn 0.081500 0.983900 -0.158700
vn -0.583300 -0.357100 0.729500
vn -0.330300 0.719000 -0.611500
vn 0.204600 -0.969100 0.137300
vn -0.370000 0.301600 0.878700
vn 0.304000 0.444300 -0.842600
vn 0.505700 0.057100 -0.860800
vn 0.445800 -0.006400 -0.895000
vn -0.380100 0.619000 -0.687200
vn 0.234400 -0.032700 -0.971600
vn 0.099400 -0.986900 -0.127100
vn 0.681600 -0.537200 0.496700
vn 0.714300 0.482500 0.506800
vn -0.166200 0.985900 0.018800
vn 0.186700 -0.950000 0.250100
vn 0.262100 -0.419400 0.869100
vn 0.156500 -0.957000 0.244300
vn -0.317900 -0.294500 -0.901200
vn -0.673600 -0.561200 -0.480900
vn 0.308800 0.114000 0.944300
vn 0.542200 -0.531900 0.650400
vn 0.722300 0.606600 0.331900
vn -0.201000 0.707000 0.678100
vn 0.673700 0.484500 -0.557900
vn 0.031200 -0.991300 0.127800
vn 0.540000 0.829800 0.140600
vn 0.462000 -0.063500 -0.884600
vn -0.945600 -0.322900 -0.039200
vn 0.289700 -0.928700 0.231300
vn 0.075400 -0.445000 0.892300
vn 0.358700 -0.625700 -0.692700
vn -0.362000 0.227500 0.904000
vn 0.206500 -0.963400 0.170900
vn 0.931800 0.168600 -0.321400
s 1
f 135/1/1 88/2/2 133/3/3
f 1/4/4 19/5/5 54/6/6
f 35/7/7 142/8/8 104/9/9
f 120/10/10 101/11/11 14/12/12
f 151/13/13 17/14/14 77/15/15
f 67/16/16 153/17/17 141/18/18
f 107/19/19 31/20/20 137/21/21
f 7/22/22 47/23/23 45/24/24
f 7/22/22 113/25/25 115/26/26
f 101/11/11 8/27/27 14/12/12
f 44/28/28 76/29/29 123/30/30
f 6/31/31 142/8/8 35/7/7
f 59/32/32 61/33/33 57/34/34
f 133/3/3 22/35/35 2/36/36
f 103/37/37 53/38/38 81/39/39
f 102/40/40 147/41/41 29/42/42
f 60/43/43 85/44/44 57/34/34
f 21/45/45 75/46/46 138/47/47
f 21/45/45 97/48/48 106/49/49
f 56/50/50 87/51/51 52/52/52
f 58/53/53 36/54/54 41/55/55
f 69/56/56 72/57/57 153/17/17
f 5/58/58 109/59/59 123/30/30
f 127/60/60 91/61/61 6/31/31
f 120/10/10 14/12/12 34/62/62
f 91/61/61 79/63/63 142/8/8
f 134/64/64 75/46/46 21/45/45
f 131/65/65 1/4/4 20/66/66
f 53/38/38 103/37/37 126/67/67
f 112/68/68 86/69/69 22/35/35
f 40/70/70 154/71/71 151/13/13
f 57/34/34 105/72/72 38/73/73
f 120/74/10 34/75/62 90/76/74
f 119/77/75 100/78/76 116/79/77
f 123/30/30 76/29/29 105/72/72
f 81/39/39 121/80/78 72/81/57
f 106/49/49 97/48/48 3/82/79
f 126/67/67 102/40/40 12/83/80
f 93/84/81 146/85/82 113/25/25
f 65/86/83 118/87/84 88/2/2
f 138/88/47 15/89/85 86/69/69
f 42/90/86 33/91/87 114/92/88
f 74/93/89 137/21/21 31/20/20
f 50/94/90 32/95/91 25/96/92
f 14/12/12 1/97/4 131/98/65
f 75/99/46 15/89/85 138/88/47
f 55/100/93 114/92/88 28/101/94
f 116/79/77 16/102/95 29/42/42
f 28/101/94 114/92/88 84/103/96
f 35/7/7 104/9/9 150/104/97
f 18/105/98 93/84/81 130/106/99
f 148/107/100 122/108/101 85/44/44
f 21/45/45 138/47/47 20/66/66
f 53/38/38 39/109/102 121/80/78
f 37/110/103 99/111/104 44/112/28
f 130/106/99 93/84/81 113/25/25
f 49/113/105 13/114/106 100/78/76
f 30/115/107 151/13/13 27/116/108
f 107/117/19 129/118/109 125/119/110
f 94/120/111 110/121/112 64/122/113
f 30/115/107 40/70/70 151/13/13
f 12/83/80 59/32/32 53/38/38
f 50/94/90 25/96/92 13/114/106
f 108/123/114 40/70/70 30/115/107
f 8/27/27 82/124/115 19/125/5
f 34/62/62 14/12/12 131/98/65
f 24/126/116 77/127/15 17/128/14
f 122/129/101 128/130/117 95/131/118
f 30/115/107 27/116/108 74/93/89
f 118/132/84 101/11/11 120/10/10
f 152/133/119 80/134/120 98/135/121
f 139/136/122 148/107/100 85/44/44
f 65/86/83 88/2/2 135/1/1
f 90/76/74 86/69/69 112/68/68
f 132/137/123 108/123/114 30/115/107
f 4/138/124 8/27/27 101/11/11
f 50/94/90 13/114/106 49/113/105
f 15/89/85 125/119/110 52/52/52
f 103/37/37 81/39/39 72/81/57
f 17/128/14 11/139/125 24/126/116
f 51/140/126 70/141/127 79/63/63
f 70/141/127 89/142/128 79/63/63
f 83/143/129 44/112/28 108/123/114
f 153/17/17 73/144/130 141/18/18
f 89/142/128 3/82/79 141/18/18
f 102/40/40 26/145/131 147/41/41
f 66/146/132 118/87/84 65/86/83
f 48/147/133 7/22/22 135/1/1
f 108/123/114 5/148/58 154/71/71
f 70/141/127 51/140/126 107/19/19
f 46/149/134 27/116/108 151/13/13
f 55/100/93 139/150/122 42/90/86
f 96/151/135 145/152/136 111/153/137
f 99/154/104 23/155/138 10/156/139
f 135/1/1 7/22/22 92/157/140
f 152/133/119 46/158/134 36/54/54
f 3/82/79 67/16/16 141/18/18
f 144/159/141 92/157/140 145/160/136
f 94/120/111 64/122/113 80/134/120
f 59/32/32 57/34/34 38/73/73
f 117/161/142 2/36/36 87/51/51
f 46/158/134 151/162/13 77/127/15
f 113/25/25 2/36/36 130/106/99
f 23/163/138 37/110/103 35/7/7
f 152/164/119 98/165/121 27/116/108
f 117/161/142 87/51/51 110/121/112
f 36/54/54 80/134/120 152/133/119
f 41/55/55 36/54/54 78/166/143
f 70/141/127 134/64/64 89/142/128
f 70/141/127 107/19/19 136/167/144
f 76/29/29 39/109/102 105/72/72
f 118/87/84 112/68/68 88/2/2
f 25/96/92 61/33/33 9/168/145
f 37/110/103 23/163/138 99/111/104
f 58/53/53 94/120/111 80/134/120
f 83/143/129 127/60/60 6/31/31
f 121/80/78 10/156/139 150/169/97
f 83/143/129 108/123/114 132/137/123
f 42/90/86 114/92/88 55/100/93
f 116/79/77 29/42/42 147/41/41
f 74/93/89 31/20/20 127/60/60
f 7/22/22 115/26/26 47/23/23
f 132/137/123 127/60/60 83/143/129
f 28/101/94 84/103/96 11/139/125
f 141/18/18 73/144/130 79/63/63
f 56/50/50 129/118/109 71/170/146
f 96/151/135 144/171/141 145/152/136
f 53/38/38 38/73/73 39/109/102
f 114/92/88 47/23/23 84/103/96
f 67/16/16 3/82/79 143/172/147
f 5/58/58 63/173/148 95/174/118
f 154/71/71 17/14/14 151/13/13
f 98/165/121 137/21/21 74/93/89
f 142/8/8 79/63/63 73/144/130
f 103/37/37 69/175/56 126/67/67
f 78/166/143 77/127/15 24/126/116
f 139/136/122 50/94/90 42/176/86
f 63/173/148 105/72/72 57/34/34
f 100/78/76 13/114/106 16/102/95
f 86/69/69 52/52/52 22/35/35
f 142/8/8 73/144/130 104/9/9
f 139/150/122 55/100/93 148/177/100
f 32/95/91 60/43/43 25/96/92
f 98/165/121 74/93/89 27/116/108
f 126/67/67 12/83/80 53/38/38
f 8/27/27 1/97/4 14/12/12
f 43/178/149 66/179/132 144/171/141
f 110/121/112 56/50/50 71/170/146
f 30/115/107 74/93/89 132/137/123
f 135/1/1 133/3/3 48/147/133
f 88/2/2 112/68/68 22/35/35
f 85/44/44 122/108/101 57/34/34
f 134/64/64 106/49/49 89/142/128
f 58/53/53 18/105/98 94/120/111
f 95/131/118 128/130/117 154/180/71
f 145/152/136 140/181/150 111/153/137
f 84/103/96 24/126/116 11/139/125
f 55/100/93 28/101/94 148/177/100
f 150/104/97 104/9/9 72/57/57
f 69/175/56 149/182/151 126/67/67
f 33/183/87 100/78/76 111/153/137
f 6/31/31 91/61/61 142/8/8
f 63/173/148 123/30/30 105/72/72
f 126/67/67 149/182/151 26/145/131
f 20/66/66 54/6/6 97/48/48
f 149/184/151 143/172/147 19/5/5
f 83/143/129 6/31/31 37/110/103
f 134/64/64 136/167/144 75/46/46
f 33/91/87 140/185/150 45/24/24
f 41/55/55 24/126/116 124/186/152
f 48/147/133 113/25/25 7/22/22
f 43/178/149 96/151/135 62/187/153
f 130/106/99 2/36/36 117/161/142
f 32/95/91 85/44/44 60/43/43
f 69/56/56 153/17/17 67/16/16
f 103/37/37 72/81/57 69/175/56
f 26/145/131 149/182/151 82/124/115
f 120/74/10 112/68/68 118/87/84
f 134/64/64 70/141/127 136/167/144
f 119/77/75 111/153/137 100/78/76
f 2/36/36 22/35/35 87/51/51
f 139/136/122 32/95/91 50/94/90
f 146/85/82 115/26/26 113/25/25
f 3/82/79 97/48/48 143/172/147
f 90/188/74 131/65/65 20/66/66
f 122/108/101 95/174/118 63/173/148
f 42/176/86 50/94/90 49/113/105
f 145/160/136 45/24/24 140/185/150
f 4/138/124 147/41/41 8/27/27
f 36/54/54 46/158/134 78/166/143
f 20/66/66 1/4/4 54/6/6
f 122/108/101 63/173/148 57/34/34
f 41/55/55 124/186/152 93/84/81
f 65/86/83 135/1/1 92/157/140
f 68/189/154 86/69/69 90/76/74
f 147/41/41 26/145/131 82/124/115
f 136/190/144 107/117/19 125/119/110
f 115/26/26 84/103/96 47/23/23
f 149/182/151 19/125/5 82/124/115
f 20/66/66 138/47/47 68/191/154
f 49/113/105 33/183/87 42/176/86
f 9/168/145 29/42/42 16/102/95
f 148/177/100 28/101/94 122/129/101
f 109/192/59 5/148/58 108/123/114
f 72/57/57 104/9/9 153/17/17
f 143/172/147 54/6/6 19/5/5
f 33/91/87 45/24/24 114/92/88
f 10/156/139 39/109/102 76/29/29
f 154/180/71 128/130/117 11/139/125
f 12/83/80 9/168/145 59/32/32
f 64/122/113 71/170/146 129/118/109
f 18/105/98 130/106/99 117/161/142
f 125/119/110 129/118/109 56/50/50
f 110/121/112 71/170/146 64/122/113
f 109/59/59 44/28/28 123/30/30
f 133/3/3 2/36/36 48/147/133
f 62/187/153 4/138/124 101/11/11
f 9/168/145 16/102/95 13/114/106
f 5/148/58 95/193/118 154/71/71
f 80/134/120 36/54/54 58/53/53
f 28/101/94 11/139/125 122/129/101
f 108/123/114 44/112/28 109/192/59
f 37/110/103 6/31/31 35/7/7
f 25/96/92 9/168/145 13/114/106
f 22/35/35 52/52/52 87/51/51
f 18/105/98 110/121/112 94/120/111
f 154/180/71 11/139/125 17/128/14
f 41/55/55 78/166/143 24/126/116
f 102/40/40 29/42/42 9/168/145
f 96/151/135 119/77/75 116/79/77
f 123/30/30 63/173/148 5/58/58
f 139/136/122 85/44/44 32/95/91
f 127/60/60 132/137/123 74/93/89
f 56/50/50 52/52/52 125/119/110
f 10/156/139 121/80/78 39/109/102
f 87/51/51 56/50/50 110/121/112
f 15/89/85 52/52/52 86/69/69
f 124/186/152 84/103/96 146/85/82
f 88/2/2 22/35/35 133/3/3
f 124/186/152 146/85/82 93/84/81
f 21/45/45 20/66/66 97/48/48
f 129/194/109 107/19/19 137/21/21
f 69/56/56 67/16/16 149/184/151
f 108/123/114 154/71/71 40/70/70
f 136/190/144 125/119/110 75/99/46
f 92/157/140 45/24/24 145/160/136
f 114/92/88 45/24/24 47/23/23
f 4/138/124 116/79/77 147/41/41
f 116/79/77 100/78/76 16/102/95
f 129/194/109 137/21/21 98/165/121
f 51/140/126 91/61/61 31/20/20
f 43/178/149 62/187/153 101/11/11
f 59/32/32 9/168/145 61/33/33
f 90/188/74 20/66/66 68/191/154
f 118/132/84 66/179/132 43/178/149
f 51/140/126 31/20/20 107/19/19
f 124/186/152 24/126/116 84/103/96
f 147/41/41 82/124/115 8/27/27
f 10/156/139 23/155/138 150/169/97
f 134/64/64 21/45/45 106/49/49
f 34/195/62 131/65/65 90/188/74
f 19/125/5 1/97/4 8/27/27
f 67/16/16 143/172/147 149/184/151
f 153/17/17 104/9/9 73/144/130
f 81/39/39 53/38/38 121/80/78
f 46/149/134 152/164/119 27/116/108
f 89/142/128 141/18/18 79/63/63
f 106/49/49 3/82/79 89/142/128
f 91/61/61 127/60/60 31/20/20
f 113/25/25 48/147/133 2/36/36
f 62/187/153 116/79/77 4/138/124
f 78/166/143 46/158/134 77/127/15
f 118/132/84 43/178/149 101/11/11
f 120/74/10 90/76/74 112/68/68
f 102/40/40 9/168/145 12/83/80
f 53/38/38 59/32/32 38/73/73
f 99/154/104 10/156/139 76/29/29
f 49/113/105 100/78/76 33/183/87
f 62/187/153 96/151/135 116/79/77
f 68/189/154 138/88/47 86/69/69
f 43/178/149 144/171/141 96/151/135
f 60/43/43 57/34/34 61/33/33
f 18/105/98 58/53/53 93/84/81
f 84/103/96 115/26/26 146/85/82
f 99/154/104 76/29/29 44/28/28
f 41/55/55 93/84/81 58/53/53
f 18/105/98 117/161/142 110/121/112
f 60/43/43 61/33/33 25/96/92
f 23/163/138 35/7/7 150/104/97
f 122/129/101 11/139/125 128/130/117
f 38/73/73 105/72/72 39/109/102
f 51/140/126 79/63/63 91/61/61
f 64/122/113 129/118/109 98/135/121
f 121/80/78 150/169/97 72/81/57
f 97/48/48 54/6/6 143/172/147
f 66/146/132 65/86/83 144/159/141
f 83/143/129 37/110/103 44/112/28
f 111/153/137 140/181/150 33/183/87
f 126/67/67 26/145/131 102/40/40
f 80/134/120 64/122/113 98/135/121
f 144/159/141 65/86/83 92/157/140
f 111/153/137 119/77/75 96/151/135
f 92/157/140 7/22/22 45/24/24
f 75/99/46 125/119/110 15/89/85
