# Blender v2.76 (sub 0) OBJ File: ''
# www.blender.org
v -1.798208 -0.342500 0.535145
v 0.266677 -0.518898 -1.533672
v 0.093836 -0.713660 -1.491721
v 0.885569 -0.041239 0.981439
v -1.048023 0.582216 0.726589
v -0.056698 0.687460 -0.568927
v -0.193749 -0.271019 -1.569177
v -0.103864 0.061023 2.091320
v 0.779715 -0.034573 -1.113333
v -1.376605 -0.807350 0.445075
v -0.456302 1.058526 0.388388
v -0.861845 0.371671 1.573354
v -1.545071 0.015904 -0.817438
v -1.313391 -0.463512 -1.364126
v -1.837432 0.559895 0.379024
v -0.306140 -0.738167 0.875947
v -0.960724 -0.300568 1.539494
v -0.773460 0.595794 -0.782213
v -1.245123 0.243571 -1.300760
v -1.432773 0.378434 1.006301
v -2.285001 0.193044 -0.241930
v -1.026485 -0.829723 -1.006397
v 0.100965 -0.463247 0.821988
v 0.603810 -0.400518 0.672054
v -1.030071 -0.688751 -1.603184
v -2.037169 -0.786387 -0.561582
v 1.031990 0.275624 -0.723842
v -1.664565 0.239924 -0.707852
v -1.071268 -0.173476 -1.735679
v -0.426076 -0.285350 1.849907
v -0.442438 0.344053 -0.886241
v -1.336585 0.454130 -0.330686
v -2.268030 -0.366721 -0.314503
v 0.262113 0.271172 2.042715
v 0.208626 -0.785065 0.443837
v 0.442004 -0.374749 -0.039987
v -0.096538 0.562399 1.827302
v 0.119040 -0.847015 -0.864848
v 0.691609 0.176024 -1.003530
v -1.481331 -0.512540 0.863287
v -0.128001 0.900200 -0.007802
v -0.859112 0.990850 0.207553
vt 0.381824 0.303307
vt 0.330165 0.252430
vt 0.391591 0.267484
vt 0.050312 0.205014
vt 0.010333 0.187291
vt 0.080373 0.181022
vt 0.058958 0.349240
vt 0.071397 0.259792
vt 0.126211 0.303797
vt 0.092780 0.217781
vt 0.214347 0.178179
vt 0.218167 0.301832
vt 0.224340 0.419046
vt 0.260126 0.398131
vt 0.329388 0.416574
vt 0.410257 0.440348
vt 0.338416 0.466671
vt 0.190949 0.055664
vt 0.228798 0.007694
vt 0.300817 0.022228
vt 0.150994 0.419831
vt 0.235539 0.371028
vt 0.468060 0.232140
vt 0.430228 0.312602
vt 0.120567 0.174936
vt 0.208106 0.141847
vt 0.328685 0.389016
vt 0.325038 0.345878
vt 0.382317 0.400809
vt 0.009321 0.330020
vt 0.133332 0.385349
vt 0.084415 0.440971
vt 0.215303 0.112918
vt 0.027357 0.082492
vt 0.099996 0.090027
vt 0.140593 0.355730
vt 0.117616 0.369101
vt 0.492853 0.251804
vt 0.472799 0.290488
vt 0.153941 0.462523
vt 0.092648 0.460153
vt 0.405217 0.388685
vt 0.227623 0.349939
vt 0.183946 0.109074
vt 0.121109 0.043623
vt 0.285773 0.248270
vt 0.397211 0.210782
vt 0.044253 0.393019
vt 0.261800 0.310529
vt 0.292443 0.284261
vt 0.034915 0.450811
vt 0.060091 0.075788
vt 0.337789 0.019404
vt 0.276040 0.474394
vt 0.354187 0.199835
vt 0.175045 0.016602
vt 0.216822 0.492607
vt 0.018320 0.371074
vt 0.405109 0.484339
vt 0.436940 0.407108
vt 0.363647 0.140386
vt 0.432472 0.148544
vt 0.303732 0.380150
vt 0.359242 0.118325
vt 0.007516 0.409013
vt 0.434660 0.461273
vt 0.309766 0.244313
vt 0.230862 0.153078
vt 0.149756 0.101059
vt 0.378270 0.414660
vn 0.166100 0.680600 -0.713500
vn -0.435600 0.645800 -0.627000
vn -0.072500 0.844800 -0.530100
vn 0.593500 -0.761500 0.260400
vn 0.916700 -0.075100 0.392300
vn 0.423700 -0.721400 0.547700
vn 0.791600 -0.079100 -0.605900
vn 0.753000 -0.652500 -0.084300
vn 0.412900 -0.908100 -0.069600
vn 0.439900 -0.875200 0.201300
vn -0.297200 -0.910400 0.287900
vn -0.047200 -0.991000 -0.125100
vn -0.798400 -0.316200 0.512400
vn -0.578600 -0.593200 0.559700
vn -0.543600 -0.444700 0.711800
vn 0.032800 -0.256500 0.966000
vn -0.537600 0.530200 0.655600
vn -0.307600 0.857400 0.412400
vn 0.054300 0.829500 0.555900
vn -0.961100 -0.235700 -0.144200
vn -0.289300 0.957100 -0.011900
vn 0.151800 0.824200 -0.545600
vn 0.165000 -0.909400 0.381900
vn 0.561100 -0.266300 -0.783700
vn 0.152700 0.347700 -0.925000
vn 0.907300 0.298700 -0.295800
vn -0.706400 -0.647000 -0.287100
vn -0.764500 0.072600 -0.640400
vn 0.070200 0.990900 0.115000
vn 0.612600 0.143300 0.777300
vn -0.061800 -0.663100 0.746000
vn 0.313200 -0.713000 -0.627300
vn 0.325100 0.938400 -0.117300
vn -0.889200 0.423700 -0.172200
vn -0.587000 0.573900 -0.571000
vn 0.221200 0.729600 -0.647100
vn -0.249300 -0.632900 -0.732900
vn -0.675100 0.690400 0.259700
vn -0.387200 0.867400 -0.312500
vn -0.786700 -0.013700 -0.617200
vn -0.299900 0.260400 -0.917700
vn -0.627000 0.509800 0.589100
s 1
f 31/1/1 19/2/2 18/3/3
f 24/4/4 4/5/5 23/6/6
f 9/7/7 36/8/8 38/9/9
f 35/10/10 10/11/11 22/12/12
f 1/13/13 40/14/14 17/15/15
f 8/16/16 12/17/17 17/15/15
f 5/18/18 12/19/17 37/20/19
f 33/21/20 10/22/11 1/13/13
f 18/3/3 42/23/21 6/24/22
f 16/25/23 40/26/14 10/11/11
f 2/27/24 7/28/25 9/29/7
f 27/30/26 4/5/5 24/4/4
f 26/31/27 33/21/20 13/32/28
f 27/30/26 36/8/8 9/7/7
f 38/9/9 36/8/8 35/10/10
f 11/33/29 5/18/18 37/20/19
f 16/25/23 35/10/10 23/6/6
f 23/6/6 34/34/30 30/35/31
f 18/3/3 6/24/22 31/1/1
f 9/7/7 3/36/32 2/37/24
f 11/38/29 41/39/33 42/23/21
f 24/4/4 35/10/10 36/8/8
f 21/40/34 28/41/35 13/32/28
f 39/42/36 7/28/25 31/1/1
f 23/6/6 35/10/10 24/4/4
f 23/6/6 30/35/31 16/25/23
f 22/12/12 25/43/37 38/9/9
f 42/44/21 15/45/38 5/18/18
f 22/12/12 26/46/27 25/43/37
f 18/3/3 32/47/39 42/23/21
f 14/48/40 26/31/27 13/32/28
f 42/23/21 41/39/33 6/24/22
f 25/49/37 29/50/41 7/28/25
f 1/13/13 10/22/11 40/14/14
f 19/51/2 13/32/28 28/41/35
f 34/34/30 8/52/16 30/35/31
f 11/33/29 37/20/19 34/53/30
f 20/54/42 17/15/15 12/17/17
f 31/1/1 29/50/41 19/2/2
f 25/43/37 3/36/32 38/9/9
f 18/3/3 28/55/35 32/47/39
f 20/56/42 12/19/17 5/18/18
f 20/54/42 15/57/38 21/40/34
f 20/56/42 5/18/18 15/45/38
f 25/58/37 26/31/27 14/48/40
f 22/12/12 38/9/9 35/10/10
f 37/59/19 12/17/17 8/16/16
f 39/42/36 31/1/1 27/60/26
f 21/61/34 32/47/39 28/55/35
f 38/9/9 3/36/32 9/7/7
f 31/1/1 6/24/22 27/60/26
f 1/13/13 17/15/15 20/54/42
f 1/13/13 21/40/34 33/21/20
f 27/30/26 24/4/4 36/8/8
f 10/11/11 35/10/10 16/25/23
f 33/21/20 26/31/27 10/22/11
f 27/60/26 9/29/7 39/42/36
f 6/24/22 41/39/33 27/60/26
f 42/23/21 32/47/39 15/62/38
f 18/3/3 19/2/2 28/55/35
f 3/63/32 7/28/25 2/27/24
f 11/33/29 34/53/30 4/64/5
f 22/12/12 10/11/11 26/46/27
f 11/33/29 42/44/21 5/18/18
f 29/65/41 14/48/40 13/32/28
f 19/51/2 29/65/41 13/32/28
f 21/40/34 13/32/28 33/21/20
f 37/59/19 8/16/16 34/66/30
f 14/48/40 29/65/41 25/58/37
f 4/64/5 27/67/26 41/68/33
f 31/1/1 7/28/25 29/50/41
f 4/5/5 34/34/30 23/6/6
f 20/54/42 21/40/34 1/13/13
f 16/25/23 30/35/31 40/26/14
f 30/35/31 17/69/15 40/26/14
f 30/70/31 8/16/16 17/15/15
f 4/64/5 41/68/33 11/33/29
f 25/49/37 7/28/25 3/63/32
f 21/61/34 15/62/38 32/47/39
f 9/29/7 7/28/25 39/42/36
