# Blender v2.69 (sub 0) OBJ File: ''
# www.blender.org
v 0.017198 7.253206 -1.994023
v 0.017198 -7.273054 -1.994023
v 0.402916 7.253206 -1.956033
v 0.402916 -7.273054 -1.956033
v 0.773811 7.253206 -1.843524
v 0.773811 -7.273054 -1.843524
v 1.115630 7.253206 -1.660818
v 1.115630 -7.273054 -1.660818
v 1.415236 7.253206 -1.414937
v 1.415236 -7.273054 -1.414937
v 1.661117 7.253206 -1.115330
v 1.661117 -7.273054 -1.115330
v 1.843823 7.253206 -0.773512
v 1.843823 -7.273054 -0.773512
v 1.956333 7.253206 -0.402617
v 1.956333 -7.273054 -0.402617
v 1.994323 7.253206 -0.016899
v 1.994323 -7.273054 -0.016899
v 1.956333 7.253206 0.368819
v 1.956333 -7.273054 0.368819
v 1.843823 7.253206 0.739714
v 1.843823 -7.273054 0.739714
v 1.661117 7.253206 1.081533
v 1.661117 -7.273054 1.081533
v 1.415236 7.253206 1.381139
v 1.415236 -7.273054 1.381139
v 1.115629 7.253206 1.627020
v 1.115629 -7.273054 1.627020
v 0.773811 7.253206 1.809726
v 0.773811 -7.273054 1.809726
v 0.402915 7.253206 1.922236
v 0.402915 -7.273054 1.922236
v 0.017197 7.253206 1.960226
v 0.017197 -7.273054 1.960226
v -0.368521 7.253206 1.922236
v -0.368521 -7.273054 1.922236
v -0.739416 7.253206 1.809726
v -0.739416 -7.273054 1.809726
v -1.081235 7.253206 1.627020
v -1.081235 -7.273054 1.627020
v -1.380841 7.253206 1.381138
v -1.380841 -7.273054 1.381138
v -1.626722 7.253206 1.081532
v -1.626722 -7.273054 1.081532
v -1.809428 7.253206 0.739712
v -1.809428 -7.273054 0.739712
v -1.921937 7.253206 0.368817
v -1.921937 -7.273054 0.368817
v -1.959927 7.253206 -0.016901
v -1.959927 -7.273054 -0.016901
v -1.921936 7.253206 -0.402619
v -1.921936 -7.273054 -0.402619
v -1.809426 7.253206 -0.773514
v -1.809426 -7.273054 -0.773514
v -1.626720 7.253206 -1.115332
v -1.626720 -7.273054 -1.115332
v -1.380838 7.253206 -1.414939
v -1.380838 -7.273054 -1.414939
v -1.081231 7.253206 -1.660819
v -1.081231 -7.273054 -1.660819
v -0.739412 7.253206 -1.843525
v -0.739412 -7.273054 -1.843525
v -0.368517 7.253206 -1.956034
v -0.368517 -7.273054 -1.956034
vt 0.545321 2.427704
vt 0.946208 -1.989101
vt 0.539878 2.290125
vt 0.949012 -2.126680
vt 0.533341 2.168620
vt 0.954219 -2.248184
vt 0.525918 2.067859
vt 0.961928 -2.348946
vt 0.517820 1.991714
vt 0.972031 -2.425091
vt 0.509256 1.943110
vt 0.984105 -2.473695
vt 0.500443 1.923916
vt 0.997372 -2.492888
vt 1.491599 1.934870
vt 0.491599 1.934870
vt 0.010790 -2.481935
vt 0.482946 1.975550
vt 0.023283 -2.441255
vt 0.474698 2.044393
vt 0.033984 -2.372412
vt 0.467069 2.138753
vt 0.042371 -2.278051
vt 0.460269 2.255005
vt 0.048261 -2.161799
vt 0.454505 2.388681
vt 0.051706 -2.028124
vt 0.449989 2.534644
vt 0.052893 -1.882161
vt 0.446942 2.687284
vt 0.052060 -1.729521
vt 0.445600 2.840735
vt 0.049456 -1.576070
vt 0.446208 2.989101
vt 0.045321 -1.427704
vt 0.449012 3.126680
vt 0.039877 -1.290125
vt 0.454219 3.248185
vt 0.033341 -1.168620
vt 0.461928 3.348946
vt 0.025918 -1.067859
vt 0.472031 3.425091
vt 0.017820 -0.991713
vt 0.484105 3.473695
vt 0.009256 -0.943110
vt 0.497372 3.492888
vt 1.000443 -0.923916
vt 0.510790 3.481935
vt 0.991599 -0.934870
vt 0.523283 3.441255
vt 0.982945 -0.975550
vt 0.533984 3.372411
vt 0.974698 -1.044393
vt 0.542371 3.278051
vt 0.967069 -1.138754
vt 0.548261 3.161799
vt 0.960269 -1.255006
vt 0.551706 3.028123
vt 0.954505 -1.388682
vt 0.552893 2.882160
vt 0.949989 -1.534645
vt 0.552060 2.729520
vt 0.549456 2.576069
vt 0.945600 -1.840736
vt 0.946942 -1.687284
vt 1.010790 -2.481935
vt 0.000443 -0.923916
vt 1.009256 -0.943110
vt 1.017820 -0.991713
vt 1.025918 -1.067859
vt 1.033341 -1.168620
vt 1.039878 -1.290125
vt 1.045321 -1.427704
vt 1.049456 -1.576070
vt 1.042371 -2.278051
vt 1.051706 -2.028124
vt 1.048261 -2.161799
vt 1.052893 -1.882161
vt 1.052060 -1.729521
vt 1.033984 -2.372412
vt 1.023283 -2.441255
vn -0.098017 0.000000 0.995185
vn -0.290285 0.000000 0.956940
vn -0.471397 0.000000 0.881921
vn -0.634394 0.000000 0.773010
vn -0.773010 0.000000 0.634393
vn -0.881921 0.000000 0.471397
vn -0.956940 0.000000 0.290285
vn -0.995185 0.000000 0.098017
vn -0.995185 0.000000 -0.098017
vn -0.956940 0.000000 -0.290285
vn -0.881921 0.000000 -0.471396
vn -0.773010 0.000000 -0.634394
vn -0.634394 0.000000 -0.773010
vn -0.471397 0.000000 -0.881921
vn -0.290285 0.000000 -0.956940
vn -0.098017 0.000000 -0.995185
vn 0.098017 0.000000 -0.995185
vn 0.290285 0.000000 -0.956940
vn 0.471397 0.000000 -0.881921
vn 0.634394 0.000000 -0.773010
vn 0.773011 0.000000 -0.634393
vn 0.881922 0.000000 -0.471396
vn 0.956941 0.000000 -0.290284
vn 0.995185 0.000000 -0.098016
vn 0.995185 0.000000 0.098018
vn 0.956940 0.000000 0.290286
vn 0.881921 0.000000 0.471398
vn 0.773009 0.000000 0.634395
vn 0.634392 0.000000 0.773011
vn 0.471396 0.000000 0.881922
vn 0.000000 1.000000 0.000000
vn 0.098016 0.000000 0.995185
vn 0.290283 0.000000 0.956941
vn 0.000000 -1.000000 0.000000
vn -0.098018 0.000000 0.995185
vn -0.290284 0.000000 0.956941
vn -0.634393 0.000000 0.773010
vn -0.881921 0.000000 0.471396
vn -0.881921 0.000000 -0.471397
vn -0.773010 0.000000 -0.634393
vn -0.634393 0.000000 -0.773011
vn -0.290284 0.000000 -0.956941
vn 0.773010 0.000000 0.634394
vn 0.634393 0.000000 0.773011
vn 0.471395 0.000000 0.881922
vn 0.000000 1.000000 0.000005
vn 0.000000 1.000000 -0.000007
vn 0.000000 1.000000 0.000006
vn 0.000000 1.000000 -0.000001
vn 0.000000 1.000000 0.000001
vn 0.000000 1.000000 -0.000016
vn 0.000000 1.000000 -0.000006
vn 0.000000 1.000000 0.000008
vn 0.098017 0.000000 0.995185
vn 0.000000 -1.000000 0.000007
vn 0.000000 -1.000000 -0.000002
vn 0.000000 -1.000000 -0.000016
vn 0.000000 -1.000000 -0.000005
vn 0.000000 -1.000000 0.000016
vn 0.000000 -1.000000 -0.000003
vn 0.000000 -1.000000 -0.000001
vn 0.000000 -1.000000 -0.000008
vn 0.000000 -1.000000 0.000003
vn 0.000000 -1.000000 0.000001
s off
f 1/1/1 2/2/1 3/3/1
f 3/3/2 4/4/2 5/5/2
f 5/5/3 6/6/3 7/7/3
f 7/7/4 8/8/4 9/9/4
f 9/9/5 10/10/5 11/11/5
f 11/11/6 12/12/6 13/13/6
f 13/13/7 14/14/7 15/15/7
f 15/16/8 16/17/8 17/18/8
f 17/18/9 18/19/9 19/20/9
f 19/20/10 20/21/10 21/22/10
f 21/22/11 22/23/11 23/24/11
f 23/24/12 24/25/12 25/26/12
f 25/26/13 26/27/13 27/28/13
f 27/28/14 28/29/14 29/30/14
f 29/30/15 30/31/15 31/32/15
f 31/32/16 32/33/16 33/34/16
f 33/34/17 34/35/17 35/36/17
f 35/36/18 36/37/18 37/38/18
f 37/38/19 38/39/19 39/40/19
f 39/40/20 40/41/20 41/42/20
f 41/42/21 42/43/21 43/44/21
f 43/44/22 44/45/22 45/46/22
f 45/46/23 46/47/23 47/48/23
f 47/48/24 48/49/24 49/50/24
f 49/50/25 50/51/25 51/52/25
f 51/52/26 52/53/26 53/54/26
f 53/54/27 54/55/27 55/56/27
f 55/56/28 56/57/28 57/58/28
f 57/58/29 58/59/29 59/60/29
f 59/60/30 60/61/30 61/62/30
f 4/4/31 2/2/31 6/6/31
f 63/63/32 64/64/32 1/1/32
f 61/62/33 62/65/33 63/63/33
f 1/1/34 3/3/34 63/63/34
f 2/2/35 4/4/35 3/3/35
f 4/4/36 6/6/36 5/5/36
f 6/6/3 8/8/3 7/7/3
f 8/8/37 10/10/37 9/9/37
f 10/10/5 12/12/5 11/11/5
f 12/12/38 14/14/38 13/13/38
f 14/14/7 16/66/7 15/15/7
f 16/17/8 18/19/8 17/18/8
f 18/19/9 20/21/9 19/20/9
f 20/21/10 22/23/10 21/22/10
f 22/23/39 24/25/39 23/24/39
f 24/25/40 26/27/40 25/26/40
f 26/27/41 28/29/41 27/28/41
f 28/29/14 30/31/14 29/30/14
f 30/31/42 32/33/42 31/32/42
f 32/33/16 34/35/16 33/34/16
f 34/35/17 36/37/17 35/36/17
f 36/37/18 38/39/18 37/38/18
f 38/39/19 40/41/19 39/40/19
f 40/41/20 42/43/20 41/42/20
f 42/43/21 44/45/21 43/44/21
f 44/45/22 46/67/22 45/46/22
f 46/47/23 48/49/23 47/48/23
f 48/49/24 50/51/24 49/50/24
f 50/51/25 52/53/25 51/52/25
f 52/53/26 54/55/26 53/54/26
f 54/55/27 56/57/27 55/56/27
f 56/57/43 58/59/43 57/58/43
f 58/59/44 60/61/44 59/60/44
f 60/61/45 62/65/45 61/62/45
f 2/2/31 64/64/31 6/6/31
f 64/64/31 62/65/31 6/6/31
f 62/65/31 60/61/31 6/6/31
f 60/61/46 58/59/46 6/6/46
f 58/59/47 56/57/47 6/6/47
f 56/57/48 54/55/48 6/6/48
f 54/55/31 52/53/31 6/6/31
f 52/53/31 50/51/31 6/6/31
f 50/51/31 48/49/31 6/6/31
f 48/49/31 46/47/31 6/6/31
f 46/47/31 44/68/31 6/6/31
f 44/68/49 42/69/49 6/6/49
f 42/69/50 40/70/50 6/6/50
f 40/70/31 38/71/31 6/6/31
f 38/71/51 36/72/51 34/73/51
f 6/6/31 38/71/31 34/73/31
f 8/8/31 6/6/31 10/10/31
f 6/6/31 34/73/31 10/10/31
f 34/73/49 32/74/49 10/10/49
f 22/75/31 26/76/31 24/77/31
f 22/75/46 28/78/46 26/76/46
f 30/79/52 28/78/52 22/75/52
f 32/74/31 30/79/31 22/75/31
f 10/10/31 32/74/31 12/12/31
f 32/74/31 22/75/31 12/12/31
f 22/75/31 20/80/31 12/12/31
f 20/80/31 18/81/31 12/12/31
f 18/81/31 16/66/31 12/12/31
f 16/66/53 14/14/53 12/12/53
f 64/64/54 2/2/54 1/1/54
f 62/65/33 64/64/33 63/63/33
f 3/3/34 5/5/34 63/63/34
f 5/5/34 7/7/34 63/63/34
f 7/7/55 9/9/55 63/63/55
f 9/9/34 11/11/34 63/63/34
f 11/11/55 13/13/55 63/63/55
f 13/13/34 15/16/34 63/63/34
f 15/16/34 17/18/34 63/63/34
f 17/18/34 19/20/34 63/63/34
f 19/20/34 21/22/34 63/63/34
f 21/22/56 23/24/56 63/63/56
f 23/24/34 25/26/34 63/63/34
f 51/52/34 47/48/34 49/50/34
f 35/36/57 31/32/57 33/34/57
f 35/36/58 29/30/58 31/32/58
f 27/28/34 29/30/34 35/36/34
f 39/40/59 35/36/59 37/38/59
f 27/28/60 35/36/60 39/40/60
f 45/46/34 41/42/34 43/44/34
f 51/52/34 45/46/34 47/48/34
f 51/52/61 41/42/61 45/46/61
f 57/58/62 53/54/62 55/56/62
f 57/58/63 51/52/63 53/54/63
f 57/58/34 41/42/34 51/52/34
f 57/58/34 39/40/34 41/42/34
f 27/28/64 39/40/64 57/58/64
f 61/62/34 57/58/34 59/60/34
f 27/28/61 57/58/61 61/62/61
f 25/26/34 27/28/34 63/63/34
f 27/28/34 61/62/34 63/63/34
