# Blender v2.69 (sub 0) OBJ File: ''
# www.blender.org
v -0.016697 -4.655614 -2.054838
v -0.016697 4.649477 -2.054838
v 0.387619 -4.655614 -2.015016
v 0.387619 4.649477 -2.015016
v 0.776397 -4.655614 -1.897082
v 0.776397 4.649477 -1.897082
v 1.134696 -4.655614 -1.705567
v 1.134696 4.649477 -1.705567
v 1.448749 -4.655614 -1.447831
v 1.448749 4.649477 -1.447831
v 1.706485 -4.655614 -1.133778
v 1.706485 4.649477 -1.133778
v 1.898000 -4.655614 -0.775478
v 1.898000 4.649477 -0.775478
v 2.015935 -4.655614 -0.386701
v 2.015935 4.649477 -0.386701
v 2.055756 -4.655614 0.017615
v 2.055756 4.649477 0.017615
v 2.015935 -4.655614 0.421930
v 2.015935 4.649477 0.421930
v 1.898000 -4.655614 0.810708
v 1.898000 4.649477 0.810708
v 1.706485 -4.655614 1.169008
v 1.706485 4.649477 1.169008
v 1.448749 -4.655614 1.483060
v 1.448749 4.649477 1.483060
v 1.134696 -4.655614 1.740797
v 1.134696 4.649477 1.740797
v 0.776396 -4.655614 1.932312
v 0.776396 4.649477 1.932312
v 0.387618 -4.655614 2.050246
v 0.387618 4.649477 2.050246
v -0.016697 -4.655614 2.090068
v -0.016697 4.649477 2.090068
v -0.421013 -4.655614 2.050246
v -0.421013 4.649477 2.050246
v -0.809791 -4.655614 1.932311
v -0.809791 4.649477 1.932311
v -1.168091 -4.655614 1.740796
v -1.168091 4.649477 1.740796
v -1.482143 -4.655614 1.483060
v -1.482143 4.649477 1.483060
v -1.739879 -4.655614 1.169007
v -1.739879 4.649477 1.169007
v -1.931394 -4.655614 0.810707
v -1.931394 4.649477 0.810707
v -2.049328 -4.655614 0.421929
v -2.049328 4.649477 0.421929
v -2.089150 -4.655614 0.017613
v -2.089150 4.649477 0.017613
v -2.049328 -4.655614 -0.386703
v -2.049328 4.649477 -0.386703
v -1.931393 -4.655614 -0.775481
v -1.931393 4.649477 -0.775481
v -1.739877 -4.655614 -1.133780
v -1.739877 4.649477 -1.133780
v -1.482141 -4.655614 -1.447832
v -1.482141 4.649477 -1.447832
v -1.168088 -4.655614 -1.705568
v -1.168088 4.649477 -1.705568
v -0.809787 -4.655614 -1.897083
v -0.809787 4.649477 -1.897083
v -0.421009 -4.655614 -2.015017
v -0.421009 4.649477 -2.015017
vt 0.874307 -0.500962
vt 0.640697 1.555082
vt 0.858472 -0.540289
vt 0.624947 1.515754
vt 0.842853 -0.579146
vt 0.608964 1.476898
vt 0.827405 -0.616038
vt 0.592735 1.440006
vt 0.812051 -0.649547
vt 0.576261 1.406497
vt 0.796652 -0.678387
vt 0.559561 1.377657
vt 0.780904 -0.701447
vt 0.542665 1.354596
vt 0.763865 -0.717844
vt 0.525616 1.338200
vt 0.739398 -0.726945
vt 0.508465 1.329099
vt 0.279424 -0.728402
vt 0.491272 1.327642
vt 0.236821 -0.722159
vt 0.474099 1.333885
vt 0.218525 -0.708454
vt 0.457005 1.347589
vt 0.202474 -0.687816
vt 0.440045 1.368227
vt 0.186995 -0.661038
vt 0.423267 1.395006
vt 0.171646 -0.629147
vt 0.406705 1.426897
vt 0.156245 -0.593370
vt 0.390383 1.462674
vt 0.140697 -0.555082
vt 0.374307 1.500962
vt 0.124947 -0.515754
vt 0.358472 1.540290
vt 0.108964 -0.476898
vt 0.342853 1.579146
vt 0.092735 -0.440006
vt 0.327405 1.616038
vt 0.076261 -0.406497
vt 0.312051 1.649547
vt 0.059561 -0.377657
vt 0.296652 1.678387
vt 0.042665 -0.354596
vt 0.280904 1.701447
vt 0.025616 -0.338200
vt 0.263865 1.717844
vt 0.008465 -0.329099
vt 1.008465 -0.329099
vt 1.239398 1.726945
vt 0.991272 -0.327642
vt 0.779423 1.728402
vt 0.974099 -0.333885
vt 0.736821 1.722158
vt 0.957004 -0.347589
vt 0.718525 1.708454
vt 0.940045 -0.368228
vt 0.702474 1.687816
vt 0.923267 -0.395006
vt 0.686995 1.661037
vt 0.906705 -0.426897
vt 0.890383 -0.462674
vt 0.656245 1.593370
vt 0.671646 1.629147
vt 0.239398 1.726945
vt 1.263865 1.717844
vt 1.279424 -0.728402
vt 1.236822 -0.722159
vt 1.218525 -0.708454
vt 1.202474 -0.687816
vt 1.025616 -0.338200
vt 1.059561 -0.377657
vt 1.042665 -0.354596
vt 1.186995 -0.661038
vt 1.171646 -0.629147
vt 1.156245 -0.593370
vt 1.140697 -0.555082
vt 1.124947 -0.515754
vt 1.108964 -0.476898
vt 1.092735 -0.440006
vt 1.076261 -0.406497
vn 0.098017 0.000000 -0.995185
vn 0.290285 0.000000 -0.956940
vn 0.471397 0.000000 -0.881921
vn 0.634393 0.000000 -0.773010
vn 0.773010 0.000000 -0.634394
vn 0.881921 0.000000 -0.471396
vn 0.956940 0.000000 -0.290285
vn 0.995185 0.000000 -0.098017
vn 0.995185 0.000000 0.098017
vn 0.956940 0.000000 0.290285
vn 0.881921 0.000000 0.471397
vn 0.773011 0.000000 0.634393
vn 0.634393 0.000000 0.773010
vn 0.471397 0.000000 0.881921
vn 0.290284 0.000000 0.956941
vn 0.098017 0.000000 0.995185
vn -0.098018 0.000000 0.995185
vn -0.290285 0.000000 0.956940
vn -0.471397 0.000000 0.881921
vn -0.634394 0.000000 0.773010
vn -0.773011 0.000000 0.634393
vn -0.881922 0.000000 0.471396
vn -0.956941 0.000000 0.290283
vn -0.995185 0.000000 0.098017
vn -0.995185 0.000000 -0.098018
vn -0.956940 0.000000 -0.290285
vn -0.881921 0.000000 -0.471398
vn -0.773010 0.000000 -0.634394
vn -0.634392 0.000000 -0.773011
vn -0.471395 0.000000 -0.881922
vn 0.000000 1.000000 0.000000
vn -0.098017 0.000000 -0.995185
vn -0.290282 0.000000 -0.956941
vn 0.000000 -1.000000 0.000000
vn 0.290284 0.000000 -0.956940
vn 0.471396 0.000000 -0.881921
vn 0.634394 0.000000 -0.773010
vn 0.773010 0.000000 -0.634393
vn 0.773010 0.000000 0.634394
vn -0.098017 0.000000 0.995185
vn -0.290286 0.000000 0.956940
vn -0.634393 0.000000 0.773010
vn 0.000000 1.000000 0.000010
vn 0.000000 1.000000 -0.000004
vn 0.000000 1.000000 0.000003
vn 0.000000 1.000000 -0.000002
vn 0.000000 1.000000 0.000002
vn 0.000000 1.000000 -0.000001
vn 0.000000 1.000000 0.000007
vn 0.000000 1.000000 -0.000005
vn 0.000000 1.000000 0.000001
vn -0.290283 0.000000 -0.956941
vn 0.000000 -1.000000 0.000003
vn 0.000000 -1.000000 -0.000001
vn 0.000000 -1.000000 0.000004
vn 0.000000 -1.000000 -0.000004
vn 0.000000 -1.000000 0.000001
vn 0.000000 -1.000000 0.000010
vn 0.000000 -1.000000 0.000015
s off
f 1/1/1 2/2/1 3/3/1
f 3/3/2 4/4/2 5/5/2
f 5/5/3 6/6/3 7/7/3
f 7/7/4 8/8/4 9/9/4
f 9/9/5 10/10/5 11/11/5
f 11/11/6 12/12/6 13/13/6
f 13/13/7 14/14/7 15/15/7
f 15/15/8 16/16/8 17/17/8
f 17/17/9 18/18/9 19/19/9
f 19/19/10 20/20/10 21/21/10
f 21/21/11 22/22/11 23/23/11
f 23/23/12 24/24/12 25/25/12
f 25/25/13 26/26/13 27/27/13
f 27/27/14 28/28/14 29/29/14
f 29/29/15 30/30/15 31/31/15
f 31/31/16 32/32/16 33/33/16
f 33/33/17 34/34/17 35/35/17
f 35/35/18 36/36/18 37/37/18
f 37/37/19 38/38/19 39/39/19
f 39/39/20 40/40/20 41/41/20
f 41/41/21 42/42/21 43/43/21
f 43/43/22 44/44/22 45/45/22
f 45/45/23 46/46/23 47/47/23
f 47/47/24 48/48/24 49/49/24
f 49/50/25 50/51/25 51/52/25
f 51/52/26 52/53/26 53/54/26
f 53/54/27 54/55/27 55/56/27
f 55/56/28 56/57/28 57/58/28
f 57/58/29 58/59/29 59/60/29
f 59/60/30 60/61/30 61/62/30
f 4/4/31 2/2/31 6/6/31
f 63/63/32 64/64/32 1/1/32
f 61/62/33 62/65/33 63/63/33
f 1/1/34 3/3/34 63/63/34
f 2/2/1 4/4/1 3/3/1
f 4/4/35 6/6/35 5/5/35
f 6/6/36 8/8/36 7/7/36
f 8/8/37 10/10/37 9/9/37
f 10/10/38 12/12/38 11/11/38
f 12/12/6 14/14/6 13/13/6
f 14/14/7 16/16/7 15/15/7
f 16/16/8 18/18/8 17/17/8
f 18/18/9 20/20/9 19/19/9
f 20/20/10 22/22/10 21/21/10
f 22/22/11 24/24/11 23/23/11
f 24/24/39 26/26/39 25/25/39
f 26/26/13 28/28/13 27/27/13
f 28/28/14 30/30/14 29/29/14
f 30/30/15 32/32/15 31/31/15
f 32/32/16 34/34/16 33/33/16
f 34/34/40 36/36/40 35/35/40
f 36/36/41 38/38/41 37/37/41
f 38/38/19 40/40/19 39/39/19
f 40/40/42 42/42/42 41/41/42
f 42/42/21 44/44/21 43/43/21
f 44/44/22 46/46/22 45/45/22
f 46/46/23 48/48/23 47/47/23
f 48/48/24 50/66/24 49/49/24
f 50/51/25 52/53/25 51/52/25
f 52/53/26 54/55/26 53/54/26
f 54/55/27 56/57/27 55/56/27
f 56/57/28 58/59/28 57/58/28
f 58/59/29 60/61/29 59/60/29
f 60/61/30 62/65/30 61/62/30
f 2/2/43 64/64/43 6/6/43
f 64/64/31 62/65/31 6/6/31
f 62/65/31 60/61/31 6/6/31
f 60/61/44 58/59/44 6/6/44
f 58/59/45 56/57/45 6/6/45
f 56/57/31 54/55/31 6/6/31
f 54/55/46 52/53/46 6/6/46
f 52/53/31 50/51/31 6/6/31
f 50/51/47 48/67/47 6/6/47
f 48/67/31 46/46/31 6/6/31
f 46/46/31 44/44/31 6/6/31
f 14/14/31 18/18/31 16/16/31
f 14/14/31 20/20/31 18/18/31
f 14/14/31 22/22/31 20/20/31
f 14/14/31 24/24/31 22/22/31
f 14/14/48 26/26/48 24/24/48
f 12/12/31 26/26/31 14/14/31
f 12/12/31 28/28/31 26/26/31
f 10/10/31 28/28/31 12/12/31
f 10/10/31 30/30/31 28/28/31
f 36/36/49 40/40/49 38/38/49
f 42/42/43 40/40/43 36/36/43
f 44/44/50 42/42/50 36/36/50
f 6/6/31 44/44/31 36/36/31
f 8/8/31 6/6/31 36/36/31
f 10/10/51 8/8/51 36/36/51
f 10/10/48 36/36/48 34/34/48
f 30/30/51 10/10/51 32/32/51
f 10/10/31 34/34/31 32/32/31
f 64/64/32 2/2/32 1/1/32
f 62/65/52 64/64/52 63/63/52
f 3/3/34 5/5/34 63/63/34
f 5/5/34 7/7/34 63/63/34
f 7/7/34 9/9/34 63/63/34
f 9/9/34 11/11/34 63/63/34
f 11/11/34 13/13/34 63/63/34
f 13/13/34 15/15/34 63/63/34
f 15/15/34 17/17/34 63/63/34
f 17/17/34 19/68/34 63/63/34
f 19/68/53 21/69/53 63/63/53
f 21/69/54 23/70/54 63/63/54
f 23/70/34 25/71/34 63/63/34
f 47/72/55 43/73/55 45/74/55
f 57/58/56 53/54/56 55/56/56
f 57/58/57 51/52/57 53/54/57
f 25/71/34 27/75/34 63/63/34
f 29/76/34 31/77/34 33/78/34
f 27/75/58 29/76/58 33/78/58
f 63/63/34 27/75/34 33/78/34
f 61/62/59 63/63/59 59/60/59
f 63/63/34 33/78/34 59/60/34
f 33/78/34 35/79/34 59/60/34
f 59/60/34 35/79/34 57/58/34
f 35/79/34 37/80/34 57/58/34
f 37/80/34 39/81/34 57/58/34
f 39/81/34 41/82/34 57/58/34
f 43/73/54 47/72/54 49/50/54
f 57/58/54 49/50/54 51/52/54
f 41/82/34 43/73/34 57/58/34
f 43/73/34 49/50/34 57/58/34
