v 5.000000 -5.000000 -5.000000
v 5.000000 -5.000000 5.000000
v -5.000000 -5.000000 4.999999
v -4.999998 -5.000000 -5.000002
v 5.000002 5.000000 -4.999997
v 4.999997 5.000000 5.000003
v -5.000002 5.000000 4.999998
v -5.000000 5.000000 -5.000000
vn 0.000000 1.000000 0.000000
vn 0.000000 -1.000000 0.000000
vn -1.000000 -0.000000 -0.000000
vn 0.000000 0.000000 -1.000000
vn 1.000000 0.000000 0.000000
vn -0.000000 -0.000000 1.000000
vt 0.333008 0.996094
vt 0.001953 0.996094
vt 0.001953 0.501953
vt 0.333008 0.501953
vt 0.666992 0.996094
vt 0.667007 0.498047
vt 0.334961 0.498047
vt 0.334961 0.996094
vt 0.998047 0.003906
vt 0.666989 0.003906
vt 0.666989 0.498047
vt 0.998047 0.498047
vt 0.334961 0.003906
vt 0.001953 0.003906
vt 0.001953 0.498047
vt 0.668945 0.501953
vt 0.998047 0.501953
vt 0.998047 0.996094
vt 0.668945 0.996094
f 1/1/1 4/2/1 3/3/1
f 1/1/1 3/3/1 2/4/1
f 5/5/2 6/6/2 7/7/2
f 5/5/2 7/7/2 8/8/2
f 1/9/3 2/10/3 6/11/3
f 1/9/3 6/11/3 5/12/3
f 2/10/4 3/13/4 7/7/4
f 2/10/4 7/7/4 6/11/4
f 3/13/5 4/14/5 8/15/5
f 3/13/5 8/15/5 7/7/5
f 4/16/6 1/17/6 5/18/6
f 4/16/6 5/18/6 8/19/6