# Blender v2.73 (sub 7) OBJ File: 'palm trees.blend'
# www.blender.org
v -0.218455 1.017491 -0.279523
v -0.275664 1.017491 -0.200791
v -0.275662 1.017491 -0.103473
v -0.218464 1.017491 -0.024742
v -0.125950 1.017491 0.005331
v -0.033358 1.017491 -0.024742
v 0.023926 1.017491 -0.103473
v 0.023934 1.017491 -0.200791
v -0.125936 1.017491 -0.309595
v -0.033347 1.017491 -0.279523
v -0.257659 6.066936 -0.335650
v -0.295576 6.066855 -0.283493
v -0.295572 6.066855 -0.219018
v -0.257660 6.066936 -0.166861
v -0.196328 6.067302 -0.146958
v -0.135023 6.067357 -0.166879
v -0.097132 6.067081 -0.219022
v -0.097132 6.067081 -0.283488
v -0.196334 6.067302 -0.355552
v -0.135023 6.067357 -0.335631
v -0.421049 4.797046 -0.349093
v -0.292755 1.610625 -0.228874
v -0.458746 4.796853 -0.297233
v -0.342862 1.610625 -0.159893
v -0.458747 4.796853 -0.233121
v -0.342862 1.610625 -0.074626
v -0.421050 4.797046 -0.181262
v -0.292755 1.610625 -0.005644
v -0.360054 4.797913 -0.161500
v -0.211773 1.610625 0.020704
v -0.299114 4.798044 -0.181307
v -0.130698 1.610625 -0.005644
v -0.261440 4.797390 -0.233130
v -0.080499 1.610625 -0.074626
v -0.261440 4.797390 -0.297224
v -0.080499 1.610625 -0.159892
v -0.360053 4.797913 -0.368854
v -0.211773 1.610625 -0.255223
v -0.299114 4.798044 -0.349047
v -0.130698 1.610625 -0.228874
v -0.129129 6.704279 -0.335151
v -0.185104 6.704279 -0.258130
v -0.185109 6.704279 -0.162927
v -0.129143 6.704279 -0.085905
v -0.038576 6.704279 -0.056485
v 0.051999 6.704279 -0.085905
v 0.107985 6.704279 -0.162926
v 0.107997 6.704279 -0.258129
v 0.052024 6.704279 -0.335151
v -0.038554 6.704279 -0.364570
v -0.083235 0.024270 -0.343618
v -0.143038 0.024270 -0.261364
v -0.143039 0.024270 -0.159692
v -0.083268 0.024270 -0.077437
v 0.013491 0.024270 -0.046019
v 0.110277 0.024270 -0.077437
v 0.170096 0.024270 -0.159692
v 0.170115 0.024270 -0.261364
v 0.110311 0.024270 -0.343618
v 0.013537 0.024270 -0.375037
v -0.153532 0.288535 -0.373771
v -0.233855 0.288535 -0.263279
v -0.233856 0.288535 -0.126703
v -0.153569 0.288535 -0.016211
v -0.023623 0.288535 0.025993
v 0.106376 0.288535 -0.016211
v 0.186738 0.288535 -0.126703
v 0.186762 0.288535 -0.263278
v -0.023569 0.288535 -0.415975
v 0.106416 0.288535 -0.373771
v -0.366979 5.561037 -0.335031
v -0.401581 5.567093 -0.286708
v -0.401579 5.567092 -0.226972
v -0.366980 5.561037 -0.178649
v -0.310941 5.551580 -0.160221
v -0.255019 5.541679 -0.178677
v -0.220532 5.535108 -0.226977
v -0.220532 5.535108 -0.286702
v -0.310944 5.551581 -0.353459
v -0.255019 5.541679 -0.335003
v -0.398406 3.183083 -0.288983
v -0.442308 3.182987 -0.228563
v -0.442309 3.182987 -0.153874
v -0.398407 3.183083 -0.093453
v -0.327417 3.183517 -0.070398
v -0.256410 3.183583 -0.093475
v -0.212474 3.183255 -0.153878
v -0.212474 3.183255 -0.228558
v -0.327417 3.183517 -0.312038
v -0.256410 3.183583 -0.288961
vt 0.323596 0.512993
vt 0.138328 1.110688
vt 0.340259 1.110688
vt 0.174233 0.110688
vt 0.300526 -0.487007
vt 0.104207 -0.487007
vt 0.861542 0.512993
vt 0.789611 1.110688
vt 1.002225 1.110688
vt 0.617603 1.110688
vt 0.542421 1.110688
vt 0.554260 0.512993
vt 0.665223 0.512993
vt 0.002225 1.110688
vt -0.210389 1.110688
vt -0.138458 0.512993
vt 0.300526 0.512993
vt 0.174233 1.110688
vt 0.378753 -0.398388
vt 0.243503 -0.398715
vt 0.585566 0.243509
vt 0.226563 1.243509
vt 0.385254 1.243509
vt 0.416169 0.601285
vt 0.158943 0.601213
vt 0.030410 1.243509
vt 0.043912 0.601285
vt -0.128281 1.243509
vt 0.378766 0.601612
vt 0.772137 1.243509
vt 0.585536 1.243509
vt 0.513971 0.601660
vt 0.958753 1.243509
vt 0.158951 0.601415
vt 0.301129 0.601415
vt 0.772182 1.243509
vt 0.660771 0.512135
vt 0.485485 0.778432
vt 0.809549 0.778432
vt 0.323596 1.512993
vt 0.554294 1.512993
vt 0.535536 -0.221568
vt 0.260021 -0.221568
vt 0.535536 0.778432
vt 0.460351 0.512135
vt 0.255247 0.512135
vt 0.001724 0.512135
vt -0.080535 0.778432
vt 0.260021 0.778432
vt 0.919465 0.778432
vt 0.861542 1.512993
vt 1.104207 1.512993
vt 0.485391 0.643950
vt 0.285194 0.919465
vt 0.511648 1.001724
vt 0.665223 1.512993
vt 0.809416 0.778432
vt 0.485391 0.778432
vt 0.660689 0.512135
vt 0.133572 0.778432
vt -0.190584 0.778432
vt -0.098041 0.512135
vt -0.214858 1.512993
vt -0.445740 1.512993
vt -0.356050 0.778432
vt -0.203379 0.512135
vt 0.643950 0.778432
vt 0.104206 1.512993
vt -0.138458 1.512993
vt 0.300526 1.512993
vt 0.902074 0.512135
vt 1.133671 0.778432
vt 0.785168 1.512993
vt 0.065259 0.076382
vt -0.076749 0.075836
vt 0.243503 0.601285
vt -0.029483 -0.677516
vt -0.181578 -0.678390
vt 0.344688 0.321416
vt 0.318609 1.075715
vt 0.439369 1.075836
vt 0.301139 0.601213
vt 0.439369 0.075836
vt 0.184822 0.321416
vt 0.169324 1.075715
vt 0.169324 0.075715
vt 0.048564 1.075836
vt 0.048564 0.075836
vt 1.065267 1.076382
vt 0.923250 1.075836
vt 0.818421 0.321610
vt 0.207191 1.076465
vt 0.065267 1.076382
vt -0.029483 0.322484
vt 0.207191 0.076465
vt 0.169338 1.076053
vt 0.048634 1.076465
vt 0.055622 0.322617
vt 0.169338 0.076053
vt 0.043953 0.601660
vt 0.318594 1.076053
vt 0.184844 0.321958
vt 0.473887 0.322617
vt 0.439298 1.076465
vt 0.416127 0.601660
vt 0.318594 0.076053
vt 0.970517 0.322484
vt 1.207192 1.076465
vt 1.051896 -1.304325
vt 0.874883 -1.304762
vt 0.051896 0.695675
vt 0.340259 -0.889312
vt 0.138328 -0.889312
vt 0.002225 0.110688
vt 0.173457 1.695140
vt 0.324117 1.695238
vt 0.344688 2.321416
vt 0.474000 2.321610
vt 0.324117 0.695238
vt 0.987217 1.695140
vt 1.173457 1.695140
vt 1.002225 0.110688
vt 1.184822 2.321416
vt 1.344688 2.321416
vt 1.173457 0.695140
vt 0.836556 1.695238
vt 0.789611 0.110688
vt 1.055509 2.321610
vt 0.987217 0.695140
vt 0.051896 1.695675
vt -0.125118 1.695238
vt 0.138327 0.110688
vt -0.029483 2.322484
vt -0.181579 2.321610
vt -0.125118 0.695238
vt 0.228954 1.695741
vt 0.340259 0.110688
vt 0.122471 2.322617
vt 0.987228 1.695411
vt 0.836612 1.695741
vt 0.617603 0.110688
vt 0.987228 0.695411
vt 1.184844 2.321958
vt 1.055622 2.322617
vt 0.173445 1.695411
vt -0.012772 1.695411
vt 0.173445 0.695411
vt 0.344664 2.321958
vt 0.184844 2.321958
vt 0.324060 1.695741
vt 0.324060 0.695741
vt 0.473887 2.322617
vt 1.104207 0.512993
vt 0.785142 0.512993
vt 0.104206 0.512993
vt 0.785168 0.512993
vt 0.772182 0.243509
vt 1.260021 0.778432
vt 0.660689 0.796621
vt 0.901959 0.512135
vt 0.143298 0.512135
vt 1.143384 0.512135
vt 0.474000 0.321610
vt 0.318609 0.075715
vt 0.055509 0.321610
vt -0.076750 0.075836
vt 0.122471 0.322617
vt 0.048634 0.076465
vt 0.344664 0.321958
vt 0.439298 0.076465
vt 1.122472 0.322617
vt 0.173457 0.695140
vt 0.836556 0.695238
vt 0.542421 0.110688
vt 0.228954 0.695741
vt 0.836612 0.695741
vt -0.210389 0.110688
vt -0.012772 0.695411
vn -0.587600 0.024000 -0.808800
vn -0.596700 -0.039800 -0.801400
vn -0.007400 0.026400 -0.999600
vn -0.949300 -0.057300 -0.309100
vn -0.946900 -0.093600 0.307700
vn -0.945400 -0.082200 0.315300
vn -0.951500 -0.080500 -0.296900
vn -0.586600 -0.046200 0.808500
vn -0.007100 0.014300 0.999800
vn -0.585700 -0.071300 0.807400
vn 0.575700 0.078600 0.813900
vn 0.000300 0.001300 1.000000
vn 0.939800 0.122500 0.318800
vn 0.584000 0.096100 0.806000
vn 0.945400 0.128000 -0.299700
vn 0.935800 0.175300 0.305900
vn 0.576100 0.188700 -0.795300
vn 0.585000 0.091300 -0.805900
vn -0.001100 0.118400 -0.993000
vn -0.002700 -0.007700 -0.999900
vn -0.580800 0.120800 -0.805000
vn -0.557400 0.113000 -0.822500
vn -0.935500 0.174400 -0.307400
vn -0.938900 0.166400 0.301200
vn -0.933800 0.132600 0.332200
vn -0.589300 0.064000 0.805400
vn -0.549800 0.004700 0.835200
vn -0.003700 -0.082600 0.996600
vn 0.044800 -0.151400 0.987500
vn 0.572700 -0.210400 0.792300
vn 0.587800 -0.269500 0.762800
vn 0.916200 -0.271100 0.295000
vn 0.903000 -0.316300 0.290900
vn 0.918500 -0.284700 -0.274400
vn 0.612000 -0.179100 -0.770300
vn 0.918700 -0.248200 -0.307000
vn 0.047400 -0.025900 -0.998500
vn 0.574400 -0.149200 -0.804900
vn -0.546800 -0.237100 -0.802900
vn -0.583500 -0.092600 -0.806800
vn 0.000100 -0.004200 -1.000000
vn -0.936900 -0.167200 -0.307000
vn -0.897700 -0.310800 -0.312200
vn -0.894000 -0.343200 0.288000
vn -0.931900 -0.200400 0.302400
vn -0.576400 -0.180800 0.796900
vn 0.002200 -0.114900 0.993300
vn -0.543500 -0.324000 0.774300
vn 0.587700 -0.026900 0.808600
vn 0.027600 -0.259200 0.965400
vn 0.949600 0.049300 0.309600
vn 0.602400 -0.171700 0.779500
vn 0.947700 0.083700 -0.307900
vn 0.952500 -0.096000 0.288900
vn 0.929900 0.210000 -0.302100
vn 0.598200 -0.082100 -0.797100
vn 0.585800 0.063300 -0.808000
vn 0.028000 -0.149200 -0.988400
vn -0.013500 0.009900 -0.999800
vn -0.590600 0.091200 -0.801800
vn -0.007800 -0.006700 -0.999900
vn -0.590100 0.009100 -0.807200
vn -0.949900 0.025500 -0.311600
vn -0.942500 0.137600 -0.304600
vn -0.932700 0.186800 -0.308300
vn -0.952800 0.036300 0.301400
vn -0.943400 0.131200 0.304500
vn -0.593200 0.074300 0.801600
vn -0.017000 -0.011500 0.999800
vn -0.595300 0.037400 0.802600
vn 0.570500 -0.092700 0.816000
vn -0.008100 0.027800 0.999600
vn 0.939600 -0.137500 0.313300
vn 0.584900 0.011000 0.811000
vn 0.940700 -0.130600 -0.313000
vn 0.951800 -0.005600 0.306500
vn 0.579400 -0.016800 -0.814800
vn 0.573500 -0.075000 -0.815800
vn -0.004800 -0.036100 -0.999300
vn -0.590000 -0.054200 -0.805600
vn -0.950400 -0.047800 -0.307100
vn -0.951400 -0.019600 0.307400
vn -0.591200 0.020100 0.806200
vn -0.005500 0.056600 0.998400
vn 0.582600 0.075700 0.809200
vn 0.948300 0.069900 0.309600
vn 0.949600 0.040900 -0.310800
vn 0.948300 -0.016500 -0.316800
vn 0.584100 0.000100 -0.811600
vn 0.948400 -0.062000 -0.310900
s 1
f 1/1/1 22/2/2 38/3/3
f 22/4/2 1/5/1 2/6/4
f 3/7/5 26/8/6 24/9/7
f 28/10/8 26/8/6 3/7/5
f 30/3/9 28/2/8 4/1/10
f 32/11/11 30/3/9 5/12/12
f 34/8/13 32/10/11 6/13/14
f 36/14/15 34/15/13 7/16/16
f 10/17/17 40/18/18 36/14/15
f 9/12/19 38/3/3 40/11/18
f 19/19/20 11/20/21 41/21/22
f 42/22/23 41/23/22 11/24/21
f 13/25/24 43/26/25 42/22/23
f 14/27/26 44/28/27 43/26/25
f 15/29/28 45/30/29 44/31/27
f 16/32/30 46/33/31 45/30/29
f 17/34/32 47/26/33 46/28/31
f 48/22/34 47/26/33 17/34/32
f 49/23/35 48/22/34 18/35/36
f 50/36/37 49/33/35 20/32/38
f 51/37/39 61/38/40 69/39/41
f 61/38/40 1/40/1 9/41/19
f 1/17/1 61/42/40 62/43/42
f 61/44/40 51/45/39 52/46/43
f 53/47/44 63/48/45 62/49/42
f 63/50/45 3/51/5 2/52/4
f 64/53/46 63/54/45 53/55/44
f 4/56/10 3/51/5 63/50/45
f 65/57/47 64/58/46 54/59/48
f 5/41/12 4/40/10 64/58/46
f 66/60/49 65/61/47 55/62/50
f 6/63/14 5/64/12 65/61/47
f 67/48/51 66/65/49 56/66/52
f 7/51/16 6/56/14 66/67/49
f 68/49/53 67/48/51 57/47/54
f 8/68/55 7/69/16 67/48/51
f 59/45/56 70/44/57 68/49/53
f 70/44/57 10/70/17 8/68/55
f 60/71/58 69/39/41 70/72/57
f 69/39/41 9/41/19 10/73/17
f 79/74/59 71/75/60 11/76/21
f 79/74/59 37/77/61 21/78/62
f 23/79/63 72/80/64 71/81/60
f 12/82/65 11/24/21 71/83/60
f 25/84/66 73/85/67 72/80/64
f 73/86/67 13/25/24 12/82/65
f 74/87/68 73/85/67 25/84/66
f 74/88/68 14/27/26 13/25/24
f 75/89/69 74/90/68 27/91/70
f 75/74/69 15/29/28 14/76/26
f 76/92/71 75/93/69 29/94/72
f 76/95/71 16/32/30 15/29/28
f 77/96/73 76/97/71 31/98/74
f 77/99/73 17/34/32 16/100/30
f 78/101/75 77/96/73 33/102/76
f 18/35/36 17/34/32 77/99/73
f 39/103/77 80/104/78 78/101/75
f 20/105/38 18/35/36 78/106/75
f 37/107/61 79/89/59 80/108/78
f 19/29/20 20/32/38 80/95/78
f 89/109/79 81/110/80 21/91/62
f 89/111/79 38/112/3 22/113/2
f 24/114/7 82/115/81 81/116/80
f 23/117/63 21/118/62 81/119/80
f 83/120/82 82/121/81 24/122/7
f 25/123/66 23/124/63 82/125/81
f 84/126/83 83/120/82 26/127/6
f 27/128/70 25/123/66 83/129/82
f 85/130/84 84/131/83 28/132/8
f 29/133/72 27/134/70 84/135/83
f 86/136/85 85/130/84 30/137/9
f 31/138/74 29/133/72 85/111/84
f 87/139/86 86/140/85 32/141/11
f 87/142/86 33/143/76 31/144/74
f 36/114/15 88/145/87 87/146/86
f 88/147/87 35/148/88 33/149/76
f 40/4/18 90/150/89 88/145/87
f 90/151/89 39/152/77 35/148/88
f 38/137/3 89/130/79 90/136/89
f 89/111/79 37/133/61 39/138/77
f 9/12/19 1/1/1 38/3/3
f 24/114/7 22/4/2 2/6/4
f 2/153/4 3/7/5 24/9/7
f 4/13/10 28/10/8 3/7/5
f 5/12/12 30/3/9 4/1/10
f 6/154/14 32/11/11 5/12/12
f 7/7/16 34/8/13 6/13/14
f 8/155/55 36/14/15 7/16/16
f 8/155/55 10/17/17 36/14/15
f 10/156/17 9/12/19 40/11/18
f 50/157/37 19/19/20 41/21/22
f 12/82/65 42/22/23 11/24/21
f 12/82/65 13/25/24 42/22/23
f 13/25/24 14/27/26 43/26/25
f 14/76/26 15/29/28 44/31/27
f 15/29/28 16/32/30 45/30/29
f 16/100/30 17/34/32 46/28/31
f 18/35/36 48/22/34 17/34/32
f 20/105/38 49/23/35 18/35/36
f 19/29/20 50/36/37 20/32/38
f 60/71/58 51/37/39 69/39/41
f 69/39/41 61/38/40 9/41/19
f 2/155/4 1/17/1 62/43/42
f 62/49/42 61/44/40 52/46/43
f 52/46/43 53/47/44 62/49/42
f 62/158/42 63/50/45 2/52/4
f 54/159/48 64/53/46 53/55/44
f 64/67/46 4/56/10 63/50/45
f 55/160/50 65/57/47 54/59/48
f 65/57/47 5/41/12 64/58/46
f 56/161/52 66/60/49 55/62/50
f 66/60/49 6/63/14 65/61/47
f 57/47/54 67/48/51 56/66/52
f 67/50/51 7/51/16 66/67/49
f 58/46/90 68/49/53 57/47/54
f 68/49/53 8/68/55 67/48/51
f 58/46/90 59/45/56 68/49/53
f 68/49/53 70/44/57 8/68/55
f 59/162/56 60/71/58 70/72/57
f 70/72/57 69/39/41 10/73/17
f 19/29/20 79/74/59 11/76/21
f 71/75/60 79/74/59 21/78/62
f 21/163/62 23/79/63 71/81/60
f 72/164/64 12/82/65 71/83/60
f 23/79/63 25/84/66 72/80/64
f 72/164/64 73/86/67 12/82/65
f 27/165/70 74/87/68 25/84/66
f 73/86/67 74/88/68 13/25/24
f 29/107/72 75/89/69 27/91/70
f 74/166/68 75/74/69 14/76/26
f 31/167/74 76/92/71 29/94/72
f 75/74/69 76/95/71 15/29/28
f 33/102/76 77/96/73 31/98/74
f 76/168/71 77/99/73 16/100/30
f 35/169/88 78/101/75 33/102/76
f 78/106/75 18/35/36 77/99/73
f 35/169/88 39/103/77 78/101/75
f 80/170/78 20/105/38 78/106/75
f 39/171/77 37/107/61 80/108/78
f 79/74/59 19/29/20 80/95/78
f 37/107/61 89/109/79 21/91/62
f 81/135/80 89/111/79 22/113/2
f 22/4/2 24/114/7 81/116/80
f 82/172/81 23/117/63 81/119/80
f 26/127/6 83/120/82 24/122/7
f 83/129/82 25/123/66 82/125/81
f 28/141/8 84/126/83 26/127/6
f 84/173/83 27/128/70 83/129/82
f 30/137/9 85/130/84 28/132/8
f 85/111/84 29/133/72 84/135/83
f 32/174/11 86/136/85 30/137/9
f 86/175/85 31/138/74 85/111/84
f 34/127/13 87/139/86 32/141/11
f 86/176/85 87/142/86 31/144/74
f 34/177/13 36/114/15 87/146/86
f 87/178/86 88/147/87 33/149/76
f 36/114/15 40/4/18 88/145/87
f 88/147/87 90/151/89 35/148/88
f 40/174/18 38/137/3 90/136/89
f 90/175/89 89/111/79 39/138/77
